<svg xmlns="http://www.w3.org/2000/svg" clip-rule="evenodd" viewBox="0 0 240 367">
  <path fill="#80888e" d="M121.5 6.5c.111.6174.444 1.1174 1 1.5-1.634.4935-3.301.6602-5 .5-5.282-2.646-10.948-4.3127-17-5-1.068-.9345-2.401-1.2678-4-1 1.555-1.1327 3.389-1.7994 5.5-2 6.779 1.48 13.279 3.48 19.5 6z"/>
  <path fill="#38424d" d="M100.5 3.5c6.052.6873 11.718 2.354 17 5 2.818.656 4.485 2.4893 5 5.5-3.306 3.3063-6.64 6.6396-10 10-4.057 1.724-7.557 4.224-10.5 7.5-1.617-1.0394-2.783-2.0394-3.5-3-.438.0654-.772-.1012-1-.5.793-1.0852 1.46-2.2519 2-3.5-2.061-2.6525-4.728-4.4858-8-5.5 1.785-1.1628 3.785-1.8295 6-2-6.252-1.9576-6.419-4.1243-.5-6.5.352-1.7475.852-3.4142 1.5-5 .333-1 1-1.6667 2-2z"/>
  <path fill="#e1ccb2" d="M96.5 2.5c1.599-.2678 2.932.0655 4 1-1 .3333-1.667 1-2 2-5.792 1.8151-10.792 4.8151-15 9-6.947 3.4734-13.947 6.9734-21 10.5-7.173.9214-7.839-.5786-2-4.5 11.651-6.4923 23.651-12.4923 36-18z" opacity=".997"/>
  <path fill="#4c474b" d="M98.5 5.5c-.648 1.5858-1.148 3.2525-1.5 5-5.919 2.3757-5.752 4.5424.5 6.5-2.215.1705-4.215.8372-6 2 3.272 1.0142 5.939 2.8475 8 5.5-.54 1.2481-1.207 2.4148-2 3.5.228.3988.562.5654 1 .5-.359 2.2659.308 4.0993 2 5.5-.808.3076-1.475.8076-2 1.5 1.875.9095 3.208 2.2428 4 4-10.527-3.7078-21.194-7.0411-32-10-.16-1.6992.006-3.3659.5-5 4.328-3.2325 8.494-6.5658 12.5-10 4.208-4.1849 9.208-7.1849 15-9z"/>
  <path fill="#c8ebf1" d="M159.5 18.5c1.699-.1602 3.366.0065 5 .5 6.89 2.2099 13.557 4.7099 20 7.5-7.458-.3576-14.791-2.0242-22-5-2.779.8859-5.446.8859-8 0 .219 1.175-.114 2.175-1 3-8.547 6.0588-16.214 12.8921-23 20.5 3.33 1.833 6.663 3.667 10 5.5-3.984-.988-7.984-1.988-12-3-1.18-2.413-3.18-3.413-6-3-.107-2.403.893-4.236 3-5.5 8.405-4.0777 15.238-9.911 20.5-17.5.333-1.6667.667-3.3333 1-5 .758 2.2695.591 4.4361-.5 6.5 2.618.5209 3.951-.6458 4-3.5-.108-.9419-.441-1.7753-1-2.5 3.332.1612 6.665.6612 10 1.5z"/>
  <path fill="#517890" d="M130.5 11.5c4.973 1.2329 5.806 3.5663 2.5 7-8.005 7.5047-16.172 14.838-24.5 22h-2c.086-.996-.248-1.829-1-2.5 1.559-.9799 3.226-1.8133 5-2.5 2.331-3.83 5.498-6.83 9.5-9 2.106-5.7716 5.939-9.9383 11.5-12.5-.752-.6708-1.086-1.5041-1-2.5z"/>
  <path fill="#f0f6f7" d="M184.5 26.5c5.04.4229 9.707 1.7562 14 4v1c-2.027-.1621-4.027.0045-6 .5-15.169 6.502-30.003 13.668-44.5 21.5-2.72-.733-5.22-1.733-7.5-3-3.337-1.833-6.67-3.667-10-5.5 6.786-7.6079 14.453-14.4412 23-20.5.886-.825 1.219-1.825 1-3 2.554.8859 5.221.8859 8 0 7.209 2.9758 14.542 4.6424 22 5z"/>
  <path fill="#485b6c" d="M121.5 6.5c2.286.095 4.286.7616 6 2-1.373-.1567-2.707.01-4 .5 2.15 1.4114 4.484 2.2447 7 2.5-.086.9959.248 1.8292 1 2.5-5.561 2.5617-9.394 6.7284-11.5 12.5-4.002 2.17-7.169 5.17-9.5 9-1.774.6867-3.441 1.5201-5 2.5.752.671 1.086 1.504 1 2.5-1.333-.333-2.667-.667-4-1-.792-1.7572-2.125-3.0905-4-4 .525-.6924 1.192-1.1924 2-1.5-1.692-1.4007-2.359-3.2341-2-5.5.717.9606 1.883 1.9606 3.5 3 2.943-3.276 6.443-5.776 10.5-7.5 3.36-3.3604 6.694-6.6937 10-10-.515-3.0107-2.182-4.844-5-5.5 1.699.1602 3.366-.0065 5-.5-.556-.3826-.889-.8826-1-1.5z"/>
  <path fill="#6c9ab0" d="M127.5 8.5c5.607 1.1559 10.94 2.8225 16 5-2.306-.4926-4.639-.8259-7-1-.079 1.4305.254 2.7638 1 4-5.529 9.4315-13.029 16.7648-22.5 22-.49 1.293-.657 2.627-.5 4-2.286-.095-4.286-.762-6-2 8.328-7.162 16.495-14.4953 24.5-22 3.306-3.4337 2.473-5.7671-2.5-7-2.516-.2553-4.85-1.0886-7-2.5 1.293-.49 2.627-.6567 4-.5z"/>
  <path fill="#7a645b" d="M83.5 14.5c-4.006 3.4342-8.172 6.7675-12.5 10-.494 1.6341-.66 3.3008-.5 5 10.806 2.9589 21.473 6.2922 32 10 1.333.333 2.667.667 4 1h2c1.714 1.238 3.714 1.905 6 2 2.479 1.295 5.146 2.295 8 3-.342.838-1.008 1.172-2 1-23.957-6.424-47.957-13.0911-72-20 3.495-2.9469 7.495-4.9469 12-6-5.839 3.9214-5.173 5.4214 2 4.5 7.053-3.5266 14.053-7.0266 21-10.5z"/>
  <path fill="#9ad7e4" d="M143.5 13.5c5.677.8942 11.01 2.5609 16 5-3.335-.8388-6.668-1.3388-10-1.5.559.7247.892 1.5581 1 2.5-.049 2.8542-1.382 4.0209-4 3.5 1.091-2.0639 1.258-4.2305.5-6.5-.333 1.6667-.667 3.3333-1 5-5.262 7.589-12.095 13.4223-20.5 17.5-2.107 1.264-3.107 3.097-3 5.5 2.82-.413 4.82.587 6 3-2.079-.471-4.079-1.137-6-2-2.854-.705-5.521-1.705-8-3-.157-1.373.01-2.707.5-4 9.471-5.2352 16.971-12.5685 22.5-22-.746-1.2362-1.079-2.5695-1-4 2.361.1741 4.694.5074 7 1z"/>
  <path fill="#58869a" d="M198.5 30.5c.734 1.3775 1.401 2.8775 2 4.5-.457.414-.791.914-1 1.5 2.592 1.4173 5.259 2.417 8 3-.291 1.149-1.124 1.816-2.5 2-3.262-.251-6.262-1.251-9-3-4.609 1.12-7.776 3.787-9.5 8-3.766.082-6.766 1.582-9 4.5-5.16.915-9.827 2.915-14 6-1.655 1.444-2.322 3.278-2 5.5h-4v9c-.736-3.195-1.403-6.529-2-10-2.656-1.114-5.323-1.114-8 0 .271-1.88-.396-3.213-2-4 .98-3.826 1.813-3.826 2.5 0 1.893-2.874 4.393-3.874 7.5-3 9.147-3.82 17.481-8.986 25-15.5 6.334-1.8683 12.334-4.3683 18-7.5v-1z"/>
  <path fill="#746252" d="M46.5 27.5c-.667 1-1.333 2-2 3-.565 2.4521-1.232 4.7854-2 7h-3c-.709-.904-1.709-1.2373-3-1v7c-2.361-.174-4.694-.507-7-1v8c-3.009-.223-5.676-1.223-8-3 1.517-1.235 3.184-1.235 5 0 .98-2.586 1.313-5.253 1-8 2.333-.667 4.667-1.333 7-2-.17-1.3221.163-2.4887 1-3.5 2.31-.4966 4.643-.6633 7-.5-.125-3.1082 1.208-5.1082 4-6z"/>
  <path fill="#f5eede" d="M121.5 55.5c-1.418 1.808-3.418 2.475-6 2-4.786-1.137-9.786-1.137-15 0-3.377-1.417-6.711-2.751-10-4 .17 1.322-.163 2.489-1 3.5-5.835.854-11.501.354-17-1.5-1.278-1.249-2.278-2.749-3-4.5-3.584-1.073-7.25-1.74-11-2l-1-1c1.438-.219 2.771-.719 4-1.5l-1-1c-4.724.756-9.391 1.089-14 1-.992-.172-1.658.162-2 1-2.032.548-3.032 1.881-3 4-1.753 2.656-3.419 5.489-5 8.5.147 1.974.481 3.974 1 6-1.496.507-2.663.007-3.5-1.5.167-1.833.333-3.667.5-5.5-.928-.388-1.595-1.055-2-2 1.485-2.039 2.319-4.206 2.5-6.5 1.255-.711 2.421-1.544 3.5-2.5-.667-.333-1.333-.667-2-1 2.279-.473 4.279-1.473 6-3-4.917-.969-5.917-3.135-3-6.5h3c.06.543.393.876 1 1 .667-2 1.333-4 2-6 25.418 7.416 50.751 15.083 76 23z"/>
  <path fill="#9d8575" d="M44.5 30.5c32.644 9.658 65.311 19.325 98 29 .916-.043 1.583-.376 2-1 .667 0 1-.333 1-1 1.604.787 2.271 2.12 2 4 .903 2.891 1.236 5.891 1 9h-1c1.703-6.271-.631-9.271-7-9-6.322-1.996-12.656-3.996-19-6-25.249-7.917-50.582-15.584-76-23-.667 2-1.333 4-2 6-.607-.124-.94-.457-1-1 .768-2.2146 1.435-4.5479 2-7z"/>
  <path fill="#3c6173" d="M207.5 39.5c.817 2.469 1.317 5.135 1.5 8 1.948.609 3.782 1.276 5.5 2-2.885-.306-5.552.027-8 1-8.595 4.047-17.262 8.214-26 12.5-2.747 3.925-6.414 6.425-11 7.5h-5c1.513 3.818 2.18 7.818 2 12-1.879-.841-3.879-1.175-6-1 .162-2.027-.005-4.027-.5-6-1.481-.971-2.315-2.304-2.5-4v-9h4c-.322-2.222.345-4.056 2-5.5 4.173-3.085 8.84-5.085 14-6 2.234-2.918 5.234-4.418 9-4.5 1.724-4.213 4.891-6.88 9.5-8 2.738 1.749 5.738 2.749 9 3 1.376-.184 2.209-.851 2.5-2z"/>
  <path fill="#efe2d6" d="M48.5 26.5c24.043 6.9089 48.043 13.576 72 20 7.722 3.241 15.722 5.907 24 8v4c-.417.624-1.084.957-2 1-32.689-9.675-65.356-19.342-98-29 .667-1 1.333-2 2-3 .342-.8382 1.008-1.1716 2-1z"/>
  <path fill="#9c8169" d="M46.5 46.5c6.987 2.915 14.32 4.915 22 6 .027 1.699.694 3.033 2 4h-3c-7.619-3.205-15.286-6.205-23-9 .342-.838 1.008-1.172 2-1z"/>
  <path fill="#7daebc" d="M198.5 31.5c-5.666 3.1317-11.666 5.6317-18 7.5-7.519 6.514-15.853 11.68-25 15.5-3.107-.874-5.607.126-7.5 3-.687-3.826-1.52-3.826-2.5 0 0 .667-.333 1-1 1v-4c-8.278-2.093-16.278-4.759-24-8 .992.172 1.658-.162 2-1 1.921.863 3.921 1.529 6 2 4.016 1.012 8.016 2.012 12 3 2.28 1.267 4.78 2.267 7.5 3 14.497-7.832 29.331-14.998 44.5-21.5 1.973-.4955 3.973-.6621 6-.5z"/>
  <path fill="#f3ead7" d="M115.5 57.5c.111.617.444 1.117 1 1.5-4.45 1.884-9.117 3.05-14 3.5-3.508 3.341-7.508 4.508-12 3.5-.423 3.523-1.59 6.023-3.5 7.5-1.53-1.726-2.53-3.726-3-6-1.627 1.032-2.793 2.366-3.5 4-1.967.239-3.801-.094-5.5-1-.834-2.672-1.668-5.339-2.5-8 1.322-2.365 1.322-4.698 0-7 5.499 1.854 11.165 2.354 17 1.5.837-1.011 1.17-2.178 1-3.5 3.289 1.249 6.623 2.583 10 4 5.214-1.137 10.214-1.137 15 0z"/>
  <path fill="#f5ead9" d="M39.5 37.5c-2.917 3.365-1.917 5.531 3 6.5-1.721 1.527-3.721 2.527-6 3 .667.333 1.333.667 2 1-1.079.956-2.245 1.789-3.5 2.5-.181 2.294-1.015 4.461-2.5 6.5.405.945 1.072 1.612 2 2-.167 1.833-.333 3.667-.5 5.5.837 1.507 2.004 2.007 3.5 1.5-.519-2.026-.853-4.026-1-6 1.581-3.011 3.247-5.844 5-8.5.166 7.008 0 14.008-.5 21l-1-1c-.743 1.941-.576 3.774.5 5.5-.544.717-1.211 1.217-2 1.5-.442-.731-.609-1.731-.5-3-2.067 2.514-3.567 2.348-4.5-.5-2.67-.793-5.17-1.96-7.5-3.5-2.606-.022-5.273.312-8 1-.333-.667-.667-1.333-1-2-1.667 1-3.333 2-5 3-.456-1.244.044-2.077 1.5-2.5-1.136-1.145-2.136-2.312-3-3.5-.219-1.175.114-2.175 1-3 1.571.809 3.238 1.143 5 1 .004-3.754-.163-7.421-.5-11 1.509 2.419 3.675 3.419 6.5 3 .31-3.213-.023-6.213-1-9v-1c2.324 1.777 4.991 2.777 8 3v-8c2.306.493 4.639.826 7 1v-7c1.291-.2373 2.291.096 3 1z"/>
  <path fill="#eeddca" d="M140.5 61.5c6.369-.271 8.703 2.729 7 9-.667 0-1-.333-1-1v-5c-5.06-.832-7.727 1.168-8 6-5.333 2-10.667 4-16 6 .301 4.119-1.699 6.119-6 6-2.305 3.766-5.639 5.433-10 5 .227-2.433-.773-4.099-3-5v-6h4v-5c-1.291.237-2.291-.096-3-1 3.317-.721 6.651-.888 10-.5-2.775.006-4.775 1.173-6 3.5.167.667.333 1.333.5 2 5.253-2.792 5.753-2.125 1.5 2 .333.667.667 1.333 1 2 .411-.762.577-1.762.5-3l2 2c1.916-1.709 4.082-3.043 6.5-4 1.215-2.957 3.215-5.124 6-6.5l-1-1c1.123-1.044 2.456-1.71 4-2-1.124-.249-2.124-.749-3-1.5 4.817-.667 9.483-1.334 14-2z"/>
  <path fill="#569eb7" d="M206.5 50.5c1.175-.219 2.175.114 3 1l-1 1c-5.025 3.422-10.359 6.255-16 8.5-6.137 5.51-13.303 9.344-21.5 11.5-1.03-.336-1.53-1.003-1.5-2 4.586-1.075 8.253-3.575 11-7.5 8.738-4.286 17.405-8.453 26-12.5z"/>
  <path fill="#515153" d="M157.5 71.5c.185 1.696 1.019 3.029 2.5 4 .495 1.973.662 3.973.5 6 2.121-.175 4.121.159 6 1 1.031.749 2.198 1.415 3.5 2 .805 3.196.638 6.196-.5 9-1.762.143-3.429-.191-5-1-.821-2.947-1.321-5.947-1.5-9-1.785-.74-3.618-1.407-5.5-2-.667-3.142-1.334-6.142-2-9-2.465-.267-4.799-.934-7-2 .236-3.109-.097-6.109-1-9 2.677-1.114 5.344-1.114 8 0 .597 3.471 1.264 6.805 2 10z"/>
  <path fill="#f3e5d4" d="M121.5 55.5c6.344 2.004 12.678 4.004 19 6-4.517.666-9.183 1.333-14 2 .876.751 1.876 1.251 3 1.5-1.544.29-2.877.956-4 2l1 1c-2.785 1.376-4.785 3.543-6 6.5-2.418.957-4.584 2.291-6.5 4l-2-2c.077 1.238-.089 2.238-.5 3-.333-.667-.667-1.333-1-2 4.253-4.125 3.753-4.792-1.5-2-.167-.667-.333-1.333-.5-2 1.225-2.327 3.225-3.494 6-3.5-3.349-.388-6.683-.221-10 .5-.961 1.765-1.295 3.765-1 6-1.208-.734-2.541-1.067-4-1 .302-2.559-.032-4.893-1-7h-3c-.583 2.741-1.583 5.408-3 8-.925-1.141-1.759-1.141-2.5 0-2.034-2.06-4.034-1.726-6 1-.925-2.19-2.092-4.19-3.5-6 .707-1.634 1.873-2.968 3.5-4 .47 2.274 1.47 4.274 3 6 1.91-1.477 3.077-3.977 3.5-7.5 4.492 1.008 8.492-.159 12-3.5 4.883-.45 9.55-1.616 14-3.5-.556-.383-.889-.883-1-1.5 2.582.475 4.582-.192 6-2z"/>
  <path fill="#ead7bf" d="M146.5 69.5c0 .667.333 1 1 1h1c2.201 1.066 4.535 1.733 7 2 .219 1.175-.114 2.175-1 3-2.882-1.272-5.715-2.605-8.5-4-2.433 4.433-5.599 8.267-9.5 11.5.667.333 1.333.667 2 1-3.135 1.928-6.468 3.428-10 4.5.209.586.543 1.086 1 1.5-1.541 1.579-2.708 3.413-3.5 5.5l-1-1c-3.703.786-7.369 1.786-11 3-2.027-1.232-3.36-.898-4 1-.689-.857-1.522-1.523-2.5-2-1.342 1.505-3.008 2.172-5 2-7.103-1.287-14.103-2.954-21-5-.667 0-1-.333-1-1 2.622-.533 5.122-1.533 7.5-3 1.585.876 2.585 2.209 3 4 .725-.559 1.558-.892 2.5-1 2.64.649 5.14 1.649 7.5 3 4.877-1.555 9.711-3.055 14.5-4.5 2.157-3.71 4.824-4.21 8-1.5.372-4.159 2.372-7.159 6-9-1.141-.925-1.141-1.759 0-2.5 3.376-1.899 7.043-2.732 11-2.5v-8c2.218.114 4.218.78 6 2z"/>
  <path fill="#86c9d9" d="M206.5 50.5c2.448-.973 5.115-1.306 8-1 1.38.462 2.047 1.462 2 3-.723 2.282-1.057 4.616-1 7 2.104-.299 4.104.034 6 1 .668 4.03 1.334 8.03 2 12-1.902-2.837-2.569-6.171-2-10-4.274-.37-8.274-1.37-12-3h5v-4c-1.699-.16-3.366.006-5 .5-5 2.833-10 5.667-15 8.5-1.923.808-3.923 1.308-6 1.5-3.437 2.7-7.103 5.034-11 7-3.123.206-6.123.873-9 2-.923 2.041-1.256 4.208-1 6.5 3.207-.376 5.873.624 8 3-.907 2.921-1.24 5.921-1 9-.819-2.805-1.319-5.805-1.5-9-1.789-1.729-3.956-2.396-6.5-2 .18-4.182-.487-8.182-2-12h5c-.03.997.47 1.664 1.5 2 8.197-2.156 15.363-5.99 21.5-11.5 5.641-2.245 10.975-5.078 16-8.5l1-1c-.825-.886-1.825-1.219-3-1z"/>
  <path fill="#caf2f5" d="M209.5 59.5c3.726 1.63 7.726 2.63 12 3-.569 3.829.098 7.163 2 10h1c.709.904 1.709 1.237 3 1 .165 3.35-.002 6.683-.5 10l-1-1c-2.721 1.948-5.555 3.781-8.5 5.5-6.454 2.891-13.12 5.224-20 7-2.576.782-4.576 2.282-6 4.5-1.333-.667-2.667-1.333-4-2-.798.457-1.131 1.124-1 2-1.735-2.423-3.402-5.09-5-8-1.342-1.505-3.008-2.172-5-2-.163-2.357.003-4.69.5-7 5.358-5.315 11.525-9.648 18.5-13 3.793-2.551 7.126-5.551 10-9 1.236-.746 2.57-1.079 4-1z"/>
  <path fill="#d2f2f6" d="M212.5 63.5c2.333.667 4.667 1.333 7 2-1.435 5.585.565 8.918 6 10 .333 2 .667 4 1 6-5.892 1.145-11.725 2.478-17.5 4-1-.333-2-.667-3-1-4.499 3.612-9.666 5.445-15.5 5.5-5.562 3.617-7.229 2.117-5-4.5 4.241-2.236 7.908-5.236 11-9-1.505-1.342-2.172-3.008-2-5 7.301.012 13.301-2.655 18-8z"/>
  <path fill="#746250" d="M95.5 68.5h3v6h-3v-6z"/>
  <path fill="#f2e3d0" d="M72.5 55.5c1.322 2.302 1.322 4.635 0 7 .832 2.661 1.666 5.328 2.5 8 1.699.906 3.533 1.239 5.5 1 1.408 1.81 2.575 3.81 3.5 6 1.966-2.726 3.966-3.06 6-1 .741-1.141 1.575-1.141 2.5 0 1.417-2.592 2.417-5.259 3-8v6h3c.375 2.897-.125 5.563-1.5 8-1.049-1.017-2.216-1.184-3.5-.5-2 1.667-4 3.333-6 5-5.184.174-10.184.674-15 1.5-.667-10.667-1.333-21.333-2-32-1.306-.967-1.973-2.301-2-4-7.68-1.085-15.013-3.085-22-6 4.609.089 9.276-.244 14-1l1 1c-1.229.781-2.562 1.281-4 1.5l1 1c3.75.26 7.416.927 11 2 .722 1.751 1.722 3.251 3 4.5z"/>
  <path fill="#f2e4d1" d="M10.5 67.5c.864 1.188 1.864 2.355 3 3.5-1.456.423-1.956 1.256-1.5 2.5 1.667-1 3.333-2 5-3 .333.667.667 1.333 1 2 2.727-.688 5.394-1.022 8-1 2.33 1.54 4.83 2.707 7.5 3.5.933 2.848 2.433 3.014 4.5.5-.109 1.269.058 2.269.5 3-.348 2.519-1.681 4.353-4 5.5 1.167.5 2 1.333 2.5 2.5.556-2.095 1.056-2.262 1.5-.5-.966 1.734-2.466 2.568-4.5 2.5-7.596-1.974-14.596-4.974-21-9-.308.808-.808 1.475-1.5 2-1.361-.288-2.694-.621-4-1v-5h3v-8z"/>
  <path fill="#6d533f" d="M67.5 56.5h3v31h-3v4h-3v-5h3v-30z"/>
  <path fill="#b9edf4" d="M209.5 59.5c-1.43-.079-2.764.254-4 1-2.874 3.449-6.207 6.449-10 9-6.975 3.352-13.142 7.685-18.5 13-.497 2.31-.663 4.643-.5 7 1.992-.172 3.658.495 5 2 1.598 2.91 3.265 5.577 5 8 .262 1.478-.071 2.811-1 4-1.337-2.739-2.67-5.406-4-8-.904-.709-1.237-1.709-1-3-2.065.017-4.065.35-6 1-.24-3.079.093-6.079 1-9-2.127-2.376-4.793-3.376-8-3-.256-2.292.077-4.459 1-6.5 2.877-1.127 5.877-1.794 9-2 3.897-1.966 7.563-4.3 11-7 2.077-.192 4.077-.692 6-1.5 5-2.833 10-5.667 15-8.5 1.634-.494 3.301-.66 5-.5v4h-5z"/>
  <path fill="#345e6e" d="M228.5 74.5c.666 2.858 1.333 5.858 2 9 1.239.442 2.239 1.109 3 2h-5v-11z" opacity=".02"/>
  <path fill="#3f3122" d="M5.5 73.5c-.636 16.993-.969 33.993-1 51-1.161-15.828-1.328-31.828-.5-48 .232-1.237.732-2.237 1.5-3z" opacity=".322"/>
  <path fill="#9a806e" d="M45.5 80.5c6.75 1.006 13.083 3.006 19 6v2c-7.433-2.123-14.767-4.457-22-7 1.291.237 2.291-.096 3-1z"/>
  <path fill="#eedcc7" d="M146.5 69.5c-1.782-1.22-3.782-1.886-6-2v8c-3.957-.232-7.624.601-11 2.5-1.141.741-1.141 1.575 0 2.5-3.628 1.841-5.628 4.841-6 9-3.176-2.71-5.843-2.21-8 1.5-4.789 1.445-9.623 2.945-14.5 4.5-2.36-1.351-4.86-2.351-7.5-3-.942.108-1.775.441-2.5 1-.415-1.791-1.415-3.124-3-4-2.378 1.467-4.878 2.467-7.5 3-1.347-.671-2.514-.671-3.5 0-.667-2.667-1.333-2.667-2 0-1.706-.808-2.539-2.141-2.5-4 4.816-.826 9.816-1.326 15-1.5 2-1.667 4-3.333 6-5 1.284-.684 2.451-.517 3.5.5 1.375-2.437 1.875-5.103 1.5-8v-6c.968 2.107 1.302 4.441 1 7-.162 2.027.005 4.027.5 6 1.011.837 2.178 1.17 3.5 1 2.227.901 3.227 2.567 3 5 4.361.433 7.695-1.234 10-5 4.301.119 6.301-1.881 6-6 5.333-2 10.667-4 16-6 .273-4.832 2.94-6.832 8-6v5z"/>
  <path fill="#6f5a49" d="M99.5 75.5c1.459-.067 2.792.266 4 1v6c-1.322.17-2.489-.163-3.5-1-.495-1.973-.662-3.973-.5-6z"/>
  <path fill="#745f4a" d="M104.5 70.5c.709.904 1.709 1.237 3 1v5h-4c-.295-2.235.039-4.235 1-6z"/>
  <path fill="#eedcc3" d="M64.5 91.5h3c.768-.763 1.268-1.763 1.5-3 1.579 3.009 3.412 5.175 5.5 6.5-3.63 1.871-7.296 4.371-11 7.5-.692-.525-1.192-1.192-1.5-2-.662 2.313-1.162 4.646-1.5 7-3.619.744-7.285 1.077-11 1v-3c-2.772.871-5.438.871-8 0-.787-1.604-2.12-2.271-4-2-.667-1.333-1.333-2.667-2-4v-7c-2.091.182-4.091-.152-6-1-.929 1.189-1.262 2.522-1 4-1.45-1.158-2.45-.658-3 1.5-1.634.494-3.301.66-5 .5.203 1.89-.463 3.39-2 4.5-1.941.304-3.607 1.137-5 2.5-1.196-.346-1.196-.846 0-1.5-.948-.483-1.948-.649-3-.5.07 3.925-.597 7.591-2 11 .219-8.347.719-16.68 1.5-25 1.087 2.432 1.587 2.098 1.5-1 4.452 2.44 9.119 4.44 14 6 .088-2.809 1.588-4.142 4.5-4 4.457-.126 7.624 1.707 9.5 5.5-2.329 1.995-1.662 3.162 2 3.5.886-.825 1.219-1.825 1-3h4c.667-2.667 1.333-5.333 2-8h4c.164 3.248 1.164 6.248 3 9 .925 1.141 1.759 1.141 2.5 0 .49-1.293.657-2.627.5-4 2.333 1.333 4.667 2.667 7 4 .134-1.792-.199-3.458-1-5z"/>
  <path fill="#f2e0cb" d="M44.5 47.5c7.714 2.795 15.381 5.795 23 9v30h-3c-5.917-2.994-12.25-4.994-19-6v-1c-.331-8.692.002-17.359 1-26 5.374 1.772 10.707 3.606 16 5.5-4.961-.874-9.961-1.541-15-2 5.708 1.678 11.375 3.511 17 5.5.952-1.545 1.285-3.212 1-5-6.609-1.985-13.275-3.652-20-5v-3c-1.291-.237-2.291.096-3 1-.043 10.64-.043 20.974 0 31 7.233 2.543 14.567 4.877 22 7v3c.801 1.542 1.134 3.208 1 5-2.333-1.333-4.667-2.667-7-4 .157 1.373-.01 2.707-.5 4-.741 1.141-1.575 1.141-2.5 0-1.836-2.752-2.836-5.752-3-9h-4c-.667 2.667-1.333 5.333-2 8h-4c.219 1.175-.114 2.175-1 3-3.662-.338-4.329-1.505-2-3.5-1.876-3.793-5.043-5.626-9.5-5.5-2.912-.142-4.412 1.191-4.5 4-4.881-1.56-9.548-3.56-14-6 .087 3.098-.413 3.432-1.5 1-.781 8.32-1.281 16.653-1.5 25 .295 2.235-.039 4.235-1 6v-39c1.306.379 2.639.712 4 1 .692-.525 1.192-1.192 1.5-2 6.404 4.026 13.404 7.026 21 9 2.034.068 3.534-.766 4.5-2.5-.444-1.762-.944-1.595-1.5.5-.5-1.167-1.333-2-2.5-2.5 2.319-1.147 3.652-2.981 4-5.5.789-.283 1.456-.783 2-1.5-1.076-1.726-1.243-3.559-.5-5.5l1 1c.5-6.992.666-13.992.5-21-.032-2.119.968-3.452 3-4z"/>
  <path fill="#715540" d="M42.5 50.5c1.657 9.457 2.657 19.124 3 29v1c-.709.904-1.709 1.237-3 1-.043-10.026-.043-20.36 0-31z"/>
  <path fill="#c5ab92" d="M47.5 58.5c3.777 1.779 7.777 2.946 12 3.5 2.082 1.617 3.748 3.617 5 6-2.88 3.217-6.047 6.05-9.5 8.5-.684-1.284-.517-2.451.5-3.5-1.873-1.085-3.54-2.418-5-4 1-.333 2-.667 3-1-2.279-.473-4.279-1.473-6-3 2.667-.667 2.667-1.333 0-2 4.449.2 8.782.866 13 2-3.415-1.917-7.081-3.25-11-4-1.256-.417-1.923-1.25-2-2.5z"/>
  <path fill="#c4ae97" d="M42.5 50.5c.709-.904 1.709-1.237 3-1v3c6.725 1.348 13.391 3.015 20 5 .285 1.788-.048 3.455-1 5-5.625-1.989-11.292-3.822-17-5.5 5.039.459 10.039 1.126 15 2-5.293-1.894-10.626-3.728-16-5.5-.998 8.641-1.331 17.308-1 26-.343-9.876-1.343-19.543-3-29z"/>
  <path fill="#b2eaf1" d="M224.5 72.5c1.983-.343 3.317.324 4 2v11h5c.17 1.322-.163 2.489-1 3.5-4.394 1.131-8.727 2.465-13 4-9.289 5.1-18.956 9.433-29 13-1.249.74-2.249.573-3-.5-1.765-.961-3.765-1.295-6-1v-9c1.33 2.594 2.663 5.261 4 8 .929-1.189 1.262-2.522 1-4-.131-.876.202-1.543 1-2 1.333.667 2.667 1.333 4 2 1.424-2.218 3.424-3.718 6-4.5 6.88-1.776 13.546-4.109 20-7 2.945-1.719 5.779-3.552 8.5-5.5l1 1c.498-3.317.665-6.65.5-10-1.291.237-2.291-.096-3-1z"/>
  <path fill="#4b6c7a" d="M166.5 82.5c2.544-.396 4.711.271 6.5 2 .181 3.195.681 6.195 1.5 9 1.935-.65 3.935-.983 6-1-.237 1.291.096 2.291 1 3v9c2.235-.295 4.235.039 6 1-.667 0-1 .333-1 1-1.914-.685-3.914-1.185-6-1.5-.764-2.069-1.264-4.236-1.5-6.5-2.597-1.811-5.431-3.145-8.5-4-.667 0-1-.333-1-1 1.138-2.804 1.305-5.804.5-9-1.302-.585-2.469-1.251-3.5-2z"/>
  <path fill="#e3cab3" d="M155.5 72.5c.666 2.858 1.333 5.858 2 9 1.882.593 3.715 1.26 5.5 2 .179 3.053.679 6.053 1.5 9 1.571.809 3.238 1.143 5 1 0 .667.333 1 1 1v2c-4.36-.493-8.36-1.826-12-4-7.434-1.257-14.768-2.923-22-5v5h-3c-.06-.543-.393-.876-1-1-.832 8.648-1.332 17.314-1.5 26-3.086 2.965-6.586 3.632-10.5 2-1.888-2.488-2.555-5.488-2-9-2.306-.493-4.639-.826-7-1v-8c-3.416-.028-6.416-1.028-9-3 1.992.172 3.658-.495 5-2 .978.477 1.811 1.143 2.5 2 .64-1.898 1.973-2.232 4-1 3.631-1.214 7.297-2.214 11-3l1 1c.792-2.087 1.959-3.921 3.5-5.5-.457-.414-.791-.914-1-1.5 3.532-1.072 6.865-2.572 10-4.5-.667-.333-1.333-.667-2-1 3.901-3.233 7.067-7.067 9.5-11.5 2.785 1.395 5.618 2.728 8.5 4 .886-.825 1.219-1.825 1-3z"/>
  <path fill="#7a6250" d="M21.5 48.5c.977 2.787 1.31 5.787 1 9-2.825.419-4.991-.581-6.5-3 .337 3.579.504 7.246.5 11-1.762.143-3.429-.191-5-1-.886.825-1.219 1.825-1 3v8h-3v45c-.233 1.562-.9 2.895-2 4h-1c.031-17.007.364-34.007 1-51h3c.281-3.317.281-6.483 0-9.5 2.068-.687 4.068-.52 6 .5.333-1 .667-2 1-3-.595-2.64-.928-5.307-1-8 2.333.667 4.667 1.333 7 2v-7z" opacity=".984"/>
  <path fill="#8f745c" d="M35.5 99.5h-7v-4c-.262-1.478.071-2.811 1-4 1.909.848 3.909 1.182 6 1v7z"/>
  <path fill="#86d4e5" d="M233.5 85.5c.838.342 1.172 1.008 1 2v5c-4.335 1.752-8.335 3.752-12 6-3.819.105-7.486.938-11 2.5-6.415 3.724-13.248 6.557-20.5 8.5-.417-1.256-1.25-1.923-2.5-2-.992.172-1.658-.162-2-1 0-.667.333-1 1-1 .751 1.073 1.751 1.24 3 .5 10.044-3.567 19.711-7.9 29-13 4.273-1.535 8.606-2.869 13-4 .837-1.011 1.17-2.178 1-3.5z"/>
  <path fill="#725843" d="M37.5 103.5c1.88-.271 3.213.396 4 2v4c-2-.333-4-.667-6-1-.423-2.281.244-3.948 2-5z"/>
  <path fill="#6c5147" d="M81.5 93.5c6.897 2.046 13.897 3.713 21 5 2.584 1.972 5.584 2.972 9 3v7c-.686-1.348-1.686-2.515-3-3.5-3.257-1.043-6.59-1.543-10-1.5-1.782-1.22-3.782-1.886-6-2-2.805-1.893-5.805-2.227-9-1-3.235 2.84-6.235 5.84-9 9-.214 1.644.12 3.144 1 4.5-.578 1.417-1.578 2.25-3 2.5v-8c-4.893.134-6.56 2.467-5 7-2.053.098-3.72-.569-5-2 1.869-2.135 2.536-4.802 2-8h6v-5c1.762-.143 3.429.191 5 1 .667-2.333 1.333-4.667 2-7 1.988 1.647 3.321 1.314 4-1z"/>
  <path fill="#625d6a" d="M92.5 101.5c-5.685 3.234-11.685 5.901-18 8 2.765-3.16 5.765-6.16 9-9 3.195-1.227 6.195-.893 9 1z"/>
  <path fill="#645047" d="M158.5 92.5v7c1.599-.268 2.932.066 4 1h-4c.295 2.235-.039 4.235-1 6-1.419.951-3.085 1.284-5 1v5c1.762-.143 3.429.191 5 1 1.303 3.145 1.303 6.145 0 9-2.678 1.409-5.344 1.243-8-.5.944-2.719 1.277-5.552 1-8.5-1.373-.157-2.707.01-4 .5-.415 2.026-1.415 3.526-3 4.5-1.419.951-3.085 1.284-5 1v4c-1.536-1.525-2.536-3.525-3-6-.667-.333-1.333-.667-2-1-1.32-8.157-1.32-16.157 0-24h3v-5c7.232 2.077 14.566 3.743 22 5z"/>
  <path fill="#d4b8a6" d="M157.5 106.5h-6c-.313-2.747.02-5.414 1-8 1.571.809 3.238 1.143 5 1v7z"/>
  <path fill="#e2c5b2" d="M137.5 94.5c2 .333 4 .667 6 1v7h-6v-8z"/>
  <path fill="#8d8a9a" d="M92.5 101.5c2.218.114 4.218.78 6 2-7.734 5.364-15.734 10.364-24 15-2.473-.412-3.806.588-4 3-.667.333-1.333.667-2 1v-6h4c1.422-.25 2.422-1.083 3-2.5-.88-1.356-1.214-2.856-1-4.5 6.315-2.099 12.315-4.766 18-8z"/>
  <path fill="#4c8fac" d="M234.5 92.5v5c-1.699-.16-3.366.006-5 .5-1.079 2.043-2.746 3.376-5 4-11.023 2.844-21.356 7.344-31 13.5-.798.457-1.131 1.124-1 2-1.276-.886-1.276-1.886 0-3 1.802-1.486 3.802-2.486 6-3-.17-1.322.163-2.489 1-3.5 8.515-1.332 16.181-4.499 23-9.5 3.665-2.248 7.665-4.248 12-6z"/>
  <path fill="#e5ceb7" d="M70.5 56.5c.667 10.667 1.333 21.333 2 32-.039 1.859.794 3.192 2.5 4 .667-2.667 1.333-2.667 2 0 .986-.671 2.153-.671 3.5 0 0 .667.333 1 1 1-.679 2.314-2.012 2.647-4 1-.667 2.333-1.333 4.667-2 7-1.571-.809-3.238-1.143-5-1v5h-6c.536 3.198-.131 5.865-2 8h-1c-.689-1.274-1.523-1.274-2.5 0-.346 1.718-.846 3.385-1.5 5-2.532.619-4.865 1.619-7 3-.667-3.142-1.334-6.142-2-9-1.291.237-2.291-.096-3-1-1.014-1.174-2.347-1.84-4-2v-4c2.562.871 5.228.871 8 0v3c3.715.077 7.381-.256 11-1 .338-2.354.838-4.687 1.5-7 .308.808.808 1.475 1.5 2 3.704-3.129 7.37-5.629 11-7.5-2.088-1.325-3.921-3.491-5.5-6.5-.232 1.237-.732 2.237-1.5 3v-4h3v-31z"/>
  <path fill="#41424f" d="M98.5 103.5c3.41-.043 6.743.457 10 1.5 1.314.985 2.314 2.152 3 3.5v1c.057 1.109.39 2.109 1 3-1.431-.381-2.264-1.381-2.5-3-1.145 4.583-1.811 9.249-2 14-.278.916-.778 1.582-1.5 2v-3c.977-2.787 1.31-5.787 1-9-8.853 1.266-17.353 3.6-25.5 7-2.27-1.36-4.77-2.027-7.5-2 8.266-4.636 16.266-9.636 24-15z"/>
  <path fill="#69afc7" d="M222.5 98.5c-6.819 5.001-14.485 8.168-23 9.5-.837 1.011-1.17 2.178-1 3.5-2.198.514-4.198 1.514-6 3-1.276 1.114-1.276 2.114 0 3v2c-.667.333-1.333.667-2 1h-2v-13c1.25.077 2.083.744 2.5 2 7.252-1.943 14.085-4.776 20.5-8.5 3.514-1.562 7.181-2.395 11-2.5z"/>
  <path fill="#d6b7a2" d="M144.5 104.5c1.935.65 3.935.983 6 1v7c-1.762.143-3.429-.191-5-1-.974-2.243-1.308-4.576-1-7z"/>
  <path fill="#29485a" d="M235.5 98.5c.208 2.42-.126 4.753-1 7-2.53 2.005-5.363 3.339-8.5 4-1.073 3.584-1.74 7.25-2 11-1.049-1.017-2.216-1.184-3.5-.5l-11 5.5c-.963-.47-.963-1.137 0-2v-3c4.734-1.802 9.401-3.802 14-6-.124-.607-.457-.94-1-1-2.226-1.059-4.559-.892-7 .5-2.333 1.167-4.667 2.333-7 3.5-1.211.774-1.211 1.607 0 2.5-.594.464-1.261.631-2 .5-1.277-1.398-2.943-2.064-5-2-3.593.969-6.926 2.302-10 4h-1v-2c.667-.333 1.333-.667 2-1 .904-.709 1.237-1.709 1-3 13.547-4.61 26.88-9.776 40-15.5.566-.995 1.233-1.828 2-2.5z"/>
  <path fill="#e7cdb5" d="M28.5 95.5v4h7c.667 1.333 1.333 2.667 2 4-1.756 1.052-2.423 2.719-2 5 2 .333 4 .667 6 1 1.653.16 2.986.826 4 2h-4v4c-1.762.143-3.429-.191-5-1-.952 1.545-1.285 3.212-1 5-2.079-.471-4.079-1.137-6-2 0-.667-.333-1-1-1 .668-4.661-1.332-6.661-6-6v5c.381 1.431 1.381 2.264 3 2.5-1.724.448-2.391 1.282-2 2.5-1.295-.598-2.628-1.098-4-1.5l1-1c-3.541-1.44-7.208-2.274-11-2.5.423 2.281-.244 3.948-2 5v-1c.961-1.765 1.295-3.765 1-6 1.403-3.409 2.07-7.075 2-11 1.052-.149 2.052.017 3 .5-1.196.654-1.196 1.154 0 1.5 1.393-1.363 3.059-2.196 5-2.5 1.537-1.11 2.203-2.61 2-4.5 1.699.16 3.366-.006 5-.5.55-2.158 1.55-2.658 3-1.5z"/>
  <path fill="#6f5443" d="M16.5 103.5c5.01-.59 6.676 1.41 5 6-1.571-.809-3.238-1.143-5-1v-5z"/>
  <path fill="#765b46" d="M22.5 99.5c4.668-.661 6.668 1.339 6 6-4.306.197-6.306-1.803-6-6z"/>
  <path fill="#376983" d="M234.5 87.5c.907 2.157 1.573 4.49 2 7-.934 1.068-1.268 2.401-1 4-.767.672-1.434 1.505-2 2.5-13.12 5.724-26.453 10.89-40 15.5.237 1.291-.096 2.291-1 3v-2c-.131-.876.202-1.543 1-2 9.644-6.156 19.977-10.656 31-13.5 2.254-.624 3.921-1.957 5-4 1.634-.494 3.301-.66 5-.5v-10z"/>
  <path fill="#765c4b" d="M28.5 116.5c-2.065-.017-4.065-.35-6-1v-5c4.668-.661 6.668 1.339 6 6z"/>
  <path fill="#4f8694" d="M222.5 113.5c-4.193 1.189-8.193 2.856-12 5-.798.457-1.131 1.124-1 2v3c-3.067.379-4.067-.621-3-3 .739.131 1.406-.036 2-.5-1.211-.893-1.211-1.726 0-2.5 2.333-1.167 4.667-2.333 7-3.5 2.441-1.392 4.774-1.559 7-.5z"/>
  <path fill="#3d4955" d="M170.5 94.5c3.069.855 5.903 2.189 8.5 4 .236 2.264.736 4.431 1.5 6.5 2.086.315 4.086.815 6 1.5.342.838 1.008 1.172 2 1v11c-3 1.333-6 1.333-9 0-.824-3.812-1.324-7.812-1.5-12-2.454-.698-4.787-1.698-7-3-.497-2.31-.663-4.643-.5-7v-2z"/>
  <path fill="#d8bba9" d="M143.5 118.5c-1.935-.65-3.935-.983-6-1v-7c1.762-.143 3.429.191 5 1 .974 2.243 1.308 4.576 1 7z"/>
  <path fill="#b1e1ee" d="M222.5 113.5c.543.06.876.393 1 1-4.599 2.198-9.266 4.198-14 6-.131-.876.202-1.543 1-2 3.807-2.144 7.807-3.811 12-5z"/>
  <path fill="#705545" d="M45.5 111.5c.709.904 1.709 1.237 3 1v5c-2.091.182-4.091-.152-6-1-.929 1.189-1.262 2.522-1 4-2-.333-4-.667-6-1-.285-1.788.048-3.455 1-5 1.571.809 3.238 1.143 5 1v-4h4z"/>
  <path fill="#5a4642" d="M111.5 109.5c2.361.174 4.694.507 7 1-.555 3.512.112 6.512 2 9 1.689.804 3.355 1.804 5 3-.363.683-.696 1.35-1 2-.342 10.208-1.342 20.208-3 30h-2c-1.182-2.061-.515-3.561 2-4.5-1.319-.195-2.653-.028-4 .5.311-.978.978-1.645 2-2 1.333-8.333 1.333-16.667 0-25-.667-.333-1.333-.667-2-1-.984-2.928-1.317-5.928-1-9-1.459.067-2.792-.266-4-1-.61-.891-.943-1.891-1-3z" opacity=".298"/>
  <path fill="#4b3e3c" d="M162.5 100.5v24h-4v4c-3.045-.008-6.045-.341-9-1-3.761-1.046-7.427-2.379-11-4v-4c1.915.284 3.581-.049 5-1 1.585-.974 2.585-2.474 3-4.5 1.293-.49 2.627-.657 4-.5.277 2.948-.056 5.781-1 8.5 2.656 1.743 5.322 1.909 8 .5 1.303-2.855 1.303-5.855 0-9-1.571-.809-3.238-1.143-5-1v-5c1.915.284 3.581-.049 5-1 .961-1.765 1.295-3.765 1-6h4z"/>
  <path fill="#cfb1a0" d="M157.5 122.5c-2-.333-4-.667-6-1v-7h6v8z"/>
  <path fill="#d8baa4" d="M48.5 112.5c.666 2.858 1.333 5.858 2 9 2.135-1.381 4.468-2.381 7-3 .654-1.615 1.154-3.282 1.5-5 .977-1.274 1.811-1.274 2.5 0-.992 7.816-1.326 15.816-1 24-17.03-4.842-34.03-9.842-51-15-1.314.813-2.481 1.813-3.5 3-.399-.228-.565-.562-.5-1 1.1-1.105 1.767-2.438 2-4 1.756-1.052 2.423-2.719 2-5 3.792.226 7.459 1.06 11 2.5l-1 1c1.372.402 2.705.902 4 1.5-.391-1.218.276-2.052 2-2.5-1.619-.236-2.619-1.069-3-2.5 1.935.65 3.935.983 6 1 .667 0 1 .333 1 1-.951 1.419-1.284 3.085-1 5 2.177.086 4.177.753 6 2 .952-1.545 1.285-3.212 1-5 2 .333 4 .667 6 1-.262-1.478.071-2.811 1-4 1.909.848 3.909 1.182 6 1v-5z"/>
  <path fill="#70574a" d="M29.5 117.5c1.921.863 3.921 1.529 6 2 .285 1.788-.048 3.455-1 5-1.823-1.247-3.823-1.914-6-2-.284-1.915.049-3.581 1-5z"/>
  <path fill="#a5c5dd" d="M74.5 118.5c1.468 1.279 2.135 2.946 2 5-1.291-.237-2.291.096-3 1h-3v-3c.194-2.412 1.527-3.412 4-3z"/>
  <path fill="#24303b" d="M236.5 94.5v51c-2.579-.417-4.746.25-6.5 2-2.761-1.517-4.594-.684-5.5 2.5-3.255 1.209-6.089 3.042-8.5 5.5-1.261-.259-2.261-.926-3-2-2.007 1.169-4.173 1.835-6.5 2-.086-.996.248-1.829 1-2.5-3.293-4.696-2.293-6.529 3-5.5.333-1 .667-2 1-3-.889-2.017-1.389-4.017-1.5-6l1-1c3.446 1.223 6.779 1.89 10 2 1.78-5.365-.054-8.032-5.5-8 1.971-1.323 3.971-2.656 6-4-.5-.333-1-.667-1.5-1-2.289 1.56-4.789 2.727-7.5 3.5.916.278 1.582.778 2 1.5-1.322.17-2.489-.163-3.5-1-.249 1.124-.749 2.124-1.5 3-.667-2.333-1.333-4.667-2-7-4.882.721-8.048 3.387-9.5 8-.98-1.559-1.813-3.226-2.5-5-1.226.863-2.56.863-4 0v-7c3.074-1.698 6.407-3.031 10-4 2.057-.064 3.723.602 5 2-1.067 2.379-.067 3.379 3 3-.963.863-.963 1.53 0 2l11-5.5c1.284-.684 2.451-.517 3.5.5.26-3.75.927-7.416 2-11 3.137-.661 5.97-1.995 8.5-4 .874-2.247 1.208-4.58 1-7-.268-1.599.066-2.932 1-4z" opacity=".952"/>
  <path fill="#93c0d6" d="M106.5 122.5v3c-1.291.237-2.291-.096-3-1 1.648-1.956 2.315-4.289 2-7-2.424-.308-4.757.026-7 1-2.393 1.863-5.06 3.196-8 4-1.656 1.912-1.989 3.912-1 6 2.899-1.142 5.899-1.808 9-2-4.363 3.327-9.363 4.66-15 4-.163-2.357.003-4.69.5-7 6.49-5.336 13.99-8.003 22.5-8v7z"/>
  <path fill="#c0eaf3" d="M103.5 124.5c-1.784.393-3.45 1.059-5 2-3.101.192-6.101.858-9 2-.989-2.088-.656-4.088 1-6 2.94-.804 5.607-2.137 8-4 2.243-.974 4.576-1.308 7-1 .315 2.711-.352 5.044-2 7z"/>
  <path fill="#af9184" d="M158.5 92.5c3.64 2.174 7.64 3.507 12 4-.163 2.357.003 4.69.5 7 2.213 1.302 4.546 2.302 7 3 .176 4.188.676 8.188 1.5 12v5c-.819 2.805-1.319 5.805-1.5 9-.464-.594-.631-1.261-.5-2-.26-4.897-2.26-5.23-6-1-1.944.689-3.944 1.189-6 1.5-.667 1.333-1.333 2.667-2 4-4.618 2.95-8.952 6.284-13 10-3.327.61-6.661 1.11-10 1.5v3c-3.159 1.385-6.492 2.385-10 3v-3c8.358-4.016 16.692-8.183 25-12.5 3.437-2.519 6.437-5.519 9-9-.924-1.811-1.757-1.645-2.5.5-.986-.671-2.153-.671-3.5 0v-4h4v-24c-1.068-.934-2.401-1.268-4-1v-7z"/>
  <path fill="#91c0cf" d="M215.5 131.5h-1c-.418-.722-1.084-1.222-2-1.5 2.711-.773 5.211-1.94 7.5-3.5.5.333 1 .667 1.5 1-2.029 1.344-4.029 2.677-6 4z"/>
  <path fill="#b19385" d="M124.5 124.5c-.166 9.672 0 19.339.5 29 1.16-3.866 1.993-7.866 2.5-12 3.359-2.516 7.025-4.182 11-5 1.084-4.546 4.084-6.712 9-6.5 1.256-.417 1.923-1.25 2-2.5 2.955.659 5.955.992 9 1 1.347-.671 2.514-.671 3.5 0 .743-2.145 1.576-2.311 2.5-.5-2.563 3.481-5.563 6.481-9 9-8.308 4.317-16.642 8.484-25 12.5v3c-.65-.304-1.317-.637-2-1-3.499 2.478-5.166 5.811-5 10-1.915-.284-3.581.049-5 1-1.528 1.302-2.528 2.969-3 5 .175-2.121-.159-4.121-1-6 1.333 0 2-.667 2-2 1.879.841 3.879 1.175 6 1 .175-2.121-.159-4.121-1-6 1.658-9.792 2.658-19.792 3-30z"/>
  <path fill="#c3ada7" d="M70.5 121.5v3h3c.481 3.702 1.148 7.369 2 11-.921 2.256-2.588 3.256-5 3-.129 1.716-.462 3.383-1 5-.991-6.813-1.325-13.813-1-21 .667-.333 1.333-.667 2-1z"/>
  <path fill="#577289" d="M106.5 122.5v-7c-8.51-.003-16.01 2.664-22.5 8-.497 2.31-.663 4.643-.5 7 5.637.66 10.637-.673 15-4 1.55-.941 3.216-1.607 5-2 .709.904 1.709 1.237 3 1-11.651 6.492-23.651 12.492-36 18h-1c.538-1.617.871-3.284 1-5 2.412.256 4.079-.744 5-3-.852-3.631-1.519-7.298-2-11 .709-.904 1.709-1.237 3-1 .135-2.054-.532-3.721-2-5 2.73-.027 5.23.64 7.5 2 8.147-3.4 16.647-5.734 25.5-7 .31 3.213-.023 6.213-1 9z" opacity=".953"/>
  <path fill="#c4a694" d="M133.5 92.5c-1.32 7.843-1.32 15.843 0 24 .667.333 1.333.667 2 1 .464 2.475 1.464 4.475 3 6 3.573 1.621 7.239 2.954 11 4-.077 1.25-.744 2.083-2 2.5-4.916-.212-7.916 1.954-9 6.5-3.975.818-7.641 2.484-11 5-.507 4.134-1.34 8.134-2.5 12-.5-9.661-.666-19.328-.5-29 .304-.65.637-1.317 1-2-1.645-1.196-3.311-2.196-5-3 3.914 1.632 7.414.965 10.5-2 .168-8.686.668-17.352 1.5-26 .607.124.94.457 1 1z"/>
  <path fill="#46342e" d="M72.5 116.5h-4v6c-.325 7.187.009 14.187 1 21h1c-1.495 1.845-3.162 2.178-5 1-20.173-5.21-40.173-11.044-60-17.5-.752-.671-1.086-1.504-1-2.5h1c-.065.438.101.772.5 1 1.019-1.187 2.186-2.187 3.5-3 16.97 5.158 33.97 10.158 51 15-.326-8.184.008-16.184 1-24h1c1.28 1.431 2.947 2.098 5 2-1.56-4.533.107-6.866 5-7v8z"/>
  <path fill="#ceac90" d="M65.5 144.5c-.548-1.894-1.548-3.56-3-5 2.417-.483 4.084.683 5 3.5-.336 1.03-1.003 1.53-2 1.5z"/>
  <path fill="#1f262f" d="M214.5 131.5h1c5.446-.032 7.28 2.635 5.5 8-3.221-.11-6.554-.777-10-2l-1 1c.111 1.983.611 3.983 1.5 6-.333 1-.667 2-1 3-5.293-1.029-6.293.804-3 5.5-.752.671-1.086 1.504-1 2.5v4h-3c1.108-2.195.941-4.195-.5-6-2.772 4.444-6.438 7.777-11 10-.5-11.328-.667-22.662-.5-34 1.44.863 2.774.863 4 0 .687 1.774 1.52 3.441 2.5 5 1.452-4.613 4.618-7.279 9.5-8 .667 2.333 1.333 4.667 2 7 .751-.876 1.251-1.876 1.5-3 1.011.837 2.178 1.17 3.5 1z"/>
  <path fill="#a38579" d="M177.5 130.5c-5.833 5.623-12.167 10.789-19 15.5-1.667 2-3.333 4-5 6-4.782.119-9.449.785-14 2-1.076 1.726-1.243 3.559-.5 5.5.383-.556.883-.889 1.5-1 .282 1.278.949 2.278 2 3-1.109.057-2.109.39-3 1-.828 6.487-1.328 13.154-1.5 20-.498-2.982-.665-5.982-.5-9 .424-4.203-.076-8.203-1.5-12-.221 3.443-1.221 3.776-3 1-2.248.358-4.748 1.025-7.5 2-1.843-.255-3.843-.422-6-.5-.556-.383-.889-.883-1-1.5 1.419-.951 3.085-1.284 5-1-.166-4.189 1.501-7.522 5-10 .683.363 1.35.696 2 1 3.508-.615 6.841-1.615 10-3v-3c3.339-.39 6.673-.89 10-1.5 4.048-3.716 8.382-7.05 13-10 .667-1.333 1.333-2.667 2-4 2.056-.311 4.056-.811 6-1.5 3.74-4.23 5.74-3.897 6 1z"/>
  <path fill="#8e746a" d="M179.5 123.5v39c-.405 3.096-2.072 5.429-5 7-1.667-1-3.333-2-5-3-1.084.185-2.084.518-3 1-.086-.996.248-1.829 1-2.5-8.132-2.575-16.299-5.075-24.5-7.5-.902.243-1.735.577-2.5 1-.617.111-1.117.444-1.5 1-.743-1.941-.576-3.774.5-5.5 4.551-1.215 9.218-1.881 14-2 1.667-2 3.333-4 5-6 6.833-4.711 13.167-9.877 19-15.5-.131.739.036 1.406.5 2 .181-3.195.681-6.195 1.5-9z"/>
  <path fill="#393236" d="M190.5 122.5h1v7c-.167 11.338 0 22.672.5 34 4.562-2.223 8.228-5.556 11-10 1.441 1.805 1.608 3.805.5 6v5c-2.894 4.572-6.894 7.572-12 9 .268 1.599-.066 2.932-1 4v-55z"/>
  <path fill="#f7eee8" d="M119.5 154.5h2c.841 1.879 1.175 3.879 1 6-2.121.175-4.121-.159-6-1-.162-2.027.005-4.027.5-6 .671.752 1.504 1.086 2.5 1z"/>
  <path fill="#c8a694" d="M166.5 167.5c-6.496-1.054-12.829-2.721-19-5-1.716-.129-3.383-.462-5-1-1.051-.722-1.718-1.722-2-3 .765-.423 1.598-.757 2.5-1 8.201 2.425 16.368 4.925 24.5 7.5-.752.671-1.086 1.504-1 2.5z"/>
  <path fill="#2e2a2d" d="M179.5 118.5c3 1.333 6 1.333 9 0v2c-1.175-.219-2.175.114-3 1 1.434.73 2.6 1.73 3.5 3 .784 19.691.618 39.358-.5 59-.904.709-1.237 1.709-1 3-3.053.072-5.719 1.072-8 3v-71z"/>
  <path fill="#f5eae2" d="M114.5 161.5c.841 1.879 1.175 3.879 1 6-2.403.052-4.736-.281-7-1v-6c2 .333 4 .667 6 1z"/>
  <path fill="#755147" d="M235.5 153.5h-1c-5.234 1.007-9.9 3.174-14 6.5-2 .333-4 .667-6 1-7.326 5.619-14.66 11.286-22 17-.837 1.011-1.17 2.178-1 3.5-.934-1.068-1.268-2.401-1-4 .934-1.068 1.268-2.401 1-4 5.106-1.428 9.106-4.428 12-9 4.441-1.317 8.441-3.483 12-6.5 3.444-.111 5.777-1.777 7-5 4.113-1.573 8.279-3.073 12.5-4.5.494 1.634.66 3.301.5 5z"/>
  <path fill="#676164" d="M119.5 154.5c-.996.086-1.829-.248-2.5-1-.495 1.973-.662 3.973-.5 6 0 1.333-.667 2-2 2-2-.333-4-.667-6-1v6c-.709.904-1.709 1.237-3 1h-2c-.709-.904-1.709-1.237-3-1 .51 2.888-.156 5.221-2 7-2.281-.423-3.948.244-5 2-1.073-.751-1.24-1.751-.5-3 2.328-1.164 4.162-2.83 5.5-5 6.055-6.06 12.389-11.726 19-17 1.347-.528 2.681-.695 4-.5-2.515.939-3.182 2.439-2 4.5z" opacity=".984"/>
  <path fill="#7c6058" d="M143.5 165.5c7.376 1.409 14.709 3.076 22 5v5c-7.353-1.672-14.687-3.339-22-5v-5z"/>
  <path fill="#b27e67" d="M234.5 153.5c-2.536 3.156-5.869 5.323-10 6.5-.547.925-1.213 1.758-2 2.5-10.788 3.978-20.621 9.645-29.5 17-.725 1.657-.225 2.657 1.5 3-1.447 1.385-2.447 1.052-3-1-.17-1.322.163-2.489 1-3.5 7.34-5.714 14.674-11.381 22-17 2-.333 4-.667 6-1 4.1-3.326 8.766-5.493 14-6.5z"/>
  <path fill="#e4b692" d="M234.5 153.5h1c.165 3.35-.002 6.683-.5 10-4.314 2.164-8.48 4.498-12.5 7-1.982.495-3.982.995-6 1.5-6.711 4.856-14.045 8.356-22 10.5-1.725-.343-2.225-1.343-1.5-3 8.879-7.355 18.712-13.022 29.5-17 .787-.742 1.453-1.575 2-2.5 4.131-1.177 7.464-3.344 10-6.5z"/>
  <path fill="#4e3c35" d="M142.5 161.5c1.617.538 3.284.871 5 1-1.719.522-3.052 1.522-4 3v6c.166 4.014-.001 8.014-.5 12-1 1.333-2 1.333-3 0-.5-6.992-.666-13.992-.5-21 .891-.61 1.891-.943 3-1z"/>
  <path fill="#54403d" d="M236.5 145.5c.37 8.403-.13 16.736-1.5 25-1.088 3.802-3.588 6.135-7.5 7-2.142 2.162-4.809 3.162-8 3 4.519-2.514 9.019-5.181 13.5-8 .688-.832.521-1.498-.5-2-1.615.654-3.282 1.154-5 1.5-7.398 5.029-15.064 9.529-23 13.5-.12-1.086-.787-1.753-2-2-3.29 1.264-6.624 2.43-10 3.5-1.887.78-3.554.613-5-.5-.237-1.291.096-2.291 1-3 .47 1.193 1.47 1.86 3 2 6.94-2.441 13.773-5.108 20.5-8 3.311-2.829 6.811-5.162 10.5-7 4.02-2.502 8.186-4.836 12.5-7 .498-3.317.665-6.65.5-10 .16-1.699-.006-3.366-.5-5-4.221 1.427-8.387 2.927-12.5 4.5-1.223 3.223-3.556 4.889-7 5-3.559 3.017-7.559 5.183-12 6.5v-5h3v-4c2.327-.165 4.493-.831 6.5-2 .739 1.074 1.739 1.741 3 2 2.411-2.458 5.245-4.291 8.5-5.5.906-3.184 2.739-4.017 5.5-2.5 1.754-1.75 3.921-2.417 6.5-2z"/>
  <path fill="#91786e" d="M137.5 173.5c-1.25-.077-2.083-.744-2.5-2-.333.667-.667 1.333-1 2-4.394-1.187-8.56-.02-12.5 3.5 3.316 1.479 5.316 3.979 6 7.5-.366 1.195-1.199 1.861-2.5 2-2.434-.822-4.934-1.156-7.5-1v7c-2.737.099-5.404-.235-8-1-.722-.418-1.222-1.084-1.5-2-1.868 1.172-3.702 1.005-5.5-.5 2.71-1.668 2.543-2.501-.5-2.5-7.036 1.029-12.536 4.362-16.5 10-1.796.641-3.296 1.641-4.5 3-.333-.667-.667-1.333-1-2-.839 1.124-2.006 1.791-3.5 2-1.855.16-3.188-.507-4-2 1.935.65 3.935.983 6 1 .262-1.478-.071-2.811-1-4-1.526-.494-2.859-1.161-4-2 1.915.284 3.581-.049 5-1 2.306.493 4.639.826 7 1 .241-2.386-.425-4.386-2-6 1.583-2.008 2.583-4.341 3-7v6c2.361.174 4.694.507 7 1v-6c-1.915.284-3.581-.049-5-1h5c2.306.493 4.639.826 7 1 .315-2.711-.352-5.044-2-7 1.844-1.779 2.51-4.112 2-7 1.291-.237 2.291.096 3 1-1.808 1.418-2.475 3.418-2 6 2.361.174 4.694.507 7 1v-6c-1.291.237-2.291-.096-3-1 1.291.237 2.291-.096 3-1 2.264.719 4.597 1.052 7 1 .472-2.031 1.472-3.698 3-5 .111.617.444 1.117 1 1.5 2.157.078 4.157.245 6 .5 2.752-.975 5.252-1.642 7.5-2 1.779 2.776 2.779 2.443 3-1 1.424 3.797 1.924 7.797 1.5 12z"/>
  <path fill="#f5ebe0" d="M103.5 167.5h2c.709.904 1.709 1.237 3 1v6c-2.306-.493-4.639-.826-7-1-.475-2.582.192-4.582 2-6z"/>
  <path fill="#f5eadd" d="M98.5 173.5c1.648 1.956 2.315 4.289 2 7-2.361-.174-4.694-.507-7-1v-4c1.052-1.756 2.719-2.423 5-2z"/>
  <path fill="#987f73" d="M147.5 162.5c6.171 2.279 12.504 3.946 19 5 .333 1 1 1.667 2 2-1.805 5.783-2.472 11.783-2 18-.821-3.141-1.321-6.475-1.5-10-.49 1.293-.657 2.627-.5 4h-3v-5h-4v6c1.478-.262 2.811.071 4 1-.5.333-1 .667-1.5 1-3.301-.945-6.467-2.111-9.5-3.5 2-.333 4-.667 6-1-1.392-2.228-3.392-3.394-6-3.5.219-1.175-.114-2.175-1-3-2.03-.672-4.03-1.338-6-2v-1c7.313 1.661 14.647 3.328 22 5v-5c-7.291-1.924-14.624-3.591-22-5 .948-1.478 2.281-2.478 4-3z"/>
  <path fill="#c3a184" d="m219.5 180.5-16 8c-1.298-1.552-.965-2.552 1-3 7.936-3.971 15.602-8.471 23-13.5 1.718-.346 3.385-.846 5-1.5 1.021.502 1.188 1.168.5 2-4.481 2.819-8.981 5.486-13.5 8z"/>
  <path fill="#342724" d="M168.5 169.5c1.967 7.597 2.634 15.597 2 24-2.429.384-4.763 1.051-7 2v-2c.6-1.4 1.6-2.4 3-3v-3c-.472-6.217.195-12.217 2-18z"/>
  <path fill="#f0e6db" d="M86.5 179.5h2c1.419.951 3.085 1.284 5 1v6c-2.306-.493-4.639-.826-7-1v-6z"/>
  <path fill="#765f57" d="M139.5 162.5c-.166 7.008 0 14.008.5 21 1 1.333 2 1.333 3 0 .499-3.986.666-7.986.5-12 1.97.662 3.97 1.328 6 2 .886.825 1.219 1.825 1 3 2.608.106 4.608 1.272 6 3.5-2 .333-4 .667-6 1 3.033 1.389 6.199 2.555 9.5 3.5.5-.333 1-.667 1.5-1-1.189-.929-2.522-1.262-4-1v-6h4v5h3c-.157-1.373.01-2.707.5-4 .179 3.525.679 6.859 1.5 10v3c-7.105-2.089-14.271-4.089-21.5-6-1.811.578-3.645 1.078-5.5 1.5 1.566.608 2.9 1.442 4 2.5-.996-.086-1.829.248-2.5 1-.667-2.667-1.333-2.667-2 0-.333-1.667-.667-3.333-1-5-3.332.801-6.832.801-10.5 0-.684-3.521-2.684-6.021-6-7.5 3.94-3.52 8.106-4.687 12.5-3.5.333-.667.667-1.333 1-2 .417 1.256 1.25 1.923 2.5 2-.165 3.018.002 6.018.5 9 .172-6.846.672-13.513 1.5-20z"/>
  <path fill="#906e63" d="M188.5 120.5h2v57c-.268 1.599.066 2.932 1 4 .553 2.052 1.553 2.385 3 1 7.955-2.144 15.289-5.644 22-10.5 2.018-.505 4.018-1.005 6-1.5-3.689 1.838-7.189 4.171-10.5 7-6.727 2.892-13.56 5.559-20.5 8-1.53-.14-2.53-.807-3-2 1.118-19.642 1.284-39.309.5-59-.9-1.27-2.066-2.27-3.5-3 .825-.886 1.825-1.219 3-1z"/>
  <path fill="#f2e8e0" d="M83.5 186.5c1.575 1.614 2.241 3.614 2 6-2.361-.174-4.694-.507-7-1v-6c1.716.129 3.383.462 5 1z"/>
  <path fill="#c4a592" d="M166.5 190.5c-1.4.6-2.4 1.6-3 3-3.098-.256-6.098-.922-9-2-3.407-1.574-7.073-2.574-11-3-1.1-1.058-2.434-1.892-4-2.5 1.855-.422 3.689-.922 5.5-1.5 7.229 1.911 14.395 3.911 21.5 6z"/>
  <path fill="#2d3443" d="M227.5 177.5c.128 2.155-.372 4.155-1.5 6-3.398 1.923-5.898 4.589-7.5 8v-4c-4.271 1.15-8.271 2.984-12 5.5-4.696-.484-8.363 1.183-11 5l-21 10.5v-5h8c-.477-2.938-1.477-5.604-3-8-1.242-2.111-1.242-4.111 0-6 2.281-1.928 4.947-2.928 8-3 1.446 1.113 3.113 1.28 5 .5 3.376-1.07 6.71-2.236 10-3.5 1.213.247 1.88.914 2 2-1.965.448-2.298 1.448-1 3l16-8c3.191.162 5.858-.838 8-3z"/>
  <path fill="#75635c" d="M109.5 191.5c-.164 2.687.003 5.354.5 8 4.501-1.444 7.001.223 7.5 5-4.172.574-8.339.907-12.5 1-.945-.405-1.612-1.072-2-2-.388.928-1.055 1.595-2 2-1.011-.392-1.511-1.059-1.5-2-3.417 2.295-7.084 2.628-11 1-6.244.352-12.078 2.018-17.5 5-.324-2.069-1.158-2.402-2.5-1-1.436 14.449-2.436 28.783-3 43v-47c2.201 1.066 4.535 1.733 7 2-.372-4.05-2.705-6.05-7-6 2.344-.44 4.344-1.44 6-3h1c.812 1.493 2.145 2.16 4 2 1.494-.209 2.661-.876 3.5-2 .333.667.667 1.333 1 2 1.204-1.359 2.704-2.359 4.5-3 3.964-5.638 9.464-8.971 16.5-10 3.043-.001 3.21.832.5 2.5 1.798 1.505 3.632 1.672 5.5.5.278.916.778 1.582 1.5 2z"/>
  <path fill="#f1e6dd" d="M73.5 192.5c1.141.839 2.474 1.506 4 2 .929 1.189 1.262 2.522 1 4-2.065-.017-4.065-.35-6-1h-1c-.423-2.281.244-3.948 2-5z"/>
  <path fill="#5e4d49" d="M179.5 162.5v27c-1.242 1.889-1.242 3.889 0 6-1.765.961-3.765 1.295-6 1v6h-6c-.239 1.967.094 3.801 1 5.5-2.692.743-5.025 1.91-7 3.5-3.108-.781-6.108-1.114-9-1 2.01-1.671 4.343-2.338 7-2 .12-2.234-.213-4.401-1-6.5.43-1.434 1.264-2.601 2.5-3.5.667 1.333 1.333 1.333 2 0 .483-.948.649-1.948.5-3 2.237-.949 4.571-1.616 7-2 .634-8.403-.033-16.403-2-24-1-.333-1.667-1-2-2 .916-.482 1.916-.815 3-1 1.667 1 3.333 2 5 3 2.928-1.571 4.595-3.904 5-7z"/>
  <path fill="#a28b7d" d="M134.5 195.5c-.722.418-1.222 1.084-1.5 2-.333 3.333-.667 6.667-1 10-1.816 1.243-3.316.91-4.5-1-.898-.658-1.898-1.324-3-2 1.599-2.229 3.599-2.562 6-1 1.239-1.507.905-2.674-1-3.5.667-.333 1.333-.667 2-1-2-1.333-4-2.667-6-4 3.239-2.107 6.239-1.94 9 .5z"/>
  <path fill="#f2e6dc" d="M65.5 200.5c4.295-.05 6.628 1.95 7 6-2.465-.267-4.799-.934-7-2v-4z"/>
  <path fill="#5e4e4b" d="M154.5 191.5c2.902 1.078 5.902 1.744 9 2v2c.149 1.052-.017 2.052-.5 3-.667 1.333-1.333 1.333-2 0-1.236.899-2.07 2.066-2.5 3.5.787 2.099 1.12 4.266 1 6.5-2.657-.338-4.99.329-7 2 2.892-.114 5.892.219 9 1 .131.876-.202 1.543-1 2-1.909-.848-3.909-1.182-6-1v6c-2.361-.174-4.694-.507-7-1v6h-7v4c-2.135 1.869-4.802 2.536-8 2-3.221-.611-6.221-1.778-9-3.5 2.532-.619 4.865-1.619 7-3-2.157-1.085-2.324-2.251-.5-3.5 2.333 1.333 4.667 2.667 7 4 2.182-1.43 4.349-2.93 6.5-4.5-3.699-1.274-6.699-3.441-9-6.5 1.491-2.307 2.491-4.807 3-7.5-.944-2.719-1.277-5.552-1-8.5 3.61 1.567 6.944 1.067 10-1.5-.667-.333-1.333-.667-2-1 3-2.003 6.333-2.836 10-2.5z"/>
  <path fill="#447e9d" d="M211.5 196.5c-12.036 8.354-24.703 15.687-38 22-6.671 3.336-13.338 6.669-20 10-.739.131-1.406-.036-2-.5 2.563-1.562 4.396-3.728 5.5-6.5 2.326-.38 4.159-1.38 5.5-3 .749-1.031 1.415-2.198 2-3.5 2.056-.311 4.056-.811 6-1.5.886-.825 1.219-1.825 1-3 10.319-1.826 19.319-6.326 27-13.5 4.326-1.331 8.66-2.498 13-3.5v3z"/>
  <path fill="#2a4a63" d="M218.5 191.5c-2.509 1.421-4.843 3.088-7 5v-3c-4.34 1.002-8.674 2.169-13 3.5-7.681 7.174-16.681 11.674-27 13.5.219 1.175-.114 2.175-1 3-1.944.689-3.944 1.189-6 1.5-.585 1.302-1.251 2.469-2 3.5v-5c3.945.927 6.612-.406 8-4 1.189-.929 2.522-1.262 4-1l21-10.5c2.637-3.817 6.304-5.484 11-5 3.729-2.516 7.729-4.35 12-5.5v4z"/>
  <path fill="#564745" d="M134.5 195.5c.992-.172 1.658.162 2 1-.277 2.948.056 5.781 1 8.5-.509 2.693-1.509 5.193-3 7.5 2.301 3.059 5.301 5.226 9 6.5-2.151 1.57-4.318 3.07-6.5 4.5-2.333-1.333-4.667-2.667-7-4-1.824 1.249-1.657 2.415.5 3.5-2.135 1.381-4.468 2.381-7 3 2.779 1.722 5.779 2.889 9 3.5-.028 2.082.639 3.916 2 5.5-.594.464-1.261.631-2 .5-2.292.256-4.459-.077-6.5-1-.483.948-.649 1.948-.5 3-2.654-.842-5.321-1.342-8-1.5-2.374 3.553-4.041 7.387-5 11.5-2.091-.182-4.091.152-6 1-.991-3.945-1.324-7.945-1-12v-1c2.343-1.467 2.01-2.801-1-4-3.669-1.222-7.335-1.222-11 0-.262 1.478.071 2.811 1 4 2.482 1.397 5.148 2.231 8 2.5-1.134 1.016-.801 1.683 1 2-4 .667-8 .667-12 0-.457-.414-.791-.914-1-1.5-4.149-1.309-8.149-1.309-12 0h-2v-9c3.074.373 6.074 1.039 9 2v-4c-.475-2.582.192-4.582 2-6 3 .667 6 1.333 9 2 1.806-.706 3.639-.373 5.5 1 1.333-.667 2.333-1.667 3-3 .783 1.933.283 3.433-1.5 4.5.916.374 1.75.874 2.5 1.5 2.081-1.982 4.581-3.316 7.5-4l2 2c1.546-1.184 3.213-2.184 5-3-3.534-1.288-6.867-2.954-10-5 1.188-1.34 2.688-2.007 4.5-2 3.933 1.472 7.767 1.305 11.5-.5-.228-.399-.562-.565-1-.5v-4c-.343-1.983.324-3.317 2-4 1.184 1.91 2.684 2.243 4.5 1 .333-3.333.667-6.667 1-10 .278-.916.778-1.582 1.5-2z"/>
  <path fill="#63534f" d="M127.5 184.5c3.668.801 7.168.801 10.5 0 .333 1.667.667 3.333 1 5 .667-2.667 1.333-2.667 2 0 .671-.752 1.504-1.086 2.5-1 3.927.426 7.593 1.426 11 3-3.667-.336-7 .497-10 2.5.667.333 1.333.667 2 1-3.056 2.567-6.39 3.067-10 1.5-.342-.838-1.008-1.172-2-1-2.761-2.44-5.761-2.607-9-.5 2 1.333 4 2.667 6 4-.667.333-1.333.667-2 1 1.905.826 2.239 1.993 1 3.5-2.401-1.562-4.401-1.229-6 1 1.102.676 2.102 1.342 3 2-1.676.683-2.343 2.017-2 4-3.246-1.615-6.246-1.282-9 1 2.944 1.204 5.944 2.204 9 3 .438-.065.772.101 1 .5-3.733 1.805-7.567 1.972-11.5.5-1.812-.007-3.312.66-4.5 2 3.133 2.046 6.466 3.712 10 5-1.787.816-3.454 1.816-5 3l-2-2c-2.919.684-5.419 2.018-7.5 4-.75-.626-1.584-1.126-2.5-1.5 1.783-1.067 2.283-2.567 1.5-4.5-.667 1.333-1.667 2.333-3 3-1.861-1.373-3.694-1.706-5.5-1-.172-.992.162-1.658 1-2 1.64-.82 3.307-1.653 5-2.5l-1-1c-5.109-1.422-10.276-2.589-15.5-3.5-1.091 1.846-2.424 2.513-4 2-.795 2.401-1.962 4.568-3.5 6.5-1.867.711-3.367.211-4.5-1.5-1.152 6.27-1.818 12.603-2 19-1.513-5.888-2.847-11.888-4-18-.167 5.167-.333 10.333-.5 15.5.049 5.744.716 11.244 2 16.5-.992-.172-1.658.162-2 1-1.175.219-2.175-.114-3-1 .627-.917.961-1.917 1-3 .564-14.217 1.564-28.551 3-43 1.342-1.402 2.176-1.069 2.5 1 5.422-2.982 11.256-4.648 17.5-5 3.916 1.628 7.583 1.295 11-1-.011.941.489 1.608 1.5 2 .945-.405 1.612-1.072 2-2 .388.928 1.055 1.595 2 2 4.161-.093 8.328-.426 12.5-1-.499-4.777-2.999-6.444-7.5-5-.497-2.646-.664-5.313-.5-8 2.596.765 5.263 1.099 8 1v-7c2.566-.156 5.066.178 7.5 1 1.301-.139 2.134-.805 2.5-2z"/>
  <path fill="#b9a38f" d="M125.5 210.5v4c-3.056-.796-6.056-1.796-9-3 2.754-2.282 5.754-2.615 9-1z"/>
  <path fill="#372e30" d="M179.5 195.5c1.523 2.396 2.523 5.062 3 8h-8v5c-1.478-.262-2.811.071-4 1-1.388 3.594-4.055 4.927-8 4v5c-4.673-.991-8.006.676-10 5-1.236.746-2.57 1.079-4 1v5h-3c-1.135-1.713-2.802-2.38-5-2v-4h7v-6c2.306.493 4.639.826 7 1v-6c2.091-.182 4.091.152 6 1 .798-.457 1.131-1.124 1-2 1.975-1.59 4.308-2.757 7-3.5-.906-1.699-1.239-3.533-1-5.5h6v-6c2.235.295 4.235-.039 6-1z"/>
  <path fill="#d9c0ab" d="M97.5 221.5c-.838.342-1.172 1.008-1 2-3-.667-6-1.333-9-2-3.98-1.77-3.646-3.103 1-4l6 1.5c1.442.377 2.442 1.21 3 2.5z"/>
  <path fill="#d5bdad" d="M85.5 227.5v4c-2.926-.961-5.926-1.627-9-2-2.615-1.977-2.115-3.31 1.5-4 2.433.979 4.933 1.645 7.5 2z"/>
  <path fill="#3c5d78" d="M162.5 218.5c-1.341 1.62-3.174 2.62-5.5 3-1.104 2.772-2.937 4.938-5.5 6.5.594.464 1.261.631 2 .5-3.67 2.563-7.67 4.563-12 6-.744-3.45.59-5.116 4-5h3v-5c1.43.079 2.764-.254 4-1 1.994-4.324 5.327-5.991 10-5z"/>
  <path fill="#3a3e4e" d="M173.5 218.5c-.758 9.967-1.258 19.967-1.5 30-1.851 3.346-4.684 5.346-8.5 6-1.446-1.113-3.113-1.28-5-.5-4 3.226-8.167 3.726-12.5 1.5-2.008-.193-3.508.474-4.5 2-1.109.057-2.109.39-3 1-3.997-.225-7.331 1.108-10 4-.165-3.682.001-7.348.5-11 1.353 1.204 3.019 1.871 5 2 8.579-.518 17.079-1.518 25.5-3 1.247-1.506 1.247-3.006 0-4.5-3.594-1.091-6.928-2.757-10-5 .19-1.828.523-3.662 1-5.5 1.871-.359 3.371-1.359 4.5-3 .591-.983.257-1.65-1-2-5.383 2.877-10.883 5.543-16.5 8h-5v-3c.739.131 1.406-.036 2-.5-1.361-1.584-2.028-3.418-2-5.5 3.198.536 5.865-.131 8-2 2.198-.38 3.865.287 5 2-3.41-.116-4.744 1.55-4 5 4.33-1.437 8.33-3.437 12-6 6.662-3.331 13.329-6.664 20-10z"/>
  <path fill="#624c45" d="M97.5 221.5c-.558-1.29-1.558-2.123-3-2.5l-6-1.5c-4.646.897-4.98 2.23-1 4-1.808 1.418-2.475 3.418-2 6-2.567-.355-5.067-1.021-7.5-2-3.615.69-4.115 2.023-1.5 4v9c-1.273.577-1.273 1.243 0 2 3.025 1.283 6.025 1.616 9 1-2.271-1.2-4.604-2.2-7-3 3.851-1.309 7.851-1.309 12 0 .209.586.543 1.086 1 1.5 4 .667 8 .667 12 0-1.801-.317-2.134-.984-1-2-2.852-.269-5.518-1.103-8-2.5-.929-1.189-1.262-2.522-1-4 3.665-1.222 7.331-1.222 11 0 3.01 1.199 3.343 2.533 1 4-3.19-1.97-6.523-2.636-10-2 3.249 1.312 6.582 2.312 10 3-.324 4.055.009 8.055 1 12 1.909-.848 3.909-1.182 6-1 .959-4.113 2.626-7.947 5-11.5 2.679.158 5.346.658 8 1.5.039 1.083.373 2.083 1 3-.5.333-1 .667-1.5 1-2.099-.787-4.266-1.12-6.5-1-.305 9.417.028 18.75 1 28-16.84-4.089-33.506-8.756-50-14-1.284-5.256-1.951-10.756-2-16.5.167-5.167.333-10.333.5-15.5 1.153 6.112 2.487 12.112 4 18 .182-6.397.848-12.73 2-19 1.133 1.711 2.633 2.211 4.5 1.5 1.538-1.932 2.705-4.099 3.5-6.5 1.576.513 2.909-.154 4-2 5.224.911 10.391 2.078 15.5 3.5l1 1c-1.693.847-3.36 1.68-5 2.5z"/>
  <path fill="#eed3c2" d="M105.5 235.5v1c-3.418-.688-6.751-1.688-10-3 3.477-.636 6.81.03 10 2z"/>
  <path fill="#e4cebb" d="M76.5 238.5h2c2.396.8 4.729 1.8 7 3-2.975.616-5.975.283-9-1-1.273-.757-1.273-1.423 0-2z"/>
  <path fill="#9d7469" d="M150.5 235.5c-3.572 1.734-6.405 4.401-8.5 8l-1-1c-3.716 2.627-7.883 3.961-12.5 4 .237-1.291-.096-2.291-1-3-.107-1.879.393-2.212 1.5-1 3.201-.685 6.035-2.019 8.5-4 5.617-2.457 11.117-5.123 16.5-8 1.257.35 1.591 1.017 1 2-1.129 1.641-2.629 2.641-4.5 3z"/>
  <path fill="#453a3a" d="M98.5 167.5c-1.338 2.17-3.172 3.836-5.5 5-.74 1.249-.573 2.249.5 3v4h-7c-.417 2.659-1.417 4.992-3 7-1.617-.538-3.284-.871-5-1v6c-1.419.951-3.085 1.284-5 1-1.756 1.052-2.423 2.719-2 5-1.656 1.56-3.656 2.56-6 3v51c-.039 1.083-.373 2.083-1 3 .825.886 1.825 1.219 3 1 .709.904 1.709 1.237 3 1-.763.768-1.763 1.268-3 1.5 1.358.934 2.692 1.768 4 2.5-4.122-.233-7.122-2.233-9-6 .82-18.29 1.32-36.623 1.5-55 4.272-.897 6.605-3.564 7-8 1.667-1 3.333-2 5-3 .36-1.921 1.194-3.588 2.5-5 3.475-2.308 6.808-4.808 10-7.5 2.387-4.016 5.721-6.849 10-8.5z" opacity=".698"/>
  <path fill="#ceb39e" d="M95.5 242.5c2.813.048 5.479.715 8 2 .886.825 1.219 1.825 1 3-3.574-.191-6.907-1.191-10-3 .363-.683.696-1.35 1-2z"/>
  <path fill="#66525b" d="M150.5 235.5c-.477 1.838-.81 3.672-1 5.5 3.072 2.243 6.406 3.909 10 5 1.247 1.494 1.247 2.994 0 4.5-8.421 1.482-16.921 2.482-25.5 3-1.981-.129-3.647-.796-5-2-.499 3.652-.665 7.318-.5 11 .263 4.1-.07 8.1-1 12h-2c.855-1.031 1.522-2.197 2-3.5-.07-.765-.403-1.265-1-1.5.911-8.626 1.245-17.292 1-26 .904.709 1.237 1.709 1 3 4.617-.039 8.784-1.373 12.5-4l1 1c2.095-3.599 4.928-6.266 8.5-8z"/>
  <path fill="#d1b4a1" d="M87.5 250.5c2.667.667 5.333 1.333 8 2 .262 1.478-.071 2.811-1 4-2.873-1.375-5.873-2.375-9-3l-1-1c1.102-.676 2.102-1.342 3-2z"/>
  <path fill="#302a2d" d="M132.5 235.5v3h5c-2.465 1.981-5.299 3.315-8.5 4-1.107-1.212-1.607-.879-1.5 1 .245 8.708-.089 17.374-1 26 .082 1.752-.751 2.752-2.5 3-2.346-.49-4.513-1.157-6.5-2 1.333 0 2-.667 2-2-.972-9.25-1.305-18.583-1-28 2.234-.12 4.401.213 6.5 1 .5-.333 1-.667 1.5-1-.627-.917-.961-1.917-1-3-.149-1.052.017-2.052.5-3 2.041.923 4.208 1.256 6.5 1z"/>
  <path fill="#6c8ea5" d="M163.5 254.5c-3.768 2.725-7.768 5.225-12 7.5 3.29.725 6.29 1.892 9 3.5-4.563-.558-8.896-1.891-13-4-4.565 1.582-8.898 3.582-13 6 .172-.992-.162-1.658-1-2 4.071-2.212 8.071-4.712 12-7.5-1.293-.49-2.627-.657-4-.5.992-1.526 2.492-2.193 4.5-2 4.333 2.226 8.5 1.726 12.5-1.5 1.887-.78 3.554-.613 5 .5z" opacity=".29"/>
  <path fill="#8d705f" d="M70.5 256.5c15.881 4.297 31.548 8.964 47 14 1.987.843 4.154 1.51 6.5 2 1.749-.248 2.582-1.248 2.5-3 .597.235.93.735 1 1.5-.478 1.303-1.145 2.469-2 3.5h-6c-1.55-.941-3.216-1.607-5-2v-1c-13.196-5.341-26.863-9.174-41-11.5 1.991.374 3.658 1.207 5 2.5-2.652.09-4.985-.576-7-2-1.308-.732-2.642-1.566-4-2.5 1.237-.232 2.237-.732 3-1.5z"/>
  <path fill="#83c4df" d="M141.5 257.5c1.373-.157 2.707.01 4 .5-3.929 2.788-7.929 5.288-12 7.5-1.208.734-2.541 1.067-4 1-.17-1.322.163-2.489 1-3.5 2.891-1.274 5.558-2.774 8-4.5.891-.61 1.891-.943 3-1z"/>
  <path fill="#c9a38b" d="M69.5 254.5c16.494 5.244 33.16 9.911 50 14 0 1.333-.667 2-2 2-15.452-5.036-31.119-9.703-47-14-1.291.237-2.291-.096-3-1 .342-.838 1.008-1.172 2-1z"/>
  <path fill="#d9f2f7" d="M160.5 265.5h1c2.262 1.323 4.596 2.657 7 4-4.71 1.78-9.044 4.113-13 7-1.333.333-2.667.667-4 1 .064-1.079-.436-2.079-1.5-3-3.267-.773-6.434-1.773-9.5-3-3.378.609-5.378-.724-6-4 4.102-2.418 8.435-4.418 13-6 4.104 2.109 8.437 3.442 13 4z"/>
  <path fill="#eee0d3" d="M114.5 271.5c-5.62-.78-11.12-2.113-16.5-4-2.085.624-3.918 1.624-5.5 3l-11 5.5c-2.667.667-5.333.667-8 0-.457-.414-.791-.914-1-1.5 1-.833 2-1.667 3-2.5 4.78-1.556 9.113-3.889 13-7-3.22-1.352-6.553-2.186-10-2.5-1.342-1.293-3.009-2.126-5-2.5 14.137 2.326 27.804 6.159 41 11.5z"/>
  <path fill="#77b3c4" d="M161.5 265.5c3.147.237 6.147 1.07 9 2.5 1.323.816 1.989 1.983 2 3.5-5.289 1.209-10.289 3.209-15 6-.342-.838-1.008-1.172-2-1 3.956-2.887 8.29-5.22 13-7-2.404-1.343-4.738-2.677-7-4z"/>
  <path fill="#493d3b" d="M114.5 271.5v1c-3.744-.185-7.411-.852-11-2-2.11.554-4.11 1.388-6 2.5.457.414.791.914 1 1.5-1.333 1.12-1.833 2.453-1.5 4 2.672 1.367 5.505 2.367 8.5 3 .693 1.018 1.359 2.018 2 3-6.947-1.892-13.947-3.725-21-5.5-.457-.414-.791-.914-1-1.5 3.593-1.16 5.926-3.494 7-7 1.582-1.376 3.415-2.376 5.5-3 5.38 1.887 10.88 3.22 16.5 4z"/>
  <path fill="#343843" d="M114.5 272.5c1.784.393 3.45 1.059 5 2-1.843.783-3.843 1.45-6 2-1.141 2.308-2.808 4.141-5 5.5 2.932.953 5.932 1.453 9 1.5-.149 1.052.017 2.052.5 3 2.209.489 4.042 1.489 5.5 3-5.471-1.268-10.804-2.935-16-5-.641-.982-1.307-1.982-2-3-2.995-.633-5.828-1.633-8.5-3-.333-1.547.167-2.88 1.5-4-.209-.586-.543-1.086-1-1.5 1.89-1.112 3.89-1.946 6-2.5 3.589 1.148 7.256 1.815 11 2z"/>
  <path fill="#3e6981" d="M138.5 258.5c-2.442 1.726-5.109 3.226-8 4.5-.837 1.011-1.17 2.178-1 3.5 1.459.067 2.792-.266 4-1 .838.342 1.172 1.008 1 2 .622 3.276 2.622 4.609 6 4 1.62 2.484 3.953 3.984 7 4.5-2.842 2.921-6.175 5.088-10 6.5-.02-1.643.647-2.976 2-4-.477-.978-1.143-1.811-2-2.5-3.419-.248-6.753-.748-10-1.5.93-3.9 1.263-7.9 1-12 2.669-2.892 6.003-4.225 10-4z"/>
  <path fill="#bce3ef" d="M172.5 271.5c.131.876-.202 1.543-1 2-12.52 6.092-24.853 12.426-37 19-1.941.369-3.775 1.036-5.5 2-.383-.556-.883-.889-1.5-1 9.835-5.511 19.835-10.845 30-16 4.711-2.791 9.711-4.791 15-6z"/>
  <path fill="#86b3cb" d="M140.5 271.5c3.066 1.227 6.233 2.227 9.5 3 1.064.921 1.564 1.921 1.5 3-7.682 4.508-15.682 8.508-24 12h-2c3.965-2.318 7.965-4.652 12-7 3.825-1.412 7.158-3.579 10-6.5-3.047-.516-5.38-2.016-7-4.5z"/>
  <path fill="#2a4054" d="M119.5 274.5h8c3.247.752 6.581 1.252 10 1.5.857.689 1.523 1.522 2 2.5-1.353 1.024-2.02 2.357-2 4-4.035 2.348-8.035 4.682-12 7h-2c-1.458-1.511-3.291-2.511-5.5-3-.483-.948-.649-1.948-.5-3-3.068-.047-6.068-.547-9-1.5 2.192-1.359 3.859-3.192 5-5.5 2.157-.55 4.157-1.217 6-2z"/>
  <path fill="#f4efe9" d="M120.5 294.5v1c-.904.709-1.237 1.709-1 3a1060.5128 1060.5128 0 0 1-52-14.5c-1.55-3.299-.717-5.799 2.5-7.5 16.633 5.711 33.466 10.711 50.5 15v3z"/>
  <path fill="#416478" d="M155.5 276.5c.992-.172 1.658.162 2 1-10.165 5.155-20.165 10.489-30 16-.667 0-1-.333-1-1 .057-1.109.39-2.109 1-3 8.318-3.492 16.318-7.492 24-12 1.333-.333 2.667-.667 4-1z"/>
  <path fill="#525060" d="M172.5 271.5c1.238 1.714 1.905 3.714 2 6-.617-.111-1.117-.444-1.5-1-.499 4.655-.666 9.321-.5 14-.809 1.792-1.309 3.792-1.5 6-2.93 1.659-5.93 1.992-9 1-.002-2.551-.836-4.551-2.5-6 4.317-2.498 3.983-3.331-1-2.5-2.839 1.92-5.839 3.587-9 5-.752.671-1.086 1.504-1 2.5-.967 1.306-2.301 1.973-4 2-.526-3.308.807-5.474 4-6.5-1.833-.167-3.667-.333-5.5-.5-2.302.1-4.302.767-6 2-.671-.752-1.504-1.086-2.5-1 12.147-6.574 24.48-12.908 37-19 .798-.457 1.131-1.124 1-2z"/>
  <path fill="#a2c5d7" d="M159.5 291.5c-3.79 1.395-7.457 3.062-11 5-.086-.996.248-1.829 1-2.5 3.161-1.413 6.161-3.08 9-5 4.983-.831 5.317.002 1 2.5z"/>
  <path fill="#8d6d5f" d="M78.5 262.5c3.447.314 6.78 1.148 10 2.5-3.887 3.111-8.22 5.444-13 7-1 .833-2 1.667-3 2.5.209.586.543 1.086 1 1.5 2.667.667 5.333.667 8 0l11-5.5c-1.074 3.506-3.407 5.84-7 7 .209.586.543 1.086 1 1.5 7.053 1.775 14.053 3.608 21 5.5 5.196 2.065 10.529 3.732 16 5h4c-.61.891-.943 1.891-1 3h-1c-2.014-.108-3.68.558-5 2v-3c-17.034-4.289-33.867-9.289-50.5-15-3.217 1.701-4.05 4.201-2.5 7.5a1060.5128 1060.5128 0 0 0 52 14.5c-.237-1.291.096-2.291 1-3 .507 1.359 1.507 2.359 3 3-1.545.952-3.212 1.285-5 1v50c-3.66.341-6.993-.325-10-2 2.047.011 4.047.344 6 1 1.147-.318 1.981-.984 2.5-2 .761-10.354.594-20.687-.5-31-.469-3.425-1.969-3.758-4.5-1-.176 4.188-.676 8.188-1.5 12v-12c-2-.333-4-.667-6-1v-1c1.869-2.135 2.536-4.802 2-8-7.349-1.68-14.683-3.346-22-5 .219 1.175-.114 2.175-1 3-1.909-.848-3.909-1.182-6-1v5h-3c-2.306-.493-4.639-.826-7-1-.899 9.32-1.066 18.653-.5 28 1.409 1.281 2.909 2.281 4.5 3-1.792.134-3.458-.199-5-1-.654-17.431-1.32-34.765-2-52-.43-3.362.57-6.195 3-8.5 5.571-3.284 11.238-6.284 17-9-2.118-1.082-4.118-2.249-6-3.5z"/>
  <path fill="#4f4343" d="M64.5 283.5c.68 17.235 1.346 34.569 2 52l-2 2c-1.333-18-1.333-36 0-54z" opacity=".578"/>
  <path fill="#293444" d="M172.5 290.5c.195 4.415-.305 8.749-1.5 13-1.401 1.692-3.234 2.359-5.5 2 .214 1.644-.12 3.144-1 4.5-1.902.199-3.402 1.033-4.5 2.5-1.356-.88-2.856-1.214-4.5-1v9c-1.984-.117-3.65.55-5 2-1.206 2.579-2.539 5.079-4 7.5-1.293.49-2.627.657-4 .5.273-1.951-.393-3.451-2-4.5-3.589-.207-7.089-.707-10.5-1.5-.499 5.657-.666 11.324-.5 17 1.859.039 3.192-.794 4-2.5 2.668-.567 5.334-1.067 8-1.5-3.389 1.803-6.389 4.136-9 7-.928 2.099-2.428 3.766-4.5 5-.5-15.33-.667-30.663-.5-46 .258-3.867-.408-7.534-2-11h1c0 .667.333 1 1 1 .617.111 1.117.444 1.5 1 1.725-.964 3.559-1.631 5.5-2 .996-.086 1.829.248 2.5 1 1.698-1.233 3.698-1.9 6-2 1.833.167 3.667.333 5.5.5-3.193 1.026-4.526 3.192-4 6.5 1.699-.027 3.033-.694 4-2 3.543-1.938 7.21-3.605 11-5 1.664 1.449 2.498 3.449 2.5 6 3.07.992 6.07.659 9-1 .191-2.208.691-4.208 1.5-6z"/>
  <path fill="#5d7181" d="M157.5 299.5h3c.17 1.322-.163 2.489-1 3.5 1.259.923 2.592 1.757 4 2.5-.667.333-1.333.667-2 1-2.295-1.98-4.961-3.147-8-3.5 1.231-1.405 2.564-2.571 4-3.5z"/>
  <path fill="#61473c" d="M104.5 312.5c-1.617-.538-3.284-.871-5-1v-7c-3.791-.531-7.457-1.531-11-3-3.061 1.31-4.394 3.643-4 7h-4v7c2.361.174 4.694.507 7 1v14h-3c-.266-4.071.067-8.071 1-12-2.122-1.615-4.455-2.115-7-1.5 1.405 1.269 3.071 1.769 5 1.5v7h-6c.498-3.181-.335-5.847-2.5-8-.499-3.652-.665-7.318-.5-11h3v-5c2.091-.182 4.091.152 6 1 .886-.825 1.219-1.825 1-3 7.317 1.654 14.651 3.32 22 5 .536 3.198-.131 5.865-2 8z"/>
  <path fill="#1f1c20" d="M127.5 303.5c-.167 15.337 0 30.67.5 46 2.072-1.234 3.572-2.901 4.5-5 5.363-1.727 10.697-3.394 16-5 4.618-2.52 9.618-3.52 15-3l-37 18.5c-3.667.667-7.333.667-11 0-1.237-.232-2.237-.732-3-1.5 3.333.333 6.667.667 10 1-2.446-16.612-2.612-33.279-.5-50 1.699-.906 3.533-1.239 5.5-1z"/>
  <path fill="#a97d68" d="M104.5 312.5v1c-.672 3.408.328 6.075 3 8-2.873.376-5.873.376-9 0v13c-4.784-2.038-9.784-3.038-15-3 .472-2.858-.528-4.858-3-6h3v-7c-1.929.269-3.595-.231-5-1.5 2.545-.615 4.878-.115 7 1.5-.933 3.929-1.266 7.929-1 12h3v-14c-2.306-.493-4.639-.826-7-1v-7h4c-.394-3.357.939-5.69 4-7 3.543 1.469 7.209 2.469 11 3v7c1.716.129 3.383.462 5 1z"/>
  <path fill="#a9c3d0" d="M146.5 319.5c1.175-.219 2.175.114 3 1-1.223 1.114-2.556 1.281-4 .5.556-.383.889-.883 1-1.5z"/>
  <path fill="#2e4e67" d="M174.5 277.5c.167 16.67 0 33.337-.5 50-1.795 4.96-5.295 7.96-10.5 9-5.382-.52-10.382.48-15 3 6.918-5.568 14.585-9.902 23-13 .886-.825 1.219-1.825 1-3-7.441 2.387-14.441 5.887-21 10.5-2 .333-4 .667-6 1-.971 1.481-2.304 2.315-4 2.5-2.666.433-5.332.933-8 1.5-.808 1.706-2.141 2.539-4 2.5-.166-5.676.001-11.343.5-17 3.411.793 6.911 1.293 10.5 1.5 1.607 1.049 2.273 2.549 2 4.5 1.373.157 2.707-.01 4-.5 1.461-2.421 2.794-4.921 4-7.5 1.35-1.45 3.016-2.117 5-2v-9c1.644-.214 3.144.12 4.5 1 1.098-1.467 2.598-2.301 4.5-2.5.88-1.356 1.214-2.856 1-4.5 2.266.359 4.099-.308 5.5-2 1.195-4.251 1.695-8.585 1.5-13-.166-4.679.001-9.345.5-14 .383.556.883.889 1.5 1z"/>
  <path fill="#be9077" d="M74.5 306.5c-.165 3.682.001 7.348.5 11 2.165 2.153 2.998 4.819 2.5 8h3c2.472 1.142 3.472 3.142 3 6 5.216-.038 10.216.962 15 3 .765.423 1.598.757 2.5 1 2.639-1.494 5.472-2.161 8.5-2-.302-2.559.032-4.893 1-7 .824-3.812 1.324-7.812 1.5-12 2.531-2.758 4.031-2.425 4.5 1 1.094 10.313 1.261 20.646.5 31-.519 1.016-1.353 1.682-2.5 2-1.953-.656-3.953-.989-6-1-12.292-3.823-24.625-7.489-37-11-1.591-.719-3.091-1.719-4.5-3-.566-9.347-.399-18.68.5-28 2.361.174 4.694.507 7 1z"/>
  <path fill="#76594c" d="M104.5 313.5c2 .333 4 .667 6 1v12c-.968 2.107-1.302 4.441-1 7-3.028-.161-5.861.506-8.5 2-.902-.243-1.735-.577-2.5-1v-13c3.127.376 6.127.376 9 0-2.672-1.925-3.672-4.592-3-8z"/>
  <path fill="#64535e" d="M148.5 339.5c-5.303 1.606-10.637 3.273-16 5 2.611-2.864 5.611-5.197 9-7 1.696-.185 3.029-1.019 4-2.5 2-.333 4-.667 6-1 6.559-4.613 13.559-8.113 21-10.5.219 1.175-.114 2.175-1 3-8.415 3.098-16.082 7.432-23 13z"/>
  <path fill="#39261f" d="M125.5 292.5c1.592 3.466 2.258 7.133 2 11-1.967-.239-3.801.094-5.5 1-2.112 16.721-1.946 33.388.5 50-3.333-.333-6.667-.667-10-1-15.469-3.869-30.802-8.369-46-13.5-.881-.708-1.547-1.542-2-2.5l2-2c1.542.801 3.208 1.134 5 1 12.375 3.511 24.708 7.177 37 11 3.007 1.675 6.34 2.341 10 2v-50c1.788.285 3.455-.048 5-1-1.493-.641-2.493-1.641-3-3v-1c1.32-1.442 2.986-2.108 5-2z" opacity=".99"/>
</svg>
