<svg xmlns="http://www.w3.org/2000/svg" clip-rule="evenodd" viewBox="0 0 228 443">
  <path fill="#96aab3" d="M134.5 19.5c.131.7389-.036 1.4056-.5 2-.741-1.1405-1.575-1.1405-2.5 0-1.352-1.0244-2.685-2.0244-4-3-1.545-4.6845-3.712-5.0178-6.5-1-2.925-1.5181-5.258-.8514-7 2-1-.6667-2-1.3333-3-2-2.434 1.5233-5.101 2.5233-8 3-2.544-.6186-5.044-.1186-7.5 1.5-.752.6708-1.086 1.5041-1 2.5-.722.4175-1.222 1.0842-1.5 2-.464-.5944-.631-1.2611-.5-2 3.581-10.9026 11.081-17.5692 22.5-20 8.694 2.2512 15.194 7.2512 19.5 15z"/>
  <path fill="#424f5b" d="M127.5 18.5c1.315.9756 2.648 1.9756 4 3 .925-1.1405 1.759-1.1405 2.5 0 .464-.5944.631-1.2611.5-2 5.877 15.7149 9.21 32.0482 10 49-.934 1.068-1.268 2.401-1 4h-1c-1.859-4.243-3.526-8.5762-5-13 1.907-2.3686 2.907-5.202 3-8.5-.957-7.6594-2.623-15.1594-5-22.5-2.976-2.7328-6.142-4.3995-9.5-5-.711 3.3794-2.878 4.8794-6.5 4.5 1.556 5.1021-.444 7.6021-6 7.5 2.729-.8894 4.729-2.7227 6-5.5-.566-.9947-1.233-1.828-2-2.5-1.653-3.4161-1.153-6.4161 1.5-9 1.333.6667 2.667 1.3333 4 2 2.102-.5382 2.935-1.5382 2.5-3 .692.5253 1.192 1.1919 1.5 2 .399-.2284.565-.5618.5-1z"/>
  <path fill="#5d6e7a" d="M127.5 18.5c.065.4382-.101.7716-.5 1-.308-.8081-.808-1.4747-1.5-2 .435 1.4618-.398 2.4618-2.5 3-1.333-.6667-2.667-1.3333-4-2-2.653 2.5839-3.153 5.5839-1.5 9-1.256.0386-2.256-.4614-3-1.5.333-1 .667-2 1-3-.568-1.6036-1.568-2.2703-3-2 .333.3333.667.6667 1 1-4.048 3.7751-5.048 7.9418-3 12.5h-3v6c-2.181-.2163-3.847.617-5 2.5 2 1.3333 4 2.6667 6 4-2.991-.4-5.824-1.5667-8.5-3.5-.513 1.0266-1.013 2.0266-1.5 3-.651.5906-1.318 1.2573-2 2-.333-.6667-.667-1.3333-1-2 1.477-2.139 2.477-4.4723 3-7 1.624-.1399 2.79.5267 3.5 2 1.298-1.0596 2.465-2.2263 3.5-3.5-1.671-1.9298-2.337-3.9298-2-6 4.414-.7479 5.914-3.2479 4.5-7.5-.893-.5814-1.893-.9148-3-1-2.36 1.3926-4.693 2.0593-7 2-1.16-2.297-2.16-1.9637-3 1-.464-.5944-.631-1.2611-.5-2-.086-.9959.248-1.8292 1-2.5 2.456-1.6186 4.956-2.1186 7.5-1.5 2.899-.4767 5.566-1.4767 8-3 1 .6667 2 1.3333 3 2 1.742-2.8514 4.075-3.5181 7-2 2.788-4.0178 4.955-3.6845 6.5 1z"/>
  <path fill="#93a8ba" d="M117.5 27.5c.767.672 1.434 1.5053 2 2.5-1.271 2.7773-3.271 4.6106-6 5.5-1.109-.0569-2.109-.3902-3-1-2.048-4.5582-1.048-8.7249 3-12.5-.333-.3333-.667-.6667-1-1 1.432-.2703 2.432.3964 3 2-.333 1-.667 2-1 3 .744 1.0386 1.744 1.5386 3 1.5z"/>
  <path fill="#283844" d="M98.5 46.5c.193 3.7485-.807 7.0818-3 10-2.274 1.4803-3.608 3.6469-4 6.5-5.106 1.0158-7.773 4.1824-8 9.5h-1c-.165-3.018.002-6.0184.5-9 3.672-13.0171 6.838-26.0171 9.5-39-.131.7389.036 1.4056.5 2 .278-.9158.778-1.5825 1.5-2-.131.7389.036 1.4056.5 2 .84-2.9637 1.84-3.297 3-1 2.307.0593 4.64-.6074 7-2 1.107.0852 2.107.4186 3 1 1.414 4.2521-.086 6.7521-4.5 7.5-.337 2.0702.329 4.0702 2 6-1.035 1.2737-2.202 2.4404-3.5 3.5-.71-1.4733-1.876-2.1399-3.5-2-.523 2.5277-1.523 4.861-3 7 .333.6667.667 1.3333 1 2 .682-.7427 1.349-1.4094 2-2z"/>
  <path fill="#121720" d="M137.5 59.5c-4.1-3.2793-6.6-7.6127-7.5-13-.333.6667-.667 1.3333-1 2-3.333-1.3333-6.667-1.3333-10 0-2.776-1.7834-4.609-3.7834-5.5-6-1.333.6667-2.333 1.6667-3 3 1.904 1.2659 3.237 2.9325 4 5-2.365.5084-4.699 1.1751-7 2-1.714-1.1085-2.381-.4418-2 2 2.442-.1463 3.109.687 2 2.5-2.954-.5607-5.954-.394-9 .5-1.291.2373-2.291-.096-3-1 2.193-2.9182 3.193-6.2515 3-10 .487-.9734.987-1.9734 1.5-3 2.676 1.9333 5.509 3.1 8.5 3.5-2-1.3333-4-2.6667-6-4 1.153-1.883 2.819-2.7163 5-2.5v-6h3c.891.6098 1.891.9431 3 1 5.556.1021 7.556-2.3979 6-7.5 3.622.3794 5.789-1.1206 6.5-4.5 3.358.6005 6.524 2.2672 9.5 5 2.377 7.3406 4.043 14.8406 5 22.5-.093 3.298-1.093 6.1314-3 8.5z"/>
  <path fill="#020510" d="M137.5 59.5c1.474 4.4238 3.141 8.757 5 13-1.311 2.06-1.311 4.226 0 6.5-.789 3.097-1.956 3.264-3.5.5-.342 2.119-1.175 2.453-2.5 1 .149-1.052-.017-2.052-.5-3-2.462 4.426-6.296 6.426-11.5 6-.366-1.195-1.199-1.861-2.5-2-3.561.293-7.061.293-10.5 0-1.571 2.593-3.904 3.593-7 3 .02-1.643-.647-2.976-2-4 1.489-.033 2.822-.533 4-1.5-1.26-1.113-2.427-1.28-3.5-.5-.833-1-1.667-2-2.5-3-1.465 1.109-2.465.609-3-1.5.626-.75 1.126-1.584 1.5-2.5.308.808.808 1.475 1.5 2-.31-1.701.19-3.368 1.5-5 1.91-.7065 3.91-1.7065 6-3 1.748 1.6352 2.915 3.635 3.5 6 .692-.525 1.192-1.192 1.5-2 2.135 2.956 4.468 3.289 7 1 .856-2.368 1.69-4.7017 2.5-7 4.236-.9844 4.903-3.1511 2-6.5.333-.3333.667-.6667 1-1-2.252.6116-4.585.9449-7 1 .808-.3076 1.475-.8076 2-1.5-.746-1.2362-1.079-2.5695-1-4-1.915.2845-3.581-.0489-5-1-.763-2.0675-2.096-3.7341-4-5 .667-1.3333 1.667-2.3333 3-3 .891 2.2166 2.724 4.2166 5.5 6 3.333-1.3333 6.667-1.3333 10 0 .333-.6667.667-1.3333 1-2 .9 5.3873 3.4 9.7207 7.5 13z"/>
  <path fill="#050814" d="M114.5 50.5c1.419.9511 3.085 1.2845 5 1-.079 1.4305.254 2.7638 1 4-.525.6924-1.192 1.1924-2 1.5 2.415-.0551 4.748-.3884 7-1-.333.3333-.667.6667-1 1 2.903 3.3489 2.236 5.5156-2 6.5-.81 2.2983-1.644 4.632-2.5 7-2.532 2.289-4.865 1.956-7-1-.308.808-.808 1.475-1.5 2-.585-2.365-1.752-4.3648-3.5-6-2.09 1.2935-4.09 2.2935-6 3-1.31 1.632-1.81 3.299-1.5 5-.692-.525-1.192-1.192-1.5-2-.374.916-.874 1.75-1.5 2.5.535 2.109 1.535 2.609 3 1.5.833 1 1.667 2 2.5 3 1.073-.78 2.24-.613 3.5.5-1.178.967-2.511 1.467-4 1.5 1.353 1.024 2.02 2.357 2 4 3.096.593 5.429-.407 7-3 3.439.293 6.939.293 10.5 0 1.301.139 2.134.805 2.5 2-3.402.781-6.235 2.448-8.5 5-2.425-.761-3.758-2.428-4-5-2.365 1.865-2.532 3.532-.5 5l-1 1c-1.353-1.683-3.02-3.016-5-4-.586.209-1.086.543-1.5 1-1.532-5.514-3.032-5.847-4.5-1-1.713-1.378-3.047-3.045-4-5-2-.833-4-1.667-6-2.5.291-2.126.957-4.46 2-7l-1-1 3-1.5c.779-2.5656 2.279-4.5656 4.5-6 .494-1.6341.66-3.3008.5-5 3.046-.894 6.046-1.0607 9-.5 1.109-1.813.442-2.6463-2-2.5-.381-2.4418.286-3.1085 2-2 2.301-.8249 4.635-1.4916 7-2z"/>
  <path fill="#7a8996" d="M144.5 68.5c2.828 2.248 5.828 4.248 9 6-.086.996.248 1.829 1 2.5-2.141 1.15-3.974 2.65-5.5 4.5-1.416-1.073-2.75-1.073-4 0-.21-1.558-.71-2.891-1.5-4v-5c-.268-1.599.066-2.932 1-4z"/>
  <path fill="#72859a" d="M82.5 72.5h1c.968 2.107 1.302 4.441 1 7-1.623-.991-2.623-.324-3 2-2.007-1.179-2.34-.679-1 1.5-1.149 1.744-2.483 1.911-4 .5-4.583.615-4.916 1.782-1 3.5-.608.87-1.441 1.37-2.5 1.5-.326-1.236-1.326-2.57-3-4-2.022 1.286-4.189 2.286-6.5 3-1.196-.346-1.196-.846 0-1.5-2.045-.49-4.045-.323-6 .5 2.128-2.63 4.461-5.13 7-7.5 6.147-1.866 12.147-4.033 18-6.5z"/>
  <path fill="#070a16" d="M95.5 56.5c.709.904 1.709 1.2373 3 1 .16 1.6992-.006 3.3659-.5 5-2.221 1.4344-3.721 3.4344-4.5 6l-3 1.5 1 1c-1.043 2.54-1.709 4.874-2 7 2 .833 4 1.667 6 2.5.953 1.955 2.287 3.622 4 5 1.468-4.847 2.968-4.514 4.5 1 .414-.457.914-.791 1.5-1 1.98.984 3.647 2.317 5 4l1-1c-2.032-1.468-1.865-3.135.5-5 .242 2.572 1.575 4.239 4 5 2.265-2.552 5.098-4.219 8.5-5 5.204.426 9.038-1.574 11.5-6 .483.948.649 1.948.5 3-2.022 4.574-5.355 6.74-10 6.5.119 1.281-.381 2.448-1.5 3.5-1.617-1.036-1.784-2.203-.5-3.5-3.426-1.238-5.092-.071-5 3.5h4c-.497 4.259.169 8.259 2 12-3.576 8.895-7.576 17.562-12 26-2.989 4.638-5.989 9.305-9 14-.889-1.507-1.889-2.84-3-4 .174-3.39 1.174-5.723 3-7-1.607-2.142-1.273-3.809 1-5 1.187 1.394 1.854 1.227 2-.5-1.318-1.99-2.652-3.99-4-6l1.5-1.5c2.608 1.473 4.775.973 6.5-1.5-2.722-5.368-5.222-10.868-7.5-16.5-2.381-.935-4.881-1.268-7.5-1-.008-3.045-.341-6.045-1-9-2.08-.544-4.08-1.378-6-2.5-.663-1.518-1.663-2.685-3-3.5-.331-1.822-.998-3.489-2-5 .302-2.559-.032-4.893-1-7 .227-5.3176 2.894-8.4842 8-9.5.392-2.8531 1.726-5.0197 4-6.5z"/>
  <path fill="#556372" d="M153.5 74.5c3.798 2.441 7.798 4.608 12 6.5 2.337 3.307 5.337 4.64 9 4 1.323.816 1.989 1.983 2 3.5-1.951-.273-3.451.393-4.5 2l-1-1c-.483.948-.649 1.948-.5 3-2.041-.354-3.874-.354-5.5 0-.862-1.587-1.529-3.254-2-5-.995.566-1.828 1.233-2.5 2-.958.453-1.792 1.119-2.5 2-1.049-1.017-2.216-1.184-3.5-.5-1.947 2.019-4.28 3.519-7 4.5-.886-.825-1.219-1.825-1-3h4v-3c3.811-.096 3.811-.762 0-2 .826-.951.992-1.951.5-3-2.111.077-4.111.411-6 1-.278-.916-.778-1.582-1.5-2v-6c.79 1.109 1.29 2.442 1.5 4 1.25-1.073 2.584-1.073 4 0 1.526-1.85 3.359-3.35 5.5-4.5-.752-.671-1.086-1.504-1-2.5z" opacity=".976"/>
  <path fill="#404b5e" d="M81.5 81.5c.05 2.698-.95 4.864-3 6.5 1.054 1.388 1.22 2.888.5 4.5-5.212-4.113-10.379-3.946-15.5.5.667.333 1.333.667 2 1-1.284.684-2.451.517-3.5-.5-.611 2.25-1.944 3.917-4 5-.687 2.068-.52 4.068.5 6l-1 1-2-2c-1.211.774-1.211 1.607 0 2.5-.928.388-1.595 1.055-2 2 2.161 2.477 2.995 5.311 2.5 8.5-.915-.828-1.581-1.828-2-3-.309 1.266-.809 2.433-1.5 3.5 1.41.368 2.41 1.201 3 2.5-1.921.824-3.254 2.157-4 4-.096 3.811-.762 3.811-2 0-.917-.627-1.917-.961-3-1 .963-.863.963-1.53 0-2-.798.457-1.131 1.124-1 2-.667 0-1 .333-1 1-1.113-1.446-1.28-3.113-.5-5 3.85-3.832 6.85-8.165 9-13 1.036-3.18.203-5.68-2.5-7.5.193-1.645.36-3.479.5-5.5.923-1.259 1.757-2.592 2.5-4 .925-1.141 1.759-1.141 2.5 0 .278-.916.778-1.582 1.5-2 1.955-.823 3.955-.99 6-.5-1.196.654-1.196 1.154 0 1.5 2.311-.714 4.478-1.714 6.5-3 1.674 1.43 2.674 2.764 3 4 1.059-.13 1.892-.63 2.5-1.5-3.916-1.718-3.583-2.885 1-3.5 1.517 1.411 2.851 1.244 4-.5-1.34-2.179-1.007-2.679 1-1.5zm-35 41h-1c-.131-.876.202-1.543 1-2 .963.47.963 1.137 0 2z"/>
  <path fill="#0b0e18" d="M142.5 72.5h1v11c-.722 1.051-1.722 1.718-3 2-.872-3.589-2.539-3.923-5-1-.746 1.236-1.079 2.57-1 4-2.621-.023-3.955 1.311-4 4 1.394 2.146 2.06 4.479 2 7h3c-.346 3.102.321 5.935 2 8.5-.457.414-.791.914-1 1.5 2.333 1 4 2.667 5 5-1.258-.516-2.258.15-3 2-.586-.209-1.086-.543-1.5-1-.216 1.884-.883 3.551-2 5-.677 2.482.156 4.315 2.5 5.5-1.025 2.071-1.858 4.238-2.5 6.5-.249-1.124-.749-2.124-1.5-3-1.216.502-2.383.835-3.5 1-.71-1.473-1.876-2.14-3.5-2-.501 4.087-.501 8.087 0 12-1.144 2.894-2.144 5.894-3 9 .209.586.543 1.086 1 1.5-1.918 1.77-2.418 3.937-1.5 6.5 1.875-3.088 3.208-6.421 4-10 .833-1 1.667-2 2.5-3 .586.209 1.086.543 1.5 1 .615-1.616 1.615-2.949 3-4l1.5 1.5c-1.48 2.559-2.813 5.226-4 8l1 1c-1.463 3.117-1.796 6.283-1 9.5 1.307-2.969 2.973-5.635 5-8-1.247 3.431-1.247 6.598 0 9.5-3.097 1.61-6.431 2.61-10 3 2.097 1.61 4.43 2.777 7 3.5-1.412 1.306-3.079 2.14-5 2.5 1.109.638 2.275 1.138 3.5 1.5 1.301-1.393 2.801-1.893 4.5-1.5l-2 2c6.229 2.318 6.229 3.484 0 3.5v4c-2.091-.182-4.091.152-6 1l-1-1c.876-.751 1.876-1.251 3-1.5-4.545-1.546-8.878-3.546-13-6 1-.333 2-.667 3-1-2.536-.186-4.869-.686-7-1.5.739.131 1.406-.036 2-.5-1.634-.494-3.301-.66-5-.5-1.711-2.406-3.045-5.073-4-8 1.637-5.009 2.971-5.009 4 0 2.608-3.347 2.941-6.681 1-10 1.505-1.342 2.172-3.008 2-5-2.442-.146-3.109.687-2 2.5-.854 1.022-1.854 1.855-3 2.5-1.196-.346-1.196-.846 0-1.5-1.293-.49-2.627-.657-4-.5 2.055-8.005 5.722-15.171 11-21.5-.594-.464-1.261-.631-2-.5 4.424-8.438 8.424-17.105 12-26-1.831-3.741-2.497-7.741-2-12h-4c-.092-3.571 1.574-4.738 5-3.5-1.284 1.297-1.117 2.464.5 3.5 1.119-1.052 1.619-2.219 1.5-3.5 4.645.24 7.978-1.926 10-6.5 1.325 1.453 2.158 1.119 2.5-1 1.544 2.764 2.711 2.597 3.5-.5-1.311-2.274-1.311-4.44 0-6.5z"/>
  <path fill="#202733" d="M84.5 79.5c1.002 1.511 1.669 3.178 2 5-.617-.111-1.117-.444-1.5-1-2.027 2.721-3.527 5.721-4.5 9 1.235 1.915 2.568 2.915 4 3-1.578.798-3.244 1.298-5 1.5.725 2.18.059 4.014-2 5.5-2.486-.962-2.486-1.795 0-2.5-.5-.167-1-.333-1.5-.5-3.834 1.493-7.001 3.826-9.5 7-1.039-3.957-2.039-3.957-3 0 .222 1.555.889 2.889 2 4-1.548-.288-3.215-.288-5 0 1.459 3.256 3.626 5.923 6.5 8 1.205 2.034 1.372 4.034.5 6-2.293-4.127-4.793-8.127-7.5-12-.333 1.333-.667 2.667-1 4l-1-1c-.667 2.333-.667 4.667 0 7 .249-1.124.749-2.124 1.5-3 .771 2.362 1.605 4.696 2.5 7 .535-1.771 1.369-2.104 2.5-1-1.821 1.975-2.821 4.309-3 7 .746 3.632 1.079 7.298 1 11-.31 1.238-.81 1.238-1.5 0-.192-2.077-.692-4.077-1.5-6-1.746 2.354-4.079 3.354-7 3 .238-3.638 1.904-6.471 5-8.5-2.057-.305-4.057-.305-6 0 1.317-2.937 1.317-5.77 0-8.5.746-1.843 2.079-3.176 4-4-.59-1.299-1.59-2.132-3-2.5.691-1.067 1.191-2.234 1.5-3.5.419 1.172 1.085 2.172 2 3 .495-3.189-.339-6.023-2.5-8.5.405-.945 1.072-1.612 2-2-1.211-.893-1.211-1.726 0-2.5l2 2 1-1c-1.02-1.932-1.187-3.932-.5-6 2.056-1.083 3.389-2.75 4-5 1.049 1.017 2.216 1.184 3.5.5-.667-.333-1.333-.667-2-1 5.121-4.446 10.288-4.613 15.5-.5.72-1.612.554-3.112-.5-4.5 2.05-1.636 3.05-3.802 3-6.5.377-2.324 1.377-2.991 3-2z"/>
  <path fill="#1c1f28" d="M86.5 84.5c1.337.815 2.337 1.982 3 3.5 1.92 1.122 3.92 1.956 6 2.5.659 2.955.992 5.955 1 9-1.892 4.272-4.226 8.439-7 12.5 2.064 3.338 4.397 6.505 7 9.5-.891 1.09-1.891 1.09-3 0-1.315-1.816-2.815-3.483-4.5-5-.791 2.104-2.291 3.437-4.5 4-1.296 4.131-1.296 8.131 0 12 .338 2.354.838 4.687 1.5 7 3.252 2.229 3.752 4.729 1.5 7.5.959 2.12 1.126 4.287.5 6.5-.333-.667-.667-1.333-1-2-.219 1.438-.719 2.771-1.5 4-.917-.627-1.917-.961-3-1-1.086-.12-1.753-.787-2-2 1.32-2.317 2.986-4.317 5-6-1.545-6.975-3.045-13.975-4.5-21-.816 1.323-1.983 1.989-3.5 2-1.153-3.267-1.653-6.6-1.5-10 .333.667.667 1.333 1 2 .638-1.109 1.138-2.275 1.5-3.5-.845-3.379-1.845-6.713-3-10 .478-1.303 1.145-2.469 2-3.5 2.059-1.486 2.725-3.32 2-5.5 1.756-.202 3.422-.702 5-1.5-1.432-.085-2.765-1.085-4-3 .973-3.279 2.473-6.279 4.5-9 .383.556.883.889 1.5 1z"/>
  <path fill="#121925" d="M167.5 117.5c-1.898.267-3.565.934-5 2 3.486 2.473 6.153 5.473 8 9-.329 6.037.004 12.037 1 18 1-3.333 2-6.667 3-10 1.187 1.394 1.854 1.227 2-.5-2.231-3.64-1.231-4.307 3-2-2.987 2.625-3.154 5.125-.5 7.5.638 3.036.472 6.036-.5 9 .003 7.334 3.17 12.668 9.5 16 .868 2.985 1.201 5.985 1 9-1.302.585-2.469 1.251-3.5 2-1.517-.011-2.684-.677-3.5-2 .423-1.887.256-3.887-.5-6-1.644-.214-3.144.12-4.5 1-.852-1.071-1.685-2.071-2.5-3v-7c-1.175.219-2.175-.114-3-1-.515-1.725-1.182-3.392-2-5-3.355-1.713-5.521-4.38-6.5-8 .143-2.663.643-5.329 1.5-8-.518-2.523-1.852-4.523-4-6 2.02-2.099 2.354-4.433 1-7-3.59.56-3.924-.607-1-3.5-2.3-1.113-2.633-2.613-1-4.5 1.661-1.835 3.161-3.835 4.5-6 1.688.825 1.855 1.825.5 3 1.27.788 2.27 1.788 3 3z"/>
  <path fill="#12141d" d="M96.5 99.5c2.619-.268 5.119.065 7.5 1 2.278 5.632 4.778 11.132 7.5 16.5-1.725 2.473-3.892 2.973-6.5 1.5l-1.5 1.5c1.348 2.01 2.682 4.01 4 6-.146 1.727-.813 1.894-2 .5-2.273 1.191-2.607 2.858-1 5-1.826 1.277-2.826 3.61-3 7-1.373.157-2.707-.01-4-.5-1.966-4.255-5.3-6.422-10-6.5.219-1.175-.114-2.175-1-3-1.611.82-2.278 2.154-2 4-1.296-3.869-1.296-7.869 0-12 2.209-.563 3.709-1.896 4.5-4 1.685 1.517 3.185 3.184 4.5 5 1.109 1.09 2.109 1.09 3 0-2.603-2.995-4.936-6.162-7-9.5 2.774-4.061 5.108-8.228 7-12.5z"/>
  <path fill="#171d2a" d="M143.5 83.5c.722.418 1.222 1.084 1.5 2 1.889-.589 3.889-.923 6-1 .492 1.049.326 2.049-.5 3 3.811 1.238 3.811 1.904 0 2v3h-4c-.219 1.175.114 2.175 1 3 2.72-.981 5.053-2.481 7-4.5 1.284-.684 2.451-.517 3.5.5.708-.881 1.542-1.547 2.5-2 .591.651 1.257 1.318 2 2-.209.586-.543 1.086-1 1.5 1.769 1.019 3.436 1.186 5 .5.781 1.229 1.281 2.562 1.5 4l1-1c.492 1.049.326 2.049-.5 3 3.093 4.887 4.093 10.22 3 16 .598 1.295 1.098 2.628 1.5 4 .893-1.211 1.726-1.211 2.5 0-1.32 1.77-2.82 2.103-4.5 1-.497 2.646-.664 5.313-.5 8-1.847-3.527-4.514-6.527-8-9 1.435-1.066 3.102-1.733 5-2h3c-.372-3.117-.372-6.117 0-9-.525-.692-1.192-1.192-2-1.5l1-1c-1.054-2.382-1.721-4.882-2-7.5-1.699.16-3.366-.006-5-.5-2.387-1.685-4.887-3.185-7.5-4.5-2.365 1.865-2.532 3.532-.5 5-1.333 1-1.333 2 0 3-1.617.169-3.284.503-5 1 1.114 4.946 1.281 9.946.5 15-3.173 6.159-3.84 12.493-2 19 .969-4.248 1.802-4.581 2.5-1-.831 4.966-1.164 9.966-1 15h3c-.847 2.66-1.347 5.326-1.5 8 2.355.1 4.522 1.267 6.5 3.5-1.383 1.461-1.049 2.294 1 2.5.221 2.597.721 2.597 1.5 0 2.492 1.922 2.325 4.088-.5 6.5.173 2.407.173 4.74 0 7 2.426 3.013 2.593 6.179.5 9.5-1.11 1.537-2.61 2.203-4.5 2-.077-1.25-.744-2.083-2-2.5l1-1c-1.692-1.401-2.359-3.234-2-5.5-3.088.303-4.754-1.03-5-4h-3c-.149-1.052.017-2.052.5-3 1.667 1 3.333 2 5 3 .71-1.473 1.876-2.14 3.5-2v-3c.921 3.192 1.088 6.525.5 10l3 3c.167-.667.333-1.333.5-2-1.636-5.519-2.47-11.185-2.5-17-.915-.828-1.581-1.828-2-3 .083 2.619.25 5.286.5 8-2.456-4.647-4.289-9.647-5.5-15-1.073.78-2.24.613-3.5-.5 2.432-1.087 2.098-1.587-1-1.5v-6h-3v-4c1.642-11.049 3.976-21.883 7-32.5-.023-2.925-.523-5.759-1.5-8.5-1.395-1.315-2.395-.981-3 1-.54-1.635-.04-2.968 1.5-4-3.818-.565-6.484-2.565-8-6 1.095-3.541 2.428-6.207 4-8 1.278-.282 2.278-.949 3-2z"/>
  <path fill="#2c3646" d="M176.5 88.5c2.813 1.243 3.479 3.243 2 6-2.584.893-5.251 1.226-8 1 2.238 8.958 5.571 17.458 10 25.5-.888 1.22-1.555 2.553-2 4 .912 3.327 2.246 6.494 4 9.5-.881 1.471-2.214 2.304-4 2.5 4.508 12.194 9.008 24.361 13.5 36.5 1.815 1.905 3.815 3.572 6 5 1.515 7.267 1.848 14.601 1 22-.374.916-.874 1.75-1.5 2.5 1.563.759 2.563 1.926 3 3.5-3.108-.781-6.108-1.114-9-1 2.309-3.612 3.476-7.612 3.5-12 .645-1.146 1.478-2.146 2.5-3-.167-.333-.333-.667-.5-1-3.266 3.312-6.433 3.479-9.5.5 1.595.617 2.928.284 4-1-2.391-.691-2.391-1.691 0-3-1.702-2.339-3.035-4.839-4-7.5-.992.172-1.658-.162-2-1 1.031-.749 2.198-1.415 3.5-2 .201-3.015-.132-6.015-1-9-6.33-3.332-9.497-8.666-9.5-16 .972-2.964 1.138-5.964.5-9-2.654-2.375-2.487-4.875.5-7.5-4.231-2.307-5.231-1.64-3 2-.146 1.727-.813 1.894-2 .5-1 3.333-2 6.667-3 10-.996-5.963-1.329-11.963-1-18-.164-2.687.003-5.354.5-8 1.68 1.103 3.18.77 4.5-1-.774-1.211-1.607-1.211-2.5 0-.402-1.372-.902-2.705-1.5-4 1.093-5.78.093-11.113-3-16 .826-.951.992-1.951.5-3l-1 1c-.219-1.438-.719-2.771-1.5-4-1.564.686-3.231.519-5-.5.457-.414.791-.914 1-1.5-.743-.682-1.409-1.349-2-2 .672-.767 1.505-1.434 2.5-2 .471 1.746 1.138 3.413 2 5 1.626-.354 3.459-.354 5.5 0-.149-1.052.017-2.052.5-3l1 1c1.049-1.607 2.549-2.273 4.5-2z" opacity=".741"/>
  <path fill="#0d0f1a" d="M77.5 102.5c-.855 1.031-1.522 2.197-2 3.5 1.155 3.287 2.155 6.621 3 10-.362 1.225-.862 2.391-1.5 3.5-.333-.667-.667-1.333-1-2-.153 3.4.347 6.733 1.5 10-.438-.065-.772.101-1 .5.982 2.738 1.648 5.572 2 8.5h-3v3h3c-.355 2.39-1.022 4.723-2 7 1.32 3.66 2.653 7.327 4 11-1.322 2.057-.989 3.89 1 5.5-.51 1.826-1.344 1.993-2.5.5-.667-2-1.333-4-2-6-1.706.808-2.539 2.141-2.5 4-.934-1.068-1.268-2.401-1-4-1.788.285-3.455-.048-5-1-1-1.667-2.333-3-4-4-.874-2.247-1.208-4.58-1-7 .172-.992-.162-1.658-1-2 .079-3.702-.254-7.368-1-11 .179-2.691 1.179-5.025 3-7-1.131-1.104-1.965-.771-2.5 1-.895-2.304-1.729-4.638-2.5-7-.751.876-1.251 1.876-1.5 3-.667-2.333-.667-4.667 0-7l1 1c.333-1.333.667-2.667 1-4 2.707 3.873 5.207 7.873 7.5 12 .872-1.966.705-3.966-.5-6-2.874-2.077-5.041-4.744-6.5-8 1.785-.288 3.452-.288 5 0-1.111-1.111-1.778-2.445-2-4 .961-3.957 1.961-3.957 3 0 2.499-3.174 5.666-5.507 9.5-7 .5.167 1 .333 1.5.5-2.486.705-2.486 1.538 0 2.5z"/>
  <path fill="#0e111b" d="M140.5 85.5c-1.572 1.793-2.905 4.459-4 8 1.516 3.435 4.182 5.435 8 6-1.54 1.032-2.04 2.365-1.5 4 .605-1.981 1.605-2.315 3-1 .977 2.741 1.477 5.575 1.5 8.5-3.024 10.617-5.358 21.451-7 32.5-1.902 3.132-3.235 6.466-4 10-2.027 2.365-3.693 5.031-5 8-.796-3.217-.463-6.383 1-9.5l-1-1c1.187-2.774 2.52-5.441 4-8l-1.5-1.5c-1.385 1.051-2.385 2.384-3 4-.414-.457-.914-.791-1.5-1-.833 1-1.667 2-2.5 3-.792 3.579-2.125 6.912-4 10-.918-2.563-.418-4.73 1.5-6.5-.457-.414-.791-.914-1-1.5.856-3.106 1.856-6.106 3-9-.501-3.913-.501-7.913 0-12 1.624-.14 2.79.527 3.5 2 1.117-.165 2.284-.498 3.5-1 .751.876 1.251 1.876 1.5 3 .642-2.262 1.475-4.429 2.5-6.5-2.344-1.185-3.177-3.018-2.5-5.5 1.117-1.449 1.784-3.116 2-5 .414.457.914.791 1.5 1 .742-1.85 1.742-2.516 3-2-1-2.333-2.667-4-5-5 .209-.586.543-1.086 1-1.5-1.679-2.565-2.346-5.398-2-8.5h-3c.06-2.521-.606-4.854-2-7 .045-2.689 1.379-4.023 4-4-.079-1.43.254-2.764 1-4 2.461-2.923 4.128-2.589 5 1z"/>
  <path fill="#1b1b24" d="M82.5 154.5c.715 2.255 2.048 4.088 4 5.5-.767 1.47-1.433 2.97-2 4.5.908 4.48.908 9.147 0 14 1.699-.16 3.366.006 5 .5-2.077.192-4.077.692-6 1.5.525.692 1.192 1.192 2 1.5-1.667.333-3.333.667-5 1 .667.333 1.333.667 2 1-2.767.669-3.267 1.836-1.5 3.5 1.605-.601 2.938-1.601 4-3-.441 6.234-2.608 11.901-6.5 17 1.661 2.786 1.328 5.119-1 7-1.285-.096-2.619-.096-4 0 2.128-8.389 2.795-16.722 2-25 .528-1.221 1.195-2.387 2-3.5-.976-4.427-.976-8.927 0-13.5-.167-1.667-.333-3.333-.5-5-.77-1.098-1.603-1.098-2.5 0-.039-1.859.794-3.192 2.5-4 .667 2 1.333 4 2 6 1.156 1.493 1.99 1.326 2.5-.5-1.989-1.61-2.322-3.443-1-5.5-1.347-3.673-2.68-7.34-4-11 .978-2.277 1.645-4.61 2-7h-3v-3h3c-.352-2.928-1.018-5.762-2-8.5.228-.399.562-.565 1-.5 1.517-.011 2.684-.677 3.5-2 1.455 7.025 2.955 14.025 4.5 21-2.014 1.683-3.68 3.683-5 6 .247 1.213.914 1.88 2 2z"/>
  <path fill="#0d101b" d="M167.5 117.5c-.73-1.212-1.73-2.212-3-3 1.355-1.175 1.188-2.175-.5-3-1.339 2.165-2.839 4.165-4.5 6-1.633 1.887-1.3 3.387 1 4.5-2.924 2.893-2.59 4.06 1 3.5 1.354 2.567 1.02 4.901-1 7 2.148 1.477 3.482 3.477 4 6-.857 2.671-1.357 5.337-1.5 8 .979 3.62 3.145 6.287 6.5 8 .818 1.608 1.485 3.275 2 5 .825.886 1.825 1.219 3 1v7c.182 2.175.849 4.175 2 6-.333.667-.667 1.333-1 2-1.035-3.695-2.368-3.695-4 0-1.262-2.571-2.595-2.571-4 0-.333-.5-.667-1-1-1.5.667-1.333 1.333-2.667 2-4-1.444-4.405-4.444-6.905-9-7.5-.798.457-1.131 1.124-1 2-2.049-.206-2.383-1.039-1-2.5-1.978-2.233-4.145-3.4-6.5-3.5.153-2.674.653-5.34 1.5-8h-3c-.164-5.034.169-10.034 1-15-.698-3.581-1.531-3.248-2.5 1-1.84-6.507-1.173-12.841 2-19 .781-5.054.614-10.054-.5-15 1.716-.497 3.383-.831 5-1-1.333-1-1.333-2 0-3-2.032-1.468-1.865-3.135.5-5 2.613 1.315 5.113 2.815 7.5 4.5 1.634.494 3.301.66 5 .5.279 2.618.946 5.118 2 7.5l-1 1c.808.308 1.475.808 2 1.5-.372 2.883-.372 5.883 0 9h-3z"/>
  <path fill="#11121a" d="M101.5 138.5c1.111 1.16 2.111 2.493 3 4 3.011-4.695 6.011-9.362 9-14 .739-.131 1.406.036 2 .5-5.278 6.329-8.945 13.495-11 21.5 1.373-.157 2.707.01 4 .5-1.196.654-1.196 1.154 0 1.5 1.146-.645 2.146-1.478 3-2.5-1.109-1.813-.442-2.646 2-2.5.172 1.992-.495 3.658-2 5 1.941 3.319 1.608 6.653-1 10-1.029-5.009-2.363-5.009-4 0 .955 2.927 2.289 5.594 4 8 1.699-.16 3.366.006 5 .5-.594.464-1.261.631-2 .5-1.333 0-2 .667-2 2-4.557-.05-9.223-.55-14-1.5 2.31-.497 4.643-.663 7-.5v-4c-6.531-1.743-13.198-2.743-20-3 .567-1.53 1.233-3.03 2-4.5-1.952-1.412-3.285-3.245-4-5.5 1.083.039 2.083.373 3 1 .781-1.229 1.281-2.562 1.5-4 .333.667.667 1.333 1 2 .626-2.213.459-4.38-.5-6.5 2.252-2.771 1.752-5.271-1.5-7.5-.662-2.313-1.162-4.646-1.5-7-.278-1.846.389-3.18 2-4 .886.825 1.219 1.825 1 3 4.7.078 8.034 2.245 10 6.5 1.293.49 2.627.657 4 .5z"/>
  <path fill="#141725" d="M63.5 145.5c-.208 2.42.126 4.753 1 7 1.667 1 3 2.333 4 4 1.545.952 3.212 1.285 5 1-.268 1.599.066 2.932 1 4 .471 1.788.804 3.622 1 5.5-.705 2.896-1.705 5.729-3 8.5.711 4.558.711 8.892 0 13 .302 2.559-.032 4.893-1 7-.914-5.598-.914-4.932 0 2 0 1.333-.667 2-2 2-1.333 1-1.333 2 0 3 .268 1.599-.066 2.932-1 4 0-.667-.333-1-1-1 .107-1.879-.393-2.212-1.5-1-.767-4.058-.6-8.058.5-12-.804-1.441-1.471-2.941-2-4.5 1.849-2.031 3.182-4.364 4-7-.789-.546-1.789-1.213-3-2 .774-2.405 1.274-4.905 1.5-7.5 1.008 5.041 1.508 4.708 1.5-1 4.943.212 5.61-.788 2-3 1.429-1.831 1.929-3.831 1.5-6-2.709 1.206-4.375.206-5-3-1.398.551-2.732.884-4 1l-2-2c-.14 1.756.36 3.422 1.5 5-1.363 1.393-2.196 3.059-2.5 5-.977-1.274-1.811-1.274-2.5 0 .157 1.373-.01 2.707-.5 4-1.857-4.102-3.023-8.436-3.5-13h-3c-.498-3.719.336-7.053 2.5-10 1.589 3.531 2.755 7.198 3.5 11 1.283-2.872 1.283-5.705 0-8.5 1.835-.928 2.168-2.094 1-3.5.855-.793 1.689-.46 2.5 1 1.155-.838 2.322-1.838 3.5-3z"/>
  <path fill="#0d111c" d="M67.5 205.5c-.722.418-1.222 1.084-1.5 2-1.316-3.188-1.816-6.522-1.5-10-4.417.408-7.417 2.741-9 7-.768.763-1.268 1.763-1.5 3-.333-1.667-.667-3.333-1-5-.743 2.145-1.576 2.311-2.5.5.28-1.395.947-2.562 2-3.5 3.294 1.507 3.96.674 2-2.5 1.027-2.973 1.527-5.807 1.5-8.5 1.422-.094 2.922-.428 4.5-1-.82-1.611-2.154-2.278-4-2 .077-3.646 1.077-6.979 3-10 2.12 1.372 3.12.705 3-2-1.175.219-2.175-.114-3-1-.528-1.836-1.194-3.503-2-5 .689-1.274 1.523-1.274 2.5 0 .304-1.941 1.137-3.607 2.5-5-1.14-1.578-1.64-3.244-1.5-5l2 2c1.268-.116 2.602-.449 4-1 .625 3.206 2.291 4.206 5 3 .429 2.169-.071 4.169-1.5 6 3.61 2.212 2.943 3.212-2 3 .008 5.708-.492 6.041-1.5 1-.226 2.595-.726 5.095-1.5 7.5 1.211.787 2.211 1.454 3 2-.818 2.636-2.151 4.969-4 7 .529 1.559 1.196 3.059 2 4.5-1.1 3.942-1.267 7.942-.5 12 1.107-1.212 1.607-.879 1.5 1z"/>
  <path fill="#0a0f1b" d="M171.5 175.5c1.972 2.679 2.305 5.512 1 8.5 2.211 1.582 3.545 3.749 4 6.5-.333 1-1 1.667-2 2-1.708-2.191-3.708-2.524-6-1-1.282 1.458-1.282 2.792 0 4 .067 1.901-.267 3.734-1 5.5.789.546 1.789 1.213 3 2-2.535.928-3.535 2.762-3 5.5-1.268 2.405-1.935 5.072-2 8-.381 1.431-1.381 2.264-3 2.5 1.634.494 3.301.66 5 .5 1.364 4.044-.136 5.044-4.5 3-.87-4.581-2.37-8.915-4.5-13 1.923-3.021 2.923-6.354 3-10-2.749-.226-5.416.107-8 1-1.639-1.416-2.473-3.083-2.5-5 .92-.43 1.753-.764 2.5-1l-4-4c1.131-1.104 1.965-.771 2.5 1 1.083-1.741 2.25-2.407 3.5-2 1.89.203 3.39-.463 4.5-2 2.093-3.321 1.926-6.487-.5-9.5.173-2.26.173-4.593 0-7 2.825-2.412 2.992-4.578.5-6.5-.779 2.597-1.279 2.597-1.5 0-.131-.876.202-1.543 1-2 4.556.595 7.556 3.095 9 7.5-.667 1.333-1.333 2.667-2 4 .333.5.667 1 1 1.5 1.405-2.571 2.738-2.571 4 0z" opacity=".998"/>
  <path fill="#11151f" d="M50.5 158.5h3c.477 4.564 1.643 8.898 3.5 13 .49-1.293.657-2.627.5-4 .806 1.497 1.472 3.164 2 5 .825.886 1.825 1.219 3 1 .12 2.705-.88 3.372-3 2-1.923 3.021-2.923 6.354-3 10 1.846-.278 3.18.389 4 2-1.578.572-3.078.906-4.5 1 .027 2.693-.473 5.527-1.5 8.5 1.96 3.174 1.294 4.007-2 2.5-1.053.938-1.72 2.105-2 3.5.924 1.811 1.757 1.645 2.5-.5.333 1.667.667 3.333 1 5 .232-1.237.732-2.237 1.5-3 .193 2.975-.807 5.475-3 7.5 1.902 1.651 3.902 1.984 6 1-1.073 1.313-1.74 2.813-2 4.5 3.298 3.144 3.631 6.477 1 10-.925-1.141-1.759-1.141-2.5 0-.2-3.234-1.033-6.234-2.5-9 .108-.942.441-1.775 1-2.5-1-.333-2-.667-3-1 1.333-1.84 1.166-2.34-.5-1.5-.333-.667-.667-1.333-1-2-2.354.392-4.854.392-7.5 0 .17-1.322-.163-2.489-1-3.5.667-.333 1.333-.667 2-1-.881-.708-1.547-1.542-2-2.5 1.667-.667 3.333-1.333 5-2 4.922-.834 5.089-2.168.5-4-.483-.948-.649-1.948-.5-3 1.624.14 2.79-.527 3.5-2 .361-3.025.861-6.025 1.5-9-.524-2.896-2.024-3.563-4.5-2-.686-4.93.647-9.263 4-13 .499-3.652.665-7.318.5-11z"/>
  <path fill="#0f131f" d="M174.5 167.5c.815.929 1.648 1.929 2.5 3 1.356-.88 2.856-1.214 4.5-1 .756 2.113.923 4.113.5 6 .816 1.323 1.983 1.989 3.5 2 .342.838 1.008 1.172 2 1-1.544 3.943-2.877 7.943-4 12h3c-.359 2.266.308 4.099 2 5.5-1.114 1.449-2.114 2.783-3 4 1 .333 2 .667 3 1-1.587.862-3.254 1.529-5 2-2.516 2.38-4.683 4.88-6.5 7.5-1.261-.259-2.261-.926-3-2-1.367 1.024-2.2.524-2.5-1.5 1.939-5.439 1.773-10.606-.5-15.5-1.706.808-2.539 2.141-2.5 4-1.282-1.208-1.282-2.542 0-4 2.292-1.524 4.292-1.191 6 1 1-.333 1.667-1 2-2-.455-2.751-1.789-4.918-4-6.5 1.305-2.988.972-5.821-1-8.5 1.632-3.695 2.965-3.695 4 0 .333-.667.667-1.333 1-2-1.151-1.825-1.818-3.825-2-6z"/>
  <path fill="#0a0b15" d="M113.5 171.5c2.131.814 4.464 1.314 7 1.5-1 .333-2 .667-3 1 4.122 2.454 8.455 4.454 13 6-1.124.249-2.124.749-3 1.5l1 1c1.909-.848 3.909-1.182 6-1 1.266.59 2.599 1.09 4 1.5-1.519 1.218-2.686 2.718-3.5 4.5-.98-1.559-1.813-3.226-2.5-5-.333.5-.667 1-1 1.5.979 2.433 1.645 4.933 2 7.5-2.194-1.721-3.361-4.055-3.5-7-.333 1.333-.667 2.667-1 4-.414-.457-.914-.791-1.5-1-.744 1.491-1.41 2.991-2 4.5 1.283 3.064 1.95 6.397 2 10 .472 7.163.805 14.33 1 21.5v3c-.617-.111-1.117-.444-1.5-1-.687 4.08-1.687 8.08-3 12-.671.752-1.504 1.086-2.5 1 .629-1.965 1.296-3.965 2-6-.333-1-.667-2-1-3-3.455 6.7-6.122 13.7-8 21-.687-3.833-1.021-7.499-1-11-.643-10.334-1.31-20.668-2-31 1.195-1.467 1.195-2.967 0-4.5.45-1.285 1.117-2.452 2-3.5-.346-1.196-.846-1.196-1.5 0-.49-1.293-.657-2.627-.5-4-1.291-.237-2.291.096-3 1-1.303-2.855-1.303-5.855 0-9 2.689-.689 4.356-2.356 5-5 .904-.709 1.237-1.709 1-3-2.9.22-5.567-.446-8-2 1.146-1.219 2.146-2.552 3-4 2.837 5.35 3.504 5.017 2-1 0-1.333.667-2 2-2z"/>
  <path fill="#0f131e" d="M140.5 143.5v4h3v6c3.098-.087 3.432.413 1 1.5 1.26 1.113 2.427 1.28 3.5.5 1.211 5.353 3.044 10.353 5.5 15v4c-1.624-.14-2.79.527-3.5 2-1.667-1-3.333-2-5-3-.483.948-.649 1.948-.5 3h3c.246 2.97 1.912 4.303 5 4-.359 2.266.308 4.099 2 5.5l-1 1c1.256.417 1.923 1.25 2 2.5-1.25-.407-2.417.259-3.5 2-.535-1.771-1.369-2.104-2.5-1l4 4c-.747.236-1.58.57-2.5 1 .027 1.917.861 3.584 2.5 5 2.584-.893 5.251-1.226 8-1-.077 3.646-1.077 6.979-3 10 2.13 4.085 3.63 8.419 4.5 13 4.364 2.044 5.864 1.044 4.5-3-1.699.16-3.366-.006-5-.5 1.619-.236 2.619-1.069 3-2.5h4c-.988 7.865-.988 15.532 0 23-.47.963-1.137.963-2 0-.813-1.153-1.813-1.153-3 0-1.371-6.127-3.705-11.793-7-17-.808.308-1.475.808-2 1.5 1.996 3.981 3.996 7.981 6 12-1.887.163-3.387-.671-4.5-2.5-1.73-4.978-3.897-8.978-6.5-12 .965 4.21 2.298 8.21 4 12-2.514 1.391-5.014 3.057-7.5 5-.617.949-.451 1.782.5 2.5-1.558.21-2.891.71-4 1.5-.239 1.967.094 3.801 1 5.5-.585 1.302-1.251 2.469-2 3.5-.166-4.346.001-8.679.5-13 .624-2.254 1.957-3.921 4-5 1.621-6.419-.212-8.086-5.5-5-.798-.457-1.131-1.124-1-2 .077-1.25.744-2.083 2-2.5-1.918-1.77-2.418-3.937-1.5-6.5.333 1.333.667 2.667 1 4 .333-4.333.667-8.667 1-13 .333 1 .667 2 1 3 .577-7.44-1.59-14.107-6.5-20-1.396 2.472-2.23 5.138-2.5 8-.183-2.865-.683-5.531-1.5-8-.355-2.567-1.021-5.067-2-7.5.333-.5.667-1 1-1.5.687 1.774 1.52 3.441 2.5 5 .814-1.782 1.981-3.282 3.5-4.5-1.401-.41-2.734-.91-4-1.5v-4c6.229-.016 6.229-1.182 0-3.5l2-2c-1.699-.393-3.199.107-4.5 1.5-1.225-.362-2.391-.862-3.5-1.5 1.921-.36 3.588-1.194 5-2.5-2.57-.723-4.903-1.89-7-3.5 3.569-.39 6.903-1.39 10-3-1.247-2.902-1.247-6.069 0-9.5.765-3.534 2.098-6.868 4-10z"/>
  <path fill="#1c2028" d="M45.5 122.5h1c1.083.039 2.083.373 3 1 1.238 3.811 1.904 3.811 2 0 1.317 2.73 1.317 5.563 0 8.5 1.943-.305 3.943-.305 6 0-3.096 2.029-4.762 4.862-5 8.5 2.921.354 5.254-.646 7-3 .808 1.923 1.308 3.923 1.5 6 .69 1.238 1.19 1.238 1.5 0 .838.342 1.172 1.008 1 2-1.178 1.162-2.345 2.162-3.5 3-.811-1.46-1.645-1.793-2.5-1 1.168 1.406.835 2.572-1 3.5 1.283 2.795 1.283 5.628 0 8.5-.745-3.802-1.911-7.469-3.5-11-2.164 2.947-2.998 6.281-2.5 10 .165 3.682-.001 7.348-.5 11-3.353 3.737-4.686 8.07-4 13 2.476-1.563 3.976-.896 4.5 2-.639 2.975-1.139 5.975-1.5 9-.71 1.473-1.876 2.14-3.5 2-.149 1.052.017 2.052.5 3 4.589 1.832 4.422 3.166-.5 4 1.35-1.15 1.184-1.817-.5-2-4.163 1.558-8.33 2.725-12.5 3.5.828-.915 1.828-1.581 3-2-1.723-.523-3.056-1.523-4-3 3.155-2.424 6.155-5.091 9-8 .948-.483 1.948-.649 3-.5-.249-2.502-.583-5.002-1-7.5 1.362-5.757 2.029-11.591 2-17.5 1.644.214 3.144-.12 4.5-1 .697-4.035.53-8.035-.5-12 .399-1.697.899-3.363 1.5-5 1.717.888 2.884.221 3.5-2-1.728-4.367-4.728-5.7-9-4-1.293-5.969-1.293-11.969 0-18 0-.667.333-1 1-1zm0 10c2.473.447 2.64 1.447.5 3-.483-.948-.649-1.948-.5-3z"/>
  <path fill="#44454c" d="M45.5 202.5c-1.667.667-3.333 1.333-5 2-2.458 2.382-5.125 3.882-8 4.5 1.667.333 3.333.667 5 1-2.815 1.218-5.481 2.718-8 4.5-.673 2.189-1.673 4.189-3 6 .209.586.543 1.086 1 1.5-5.669 6.201-5.002 7.534 2 4-1.333-.667-1.333-1.333 0-2 1.887-.78 3.554-.613 5 .5-3.482.685-4.148 2.019-2 4-1.398 2.398-3.398 4.065-6 5-.654 1.615-1.154 3.282-1.5 5-1.016-1.134-1.683-.801-2 1-.333-.667-.667-1.333-1-2-1.113.805-2.279 1.472-3.5 2 1.228-3.515 2.562-7.015 4-10.5-2.821-4.246-2.321-8.08 1.5-11.5.333-3 .667-6 1-9 2.144-1.146 3.977-2.646 5.5-4.5-2.72-3.048-2.553-5.881.5-8.5 2.859-13.045 6.859-25.712 12-38 2.161-5.263 2.661-10.597 1.5-16 4.272-1.7 7.272-.367 9 4-.616 2.221-1.783 2.888-3.5 2-.601 1.637-1.101 3.303-1.5 5 1.03 3.965 1.197 7.965.5 12-1.356.88-2.856 1.214-4.5 1 .029 5.909-.638 11.743-2 17.5.417 2.498.751 4.998 1 7.5-1.052-.149-2.052.017-3 .5-2.845 2.909-5.845 5.576-9 8 .944 1.477 2.277 2.477 4 3-1.172.419-2.172 1.085-3 2 4.17-.775 8.337-1.942 12.5-3.5 1.684.183 1.85.85.5 2z"/>
  <path fill="#0d0d16" d="M133.5 191.5c.817 2.469 1.317 5.135 1.5 8 .27-2.862 1.104-5.528 2.5-8 4.91 5.893 7.077 12.56 6.5 20-.333-1-.667-2-1-3-.333 4.333-.667 8.667-1 13-.333-1.333-.667-2.667-1-4-.918 2.563-.418 4.73 1.5 6.5-1.256.417-1.923 1.25-2 2.5-.817-2.469-1.317-5.135-1.5-8-.337 3.361-.837 6.694-1.5 10-.6 1.968-1.933 2.968-4 3-1.378-2.854-3.045-5.52-5-8-.195-7.17-.528-14.337-1-21.5-.05-3.603-.717-6.936-2-10 .59-1.509 1.256-3.009 2-4.5.586.209 1.086.543 1.5 1 .333-1.333.667-2.667 1-4 .139 2.945 1.306 5.279 3.5 7z"/>
  <path fill="#212228" d="M84.5 164.5c6.802.257 13.469 1.257 20 3v4c-2.357-.163-4.69.003-7 .5 4.777.95 9.443 1.45 14 1.5 1.504 6.017.837 6.35-2 1-.854 1.448-1.854 2.781-3 4 2.433 1.554 5.1 2.22 8 2 .237 1.291-.096 2.291-1 3-1.546-1.136-3.379-1.802-5.5-2-3.073-.019-5.907.647-8.5 2 .165 3.682-.001 7.348-.5 11-.176-3.382-.676-6.715-1.5-10-1.234 3.533-2.567 7.033-4 10.5 1.356 1.567 2.023 3.4 2 5.5 2.412.256 4.079-.744 5-3 .929 1.189 1.262 2.522 1 4-2.442-.381-3.109.286-2 2-1.498 2.354-2.832 4.687-4 7h-4c-1.589 3.523-2.922 7.19-4 11-.876-.131-1.543.202-2 1-.667 1.667-1.333 3.333-2 5-1.333 1.333-2.667 1.333-4 0 4.046-4.76 7.046-10.094 9-16 1.302-8.706 3.302-17.206 6-25.5-.333-.5-.667-1-1-1.5-2.334 2.663-4.167 5.663-5.5 9-.543-2.67-.043-5.17 1.5-7.5-.667-2-1.333-2-2 0-3.183 11.541-6.35 23.041-9.5 34.5l-1 1c-.415-4.348-.249-8.681.5-13 2.328-1.881 2.661-4.214 1-7 3.892-5.099 6.059-10.766 6.5-17-1.062 1.399-2.395 2.399-4 3-1.767-1.664-1.267-2.831 1.5-3.5-.667-.333-1.333-.667-2-1 1.667-.333 3.333-.667 5-1-.808-.308-1.475-.808-2-1.5 1.923-.808 3.923-1.308 6-1.5-1.634-.494-3.301-.66-5-.5.908-4.853.908-9.52 0-14z"/>
  <path fill="#12141e" d="M75.5 183.5c.795 8.278.128 16.611-2 25 1.381-.096 2.715-.096 4 0-.749 4.319-.915 8.652-.5 13l1-1c3.15-11.459 6.317-22.959 9.5-34.5.667-2 1.333-2 2 0-1.543 2.33-2.043 4.83-1.5 7.5 1.333-3.337 3.166-6.337 5.5-9 .333.5.667 1 1 1.5-2.698 8.294-4.698 16.794-6 25.5-1.954 5.906-4.954 11.24-9 16 1.333 1.333 2.667 1.333 4 0 .667-1.667 1.333-3.333 2-5 .457-.798 1.124-1.131 2-1 .333.667.667 1.333 1 2-2.967 1.262-3.634 3.262-2 6-1.245 2.414-2.578 4.08-4 5-2.323 2.635-4.156 5.635-5.5 9 .253-2.633.253-5.3 0-8-1.938-1.36-3.604-1.027-5 1-1.649-1.148-3.149-2.481-4.5-4 .819-3.618.819-7.284 0-11v-14c.667 0 1-.333 1-1 .934-1.068 1.268-2.401 1-4v-3c1.333 0 2-.667 2-2v-2c.968-2.107 1.302-4.441 1-7 .25-2.174 1.25-3.841 3-5z"/>
  <path fill="#1a222e" d="M67.5 205.5v3c-.935 6.873-1.935 13.873-3 21-.996-.086-1.829.248-2.5 1-.202 1.756-.702 3.422-1.5 5-2.557.907-5.057 1.907-7.5 3-1.871-2.283-3.371-4.783-4.5-7.5 2.569-1.878 2.236-3.378-1-4.5-.641 1.796-1.641 3.296-3 4.5 1.786.196 3.119 1.029 4 2.5-1.847 1.33-3.347.997-4.5-1-.497 2.31-.663 4.643-.5 7h4c-.168-5.032.832-5.199 3-.5 2.779.149 3.279.983 1.5 2.5-.414-.457-.914-.791-1.5-1-.862 1.266-1.529 2.599-2 4-.617-.111-1.117-.444-1.5-1-2.099 2.297-4.599 3.964-7.5 5-2.277-.575-4.277-.909-6-1 .312-5.838 1.645-11.671 4-17.5-2.076-1.244-3.076-3.077-3-5.5-1.446-1.113-3.113-1.28-5-.5-1.333.667-1.333 1.333 0 2-7.002 3.534-7.669 2.201-2-4-.457-.414-.791-.914-1-1.5 1.327-1.811 2.327-3.811 3-6 2.519-1.782 5.185-3.282 8-4.5-1.667-.333-3.333-.667-5-1 2.875-.618 5.542-2.118 8-4.5.453.958 1.119 1.792 2 2.5-.667.333-1.333.667-2 1 .837 1.011 1.17 2.178 1 3.5 2.646.392 5.146.392 7.5 0 .333.667.667 1.333 1 2 1.666-.84 1.833-.34.5 1.5 1 .333 2 .667 3 1-.559.725-.892 1.558-1 2.5 1.467 2.766 2.3 5.766 2.5 9 .741-1.141 1.575-1.141 2.5 0 2.631-3.523 2.298-6.856-1-10 .26-1.687.927-3.187 2-4.5-2.098.984-4.098.651-6-1 2.193-2.025 3.193-4.525 3-7.5 1.583-4.259 4.583-6.592 9-7-.316 3.478.184 6.812 1.5 10 .278-.916.778-1.582 1.5-2z"/>
  <path fill="#15202e" d="M187.5 178.5c.965 2.661 2.298 5.161 4 7.5-2.391 1.309-2.391 2.309 0 3-1.072 1.284-2.405 1.617-4 1 3.067 2.979 6.234 2.812 9.5-.5.167.333.333.667.5 1-1.022.854-1.855 1.854-2.5 3-.024 4.388-1.191 8.388-3.5 12 2.892-.114 5.892.219 9 1v4c-.633 2.58-.966 5.247-1 8-3.872 2.102-7.872 3.936-12 5.5-.712 2.881-2.378 5.048-5 6.5-.808-.308-1.475-.808-2-1.5 1.361-1.584 2.028-3.418 2-5.5h-4c.431 3.922-.569 7.422-3 10.5.758 1.364.258 2.531-1.5 3.5-.492-1.049-.326-2.049.5-3-1-1.333-2-1.333-3 0 1.062 2.603 1.228 5.27.5 8-1.734 1.734-3.068 3.734-4 6-1.506-1.674-3.339-2.674-5.5-3 .064 4.266 1.397 8.099 4 11.5-1.496.507-2.663.007-3.5-1.5-.464.594-.631 1.261-.5 2-1.74-3.403-2.573-7.07-2.5-11 .333.667.667 1.333 1 2 .333-2.333.667-4.667 1-7 3.58 4.295 5.413 3.628 5.5-2 .863.963 1.53.963 2 0-.988-7.468-.988-15.135 0-23h-4c.065-2.928.732-5.595 2-8-.535-2.738.465-4.572 3-5.5-1.211-.787-2.211-1.454-3-2 .733-1.766 1.067-3.599 1-5.5-.039-1.859.794-3.192 2.5-4 2.273 4.894 2.439 10.061.5 15.5.3 2.024 1.133 2.524 2.5 1.5.739 1.074 1.739 1.741 3 2 1.817-2.62 3.984-5.12 6.5-7.5 1.746-.471 3.413-1.138 5-2-1-.333-2-.667-3-1 .886-1.217 1.886-2.551 3-4-1.692-1.401-2.359-3.234-2-5.5h-3c1.123-4.057 2.456-8.057 4-12z"/>
  <path fill="#0c0e16" d="M113.5 183.5c-.644 2.644-2.311 4.311-5 5-1.303 3.145-1.303 6.145 0 9-.577 2.152-1.744 2.485-3.5 1-.346 1.718-.846 3.385-1.5 5 .967 7.61 1.3 15.277 1 23-.904-.709-1.237-1.709-1-3-3.201-.63-5.868-2.297-8-5-1.771.535-2.104 1.369-1 2.5-1.907 1.122-3.907 1.955-6 2.5-.333-.667-.667-1.333-1-2 1.078-3.81 2.411-7.477 4-11h4c1.168-2.313 2.502-4.646 4-7-1.109-1.714-.442-2.381 2-2 .262-1.478-.071-2.811-1-4-.921 2.256-2.588 3.256-5 3 .023-2.1-.644-3.933-2-5.5 1.433-3.467 2.766-6.967 4-10.5.824 3.285 1.324 6.618 1.5 10 .499-3.652.665-7.318.5-11 2.593-1.353 5.427-2.019 8.5-2 2.121.198 3.954.864 5.5 2z"/>
  <path fill="#233342" d="M200.5 210.5c1.454 6.051 3.12 12.051 5 18-2.454 1.121-5.121 1.954-8 2.5-1.519 1.351-2.852 2.851-4 4.5 2.481 1.36 2.148 2.36-1 3-1.427 4.811-4.427 6.144-9 4 .009-1.808-.491-3.475-1.5-5-.333.667-.667 1.333-1 2-.923-1.259-1.757-2.592-2.5-4-.65 1.684-1.65 3.017-3 4-1.703-1.16-2.369-.493-2 2-.31 3.213.023 6.213 1 9 1.077 6.812 3.744 12.812 8 18 0 .667.333 1 1 1 .342.838 1.008 1.172 2 1 1.186 2.292 1.186 4.626 0 7-.809.969-1.809 1.802-3 2.5 1.34 2.179 1.007 2.679-1 1.5-.961 1.765-1.295 3.765-1 6-1.592 1.102-2.425.435-2.5-2-1.557 2.794-1.89 5.794-1 9 1.816 5.125 3.816 10.125 6 15 .395 2.707.895 5.373 1.5 8 .131.739-.036 1.406-.5 2-.92-2.601-1.587-5.268-2-8-.667 1.333-1.333 2.667-2 4-.872-3.681-2.706-6.681-5.5-9-.84-3.972-1.007-7.972-.5-12-2.323-2.489-4.823-4.822-7.5-7 2.235-1.35 3.568-2.85 4-4.5-1.727-1.389-3.061-3.056-4-5 .772-1.221 1.772-2.221 3-3-1.141-.741-1.141-1.575 0-2.5-2.342-2.365-3.842-5.031-4.5-8l3 3c-.401-2.601-1.901-4.601-4.5-6-.746-1.236-1.079-2.57-1-4-.131-.739.036-1.406.5-2 .837 1.507 2.004 2.007 3.5 1.5-2.603-3.401-3.936-7.234-4-11.5 2.161.326 3.994 1.326 5.5 3 .932-2.266 2.266-4.266 4-6 .728-2.73.562-5.397-.5-8 1-1.333 2-1.333 3 0-.826.951-.992 1.951-.5 3 1.758-.969 2.258-2.136 1.5-3.5 2.431-3.078 3.431-6.578 3-10.5h4c.028 2.082-.639 3.916-2 5.5.525.692 1.192 1.192 2 1.5 2.622-1.452 4.288-3.619 5-6.5 4.128-1.564 8.128-3.398 12-5.5.034-2.753.367-5.42 1-8z"/>
  <path fill="#12141e" d="M113.5 239.5c.085 1.495-.581 2.495-2 3-.744-1.491-1.41-2.991-2-4.5-1.608-.658-2.775-.158-3.5 1.5-.667 3.667-.667 7.333 0 11 .199 1.902 1.033 3.402 2.5 4.5-2.333 2-3.833 4.5-4.5 7.5.013-10.729-1.487-21.229-4.5-31.5.333-.5.667-1 1-1.5.929 1.189 1.262 2.522 1 4h3v-7c.3-7.723-.033-15.39-1-23 .654-1.615 1.154-3.282 1.5-5 1.756 1.485 2.923 1.152 3.5-1 .709-.904 1.709-1.237 3-1-.157 1.373.01 2.707.5 4 .654-1.196 1.154-1.196 1.5 0-.883 1.048-1.55 2.215-2 3.5 1.195 1.533 1.195 3.033 0 4.5.69 10.332 1.357 20.666 2 31z"/>
  <path fill="#181f29" d="M67.5 221.5c.819 3.716.819 7.382 0 11 1.351 1.519 2.851 2.852 4.5 4 1.396-2.027 3.062-2.36 5-1 .253 2.7.253 5.367 0 8 1.344-3.365 3.177-6.365 5.5-9 1.1 1.777 1.934 3.777 2.5 6 1-1.667 2-3.333 3-5 .167.5.333 1 .5 1.5-3.464 8.25-7.131 16.25-11 24 1.634.494 3.301.66 5 .5.165 3.682-.001 7.348-.5 11-3.132 5.599-5.965 11.266-8.5 17 .02-1.643-.647-2.976-2-4 2.563-4.935 1.396-5.935-3.5-3-.817-3.464-.483-6.798 1-10 .333.667.667 1.333 1 2 2.497-3.158 4.33-6.658 5.5-10.5-.333-.5-.667-1-1-1.5-1.5 2.333-3 4.667-4.5 7-.421-3.875-.088-7.875 1-12-.667 1.333-1.333 2.667-2 4-1.736-3.635-4.236-5.635-7.5-6-.789-3.146-1.455-6.313-2-9.5.885-2.157 2.552-2.99 5-2.5v-4c1.22-1.55 1.22-3.216 0-5 1.092-4.316 2.092-8.649 3-13z"/>
  <path fill="#0c0e17" d="M104.5 226.5v7h-3c.262-1.478-.071-2.811-1-4-.333.5-.667 1-1 1.5 3.013 10.271 4.513 20.771 4.5 31.5.667-3 2.167-5.5 4.5-7.5-1.467-1.098-2.301-2.598-2.5-4.5-.667-3.667-.667-7.333 0-11 .725-1.658 1.892-2.158 3.5-1.5.59 1.509 1.256 3.009 2 4.5 1.419-.505 2.085-1.505 2-3-.021 3.501.313 7.167 1 11 1.878-7.3 4.545-14.3 8-21 .333 1 .667 2 1 3-.704 2.035-1.371 4.035-2 6-2.188 7.406-4.688 14.74-7.5 22-.662-5.372-2.829-6.205-6.5-2.5 1.124.249 2.124.749 3 1.5-.893 2.584-1.226 5.251-1 8-2.189-.293-4.189-.793-6-1.5l-1 1c1.473.71 2.14 1.876 2 3.5-2.027-.162-4.027.005-6 .5.948.483 1.948.649 3 .5v3c1.175-.219 2.175.114 3 1-1.333 1-1.333 2 0 3-4.388 3.157-5.388 2.657-3-1.5-3.331-2.263-6.664-3.763-10-4.5-1.679 3.242-.679 5.242 3 6-.825.886-1.825 1.219-3 1-.492 3.79.341 4.456 2.5 2 .692.525 1.192 1.192 1.5 2-1.252 1.501-2.252 3.168-3 5 .92 2.286.92 4.619 0 7 3.273.029 3.94-1.304 2-4 .056-1.237.556-2.237 1.5-3 .163 2.176.996 4.009 2.5 5.5-.667.333-1.333.667-2 1 3.641 1.315 5.974.149 7-3.5 1.147 2.265 1.314 4.598.5 7-1.079-1.894-2.413-2.227-4-1-.651 1.735-.485 3.402.5 5 3.992.847 7.825 1.18 11.5 1 .87-.608 1.37-1.441 1.5-2.5-1.854-3.441-.854-5.441 3-6-.948-.483-1.948-.649-3-.5-.163-2.357.003-4.69.5-7 1.691-3.107 2.858-6.441 3.5-10 1.825 1.071 2.992.404 3.5-2 .687-2.068.52-4.068-.5-6 .55-2.157 1.217-4.157 2-6 1.401.471 2.734 1.138 4 2 .773 2.965 1.439 5.965 2 9-.548 2.056-1.714 3.723-3.5 5-.564-2.062-.064-3.895 1.5-5.5-.495-2.726-1.662-4.226-3.5-4.5.096 11.08-2.071 21.58-6.5 31.5-.786 3.458-1.12 6.958-1 10.5 3.811.096 3.811.762 0 2l2 2c-.452 5.522-1.452 10.855-3 16-1.431 1.28-2.098 2.947-2 5-1.699-.16-3.366.006-5 .5-1.768 4.939-3.768 5.272-6 1-.949-.617-1.782-.451-2.5.5-.459-9.153-5.292-13.653-14.5-13.5.616-1.4.949-2.9 1-4.5-1.398-5.58-2.064-11.246-2-17h-3c.268-3.24.934-6.406 2-9.5-.667-1.667-1.333-3.333-2-5 1.371-2.319 2.038-4.819 2-7.5h6c.333-3.333.667-6.667 1-10h5c.361-6.611-.306-13.111-2-19.5-.008-4.411.325-8.911 1-13.5l-1.5-3c-.893 1.211-1.726 1.211-2.5 0-1.301-1.944-2.301-3.944-3-6-1.634-2.738-.967-4.738 2-6 2.093-.545 4.093-1.378 6-2.5-1.104-1.131-.771-1.965 1-2.5 2.132 2.703 4.799 4.37 8 5-.237 1.291.096 2.291 1 3z"/>
  <path fill="#2a3948" d="M34.5 224.5c-.076 2.423.924 4.256 3 5.5-2.355 5.829-3.688 11.662-4 17.5 1.723.091 3.723.425 6 1-7.239 2.938-13.572 1.271-19-5-1.13-1.122-1.797-2.456-2-4 1.221-.528 2.387-1.195 3.5-2 .333.667.667 1.333 1 2 .317-1.801.984-2.134 2-1 .346-1.718.846-3.385 1.5-5 2.602-.935 4.602-2.602 6-5-2.148-1.981-1.482-3.315 2-4z"/>
  <path fill="#101621" d="M154.5 233.5c1.096 1.603 2.43 3.103 4 4.5-2.491.626-2.491 1.459 0 2.5-1.333.667-2.667 1.333-4 2 3.122 3.362 4.789 7.362 5 12-1 1.333-2 2.667-3 4 3.211 2.928 5.877 6.261 8 10 .142 1.882-.358 3.882-1.5 6-.308-.808-.808-1.475-1.5-2-.356 3.188-2.023 5.355-5 6.5 2.348.11 3.848 1.277 4.5 3.5l1-1c.492 1.049.326 2.049-.5 3 .346 1.196.846 1.196 1.5 0 .72 1.612.554 3.112-.5 4.5 1.231 1.405 2.564 2.571 4 3.5-.656.778-1.489 1.444-2.5 2-1.533-1.195-3.033-1.195-4.5 0-.827 1.662-1.993 2.995-3.5 4-.198 1.882-.698 3.548-1.5 5 .289-3.606-.044-7.106-1-10.5 1-.833 2-1.667 3-2.5-1-.833-2-1.667-3-2.5 1.296-4.267 1.963-8.434 2-12.5-1.322-.17-2.489.163-3.5 1-.492-1.049-.326-2.049.5-3-.883-1.048-1.55-2.215-2-3.5.392-1.011 1.059-1.511 2-1.5-1.649-.648-2.982-1.648-4-3 .774-1.211 1.607-1.211 2.5 0 .595-1.399.428-2.732-.5-4 .667-.333 1.333-.667 2-1-.477-1.431-1.143-2.764-2-4-1.124 1.869-1.957 3.869-2.5 6-.718.951-1.551 1.117-2.5.5 2.136-2.568 2.136-4.902 0-7 1.11-2.737 1.277-5.571.5-8.5-.05-2.244-.883-3.911-2.5-5 1.109-.79 2.442-1.29 4-1.5-.951-.718-1.117-1.551-.5-2.5 2.486-1.943 4.986-3.609 7.5-5z"/>
  <path fill="#3b5266" d="M205.5 228.5c1.45 4.876-.55 7.709-6 8.5-2.129 3.754-4.629 7.254-7.5 10.5-2.42 6.379-2.586 12.879-.5 19.5-1.416 2.265-3.416 3.431-6 3.5-.342-.838-1.008-1.172-2-1-.667 0-1-.333-1-1 .376-5.67-.291-11.337-2-17-1.932-.645-3.099-1.979-3.5-4-.236 1.619-1.069 2.619-2.5 3-.977-2.787-1.31-5.787-1-9 .809 1.792 1.309 3.792 1.5 6 .236-2.264.736-4.431 1.5-6.5-.556-.383-.889-.883-1-1.5 1.35-.983 2.35-2.316 3-4 .743 1.408 1.577 2.741 2.5 4 .333-.667.667-1.333 1-2 1.009 1.525 1.509 3.192 1.5 5 4.573 2.144 7.573.811 9-4 3.148-.64 3.481-1.64 1-3 1.148-1.649 2.481-3.149 4-4.5 2.879-.546 5.546-1.379 8-2.5zm-20 32c1.276.886 1.276 1.886 0 3-.587-.733-.587-1.733 0-3z" opacity=".918"/>
  <path fill="#121319" d="M140.5 226.5c-.131.876.202 1.543 1 2 5.288-3.086 7.121-1.419 5.5 5-2.043 1.079-3.376 2.746-4 5-.499 4.321-.666 8.654-.5 13-1.623 5.512-2.29 11.178-2 17 2.442-.381 3.109.286 2 2 2.933 2.238 2.599 3.238-1 3v-3c-1.052-.149-2.052.017-3 .5 1.184 1.145 1.184 2.312 0 3.5-.651-.591-1.318-1.257-2-2-.808 1.923-1.308 3.923-1.5 6-.333-2.667-.667-5.333-1-8l-1 1c-.634-5.634-1.134-5.968-1.5-1-.617.111-1.117.444-1.5 1-1.124-2.942-1.458-5.942-1-9l2 2c.089-8.68-.411-17.347-1.5-26-.058-2.557.609-4.89 2-7l1 1c-1.252 2.235-1.752 4.569-1.5 7 1.731-2.362 2.565-5.029 2.5-8 2.067-.032 3.4-1.032 4-3 .663-3.306 1.163-6.639 1.5-10 .183 2.865.683 5.531 1.5 8z"/>
  <path fill="#090b14" d="M128.5 226.5c.198 12.402-.635 24.735-2.5 37-.249-8.677-.249-17.343 0-26-.989 8.704-2.156 17.371-3.5 26-.783 1.843-1.45 3.843-2 6 1.02 1.932 1.187 3.932.5 6-.508 2.404-1.675 3.071-3.5 2-.642 3.559-1.809 6.893-3.5 10-.497 2.31-.663 4.643-.5 7 1.052-.149 2.052.017 3 .5-3.854.559-4.854 2.559-3 6-.13 1.059-.63 1.892-1.5 2.5-3.675.18-7.508-.153-11.5-1-.985-1.598-1.151-3.265-.5-5 1.587-1.227 2.921-.894 4 1 .814-2.402.647-4.735-.5-7-1.026 3.649-3.359 4.815-7 3.5.667-.333 1.333-.667 2-1-1.504-1.491-2.337-3.324-2.5-5.5-.944.763-1.444 1.763-1.5 3 1.94 2.696 1.273 4.029-2 4 .92-2.381.92-4.714 0-7 .748-1.832 1.748-3.499 3-5-.308-.808-.808-1.475-1.5-2-2.159 2.456-2.992 1.79-2.5-2 1.175.219 2.175-.114 3-1-3.679-.758-4.679-2.758-3-6 3.336.737 6.669 2.237 10 4.5-2.388 4.157-1.388 4.657 3 1.5-1.333-1-1.333-2 0-3-.825-.886-1.825-1.219-3-1v-3c-1.052.149-2.052-.017-3-.5 1.973-.495 3.973-.662 6-.5.14-1.624-.527-2.79-2-3.5l1-1c1.811.707 3.811 1.207 6 1.5-.226-2.749.107-5.416 1-8-.876-.751-1.876-1.251-3-1.5 3.671-3.705 5.838-2.872 6.5 2.5 2.812-7.26 5.312-14.594 7.5-22 .996.086 1.829-.248 2.5-1 1.313-3.92 2.313-7.92 3-12 .383.556.883.889 1.5 1z"/>
  <path fill="#0f121c" d="M86.5 229.5c.699 2.056 1.699 4.056 3 6 .774 1.211 1.607 1.211 2.5 0l1.5 3c-.675 4.589-1.008 9.089-1 13.5 1.694 6.389 2.361 12.889 2 19.5h-5c-.333 3.333-.667 6.667-1 10h-6c.038 2.681-.629 5.181-2 7.5.667 1.667 1.333 3.333 2 5-1.066 3.094-1.732 6.26-2 9.5h3c-.064 5.754.602 11.42 2 17-.051 1.6-.384 3.1-1 4.5 9.208-.153 14.041 4.347 14.5 13.5.718-.951 1.551-1.117 2.5-.5 2.232 4.272 4.232 3.939 6-1 1.634-.494 3.301-.66 5-.5-.098-2.053.569-3.72 2-5v4c1.679-.215 2.679.452 3 2 .42 2.174.42 4.174 0 6 2.16 1.593 2.327 3.26.5 5-.743-2.145-1.576-2.311-2.5-.5.529 1.559 1.196 3.059 2 4.5l-1 1c-.667-1-1.333-2-2-3-.586.209-1.086.543-1.5 1 .333-5 .667-10 1-15-1.61 3.097-2.61 6.431-3 10-2.622 1.873-3.456 4.207-2.5 7l2-2c.843 1.731.843 3.565 0 5.5-2.134 3.302-4.801 6.135-8 8.5-3.244-1.345-4.244-3.512-3-6.5-2.811-1.908-5.811-3.574-9-5-.227-1.135-.56-2.302-1-3.5-3.04-1.408-6.04-2.741-9-4 .149-1.052-.017-2.052-.5-3-1.388 1.054-2.888 1.22-4.5.5.667-.333 1.333-.667 2-1-.667-1.333-1.333-2.667-2-4-.949-.617-1.782-.451-2.5.5-.043-2.717-1.043-3.384-3-2-1.059-.13-1.892-.63-2.5-1.5 1.922-3.757 2.589-7.59 2-11.5 1.746-.749 2.746-2.083 3-4-.999-5.339-.999-10.506 0-15.5-3.821-.399-4.488-1.732-2-4 1.31-3.943 2.31-7.776 3-11.5 2.535-5.734 5.368-11.401 8.5-17 .499-3.652.665-7.318.5-11-1.699.16-3.366-.006-5-.5 3.869-7.75 7.536-15.75 11-24-.167-.5-.333-1-.5-1.5-1 1.667-2 3.333-3 5-.566-2.223-1.4-4.223-2.5-6 1.422-.92 2.755-2.586 4-5z"/>
  <path fill="#131d2a" d="M167.5 239.5c-.087 5.628-1.92 6.295-5.5 2-.333 2.333-.667 4.667-1 7-.333-.667-.667-1.333-1-2-.073 3.93.76 7.597 2.5 11-.079 1.43.254 2.764 1 4 2.599 1.399 4.099 3.399 4.5 6l-3-3c.658 2.969 2.158 5.635 4.5 8-1.141.925-1.141 1.759 0 2.5-1.228.779-2.228 1.779-3 3 .939 1.944 2.273 3.611 4 5-.432 1.65-1.765 3.15-4 4.5 2.677 2.178 5.177 4.511 7.5 7-.507 4.028-.34 8.028.5 12-.6 1.4-1.6 2.4-3 3-1.657-2.509-1.324-4.675 1-6.5-.455-2.312-1.455-4.312-3-6 .987-2.552-.013-4.052-3-4.5-1.436-.929-2.769-2.095-4-3.5 1.054-1.388 1.22-2.888.5-4.5-.654 1.196-1.154 1.196-1.5 0 .826-.951.992-1.951.5-3l-1 1c-.652-2.223-2.152-3.39-4.5-3.5 2.977-1.145 4.644-3.312 5-6.5.692.525 1.192 1.192 1.5 2 1.142-2.118 1.642-4.118 1.5-6-2.123-3.739-4.789-7.072-8-10 1-1.333 2-2.667 3-4-.211-4.638-1.878-8.638-5-12 1.333-.667 2.667-1.333 4-2-2.491-1.041-2.491-1.874 0-2.5-1.57-1.397-2.904-2.897-4-4.5-1.702-3.79-3.035-7.79-4-12 2.603 3.022 4.77 7.022 6.5 12 1.113 1.829 2.613 2.663 4.5 2.5-2.004-4.019-4.004-8.019-6-12 .525-.692 1.192-1.192 2-1.5 3.295 5.207 5.629 10.873 7 17 1.187-1.153 2.187-1.153 3 0z"/>
  <path fill="#353f4d" d="M64.5 229.5v5c1.22 1.784 1.22 3.45 0 5v4c-2.448-.49-4.115.343-5 2.5.545 3.187 1.211 6.354 2 9.5 3.264.365 5.764 2.365 7.5 6 .667-1.333 1.333-2.667 2-4-1.088 4.125-1.421 8.125-1 12 1.5-2.333 3-4.667 4.5-7 .333.5.667 1 1 1.5-1.17 3.842-3.003 7.342-5.5 10.5-.333-.667-.667-1.333-1-2-1.483 3.202-1.817 6.536-1 10 4.896-2.935 6.063-1.935 3.5 3 1.353 1.024 2.02 2.357 2 4h-2c.065-.438-.101-.772-.5-1-1.333.667-2.667 1.333-4 2-.333-.667-.667-1.333-1-2-1.697 2.199-3.197 4.532-4.5 7-2.319 2.585-4.819 4.251-7.5 5-1.773 3.767-1.94 7.267-.5 10.5-1.099 2.606-2.432 5.106-4 7.5.525.692 1.192 1.192 2 1.5-2.204 2.594-4.87 4.428-8 5.5 2.211-6.781 3.377-13.781 3.5-21 1.27-5.207 3.104-10.207 5.5-15-.691-2.502-.358-5.002 1-7.5-.146-1.727-.813-1.894-2-.5-1.162-4.631-1.328-9.298-.5-14 .414-.457.914-.791 1.5-1 1.69 6.508 3.024 6.342 4-.5-2.87-7.04-5.537-14.206-8-21.5.471-1.401 1.138-2.734 2-4 .586.209 1.086.543 1.5 1 1.779-1.517 1.279-2.351-1.5-2.5-2.168-4.699-3.168-4.532-3 .5h-4c-.163-2.357.003-4.69.5-7 1.153 1.997 2.653 2.33 4.5 1-.881-1.471-2.214-2.304-4-2.5 1.359-1.204 2.359-2.704 3-4.5 3.236 1.122 3.569 2.622 1 4.5 1.129 2.717 2.629 5.217 4.5 7.5 2.443-1.093 4.943-2.093 7.5-3 .798-1.578 1.298-3.244 1.5-5 .671-.752 1.504-1.086 2.5-1zm0 10c-.722.418-1.222 1.084-1.5 2-.52-1.789-.187-3.456 1-5 .483.948.649 1.948.5 3z"/>
  <path fill="#0a0a13" d="M138.5 274.5c.086 2.177.753 4.177 2 6-1.276 1.145-2.609 1.145-4 0-.966 1.896-1.299 3.896-1 6h3c-.157-1.373.01-2.707.5-4l1 1c.928 5.746 2.761 11.079 5.5 16 1.095 3.522.095 6.522-3 9-1.076 3.134-3.076 5.634-6 7.5 1.333 1 1.333 2 0 3 1.439.991 2.439 2.324 3 4 1.293.49 2.627.657 4 .5.514 2.012.68 4.012.5 6l-1-1c-.497 2.31-.663 4.643-.5 7-1.373-.157-2.707.01-4 .5 2.152 2.424 3.485 5.257 4 8.5-.5.333-1 .667-1.5 1-2.213-1.749-3.213-3.749-3-6-1.976 2.456-4.143 2.623-6.5.5-.645-5.267-1.312-10.433-2-15.5.042-16.649.042-33.149 0-49.5 1.607-1.049 2.273-2.549 2-4.5.366-4.968.866-4.634 1.5 1l1-1c.333 2.667.667 5.333 1 8 .192-2.077.692-4.077 1.5-6 .682.743 1.349 1.409 2 2z"/>
  <path fill="#1a1e29" d="M143.5 242.5c1.617 1.089 2.45 2.756 2.5 5 .777 2.929.61 5.763-.5 8.5 2.136 2.098 2.136 4.432 0 7 .949.617 1.782.451 2.5-.5.543-2.131 1.376-4.131 2.5-6 .857 1.236 1.523 2.569 2 4-.667.333-1.333.667-2 1 .928 1.268 1.095 2.601.5 4-.893-1.211-1.726-1.211-2.5 0 1.018 1.352 2.351 2.352 4 3-.941-.011-1.608.489-2 1.5.45 1.285 1.117 2.452 2 3.5-.826.951-.992 1.951-.5 3 1.011-.837 2.178-1.17 3.5-1-.037 4.066-.704 8.233-2 12.5 1 .833 2 1.667 3 2.5-1 .833-2 1.667-3 2.5.956 3.394 1.289 6.894 1 10.5-.934 1.068-1.268 2.401-1 4h3c.478 2.778-.522 4.778-3 6-3.236-4.412-5.903-9.078-8-14-2.739-4.921-4.572-10.254-5.5-16l-1-1c-.49 1.293-.657 2.627-.5 4h-3c-.299-2.104.034-4.104 1-6 1.391 1.145 2.724 1.145 4 0-1.247-1.823-1.914-3.823-2-6 1.184-1.188 1.184-2.355 0-3.5.948-.483 1.948-.649 3-.5v3c3.599.238 3.933-.762 1-3 1.109-1.714.442-2.381-2-2-.29-5.822.377-11.488 2-17 .749-1.031 1.415-2.198 2-3.5-.906-1.699-1.239-3.533-1-5.5z"/>
  <path fill="#181a21" d="M128.5 223.5c1.955 2.48 3.622 5.146 5 8 .065 2.971-.769 5.638-2.5 8-.252-2.431.248-4.765 1.5-7l-1-1c-1.391 2.11-2.058 4.443-2 7 1.089 8.653 1.589 17.32 1.5 26l-2-2c-.458 3.058-.124 6.058 1 9 .383-.556.883-.889 1.5-1 .273 1.951-.393 3.451-2 4.5.042 16.351.042 32.851 0 49.5.103 6.886-.564 13.553-2 20-.768.763-1.268 1.763-1.5 3-.717-3.545-.55-7.045.5-10.5-.454-2.036-1.287-3.87-2.5-5.5-.497 2.646-.664 5.313-.5 8-1.322-.17-2.489.163-3.5 1-1.416-1.218-1.249-2.551.5-4-.167-.667-.333-1.333-.5-2-.852 1.071-1.685 2.071-2.5 3-.321-1.548-1.321-2.215-3-2v-4c1.548-5.145 2.548-10.478 3-16l-2-2c3.811-1.238 3.811-1.904 0-2-.12-3.542.214-7.042 1-10.5 4.429-9.92 6.596-20.42 6.5-31.5 1.838.274 3.005 1.774 3.5 4.5-1.564 1.605-2.064 3.438-1.5 5.5 1.786-1.277 2.952-2.944 3.5-5-.561-3.035-1.227-6.035-2-9-1.266-.862-2.599-1.529-4-2 1.344-8.629 2.511-17.296 3.5-26-.249 8.657-.249 17.323 0 26 1.865-12.265 2.698-24.598 2.5-37v-3z"/>
  <path fill="#57687c" d="M185.5 277.5c3.715 10.098 8.549 19.764 14.5 29 1.136 2.596 1.969 5.263 2.5 8h-3v4c-.884-2.523-1.718-5.19-2.5-8-5.701-9.403-10.868-19.07-15.5-29 2.007 1.179 2.34.679 1-1.5 1.191-.698 2.191-1.531 3-2.5z" opacity=".976"/>
  <path fill="#0a0c16" d="M171.5 323.5c-.65 1.935-.983 3.935-1 6h4c1.096 4.876-.571 6.543-5 5-.333 1.333-.667 2.667-1 4 .662 2.647.662 5.147 0 7.5.167.833.333 1.667.5 2.5.654-1.196 1.154-1.196 1.5 0-1.488 2.077-3.488 3.077-6 3v3c-1.951-.273-3.451.393-4.5 2-.612-2.532-2.112-3.365-4.5-2.5-2.15 2.041-3.15 4.541-3 7.5-7.713 1.02-14.879-.313-21.5-4-1.473.403-2.806 1.07-4 2-.464-.594-.631-1.261-.5-2 .7-4.298 1.033-8.631 1-13 1.436-6.447 2.103-13.114 2-20 .688 5.067 1.355 10.233 2 15.5 2.357 2.123 4.524 1.956 6.5-.5-.213 2.251.787 4.251 3 6 .5-.333 1-.667 1.5-1-.515-3.243-1.848-6.076-4-8.5 1.293-.49 2.627-.657 4-.5-.163-2.357.003-4.69.5-7l1 1c.18-1.988.014-3.988-.5-6-1.373.157-2.707-.01-4-.5-.561-1.676-1.561-3.009-3-4 1.333-1 1.333-2 0-3 2.924-1.866 4.924-4.366 6-7.5.178 3.602 1.178 3.602 3 0 .798 1.578 1.298 3.244 1.5 5 1.994-2.584 2.494-2.418 1.5.5.259 1.261.926 2.261 2 3-1.395 2.785-2.728 5.618-4 8.5.827 2.441.827 4.607 0 6.5l-2 2c1.519 1.218 2.686 2.718 3.5 4.5 1.546-7.449 4.046-14.782 7.5-22 4.485-1.724 5.152-4.391 2-8 .296-2.485 1.629-4.152 4-5 1.224 2.328 1.224 4.661 0 7 6.205 1.794 8.705 5.794 7.5 12 1.461-1.383 2.294-1.049 2.5 1z"/>
  <path fill="#121b27" d="M180.5 287.5c3.547 14.637 8.881 28.637 16 42 .825.886 1.825 1.219 3 1-.086.996.248 1.829 1 2.5 1.717 1.559 3.717 2.392 6 2.5 4.327 4.322 8.994 8.322 14 12-.884 2.442-2.551 3.275-5 2.5-6.212-5.547-12.712-10.714-19.5-15.5-.667 1-.667 2 0 3 4.035 6.393 7.702 13.06 11 20 .765 1.566.598 2.899-.5 4-5.5-10.573-11.166-20.906-17-31-.61-.891-.943-1.891-1-3 .172-.992-.162-1.658-1-2-1.012-2.757-2.012-5.424-3-8-.605-2.627-1.105-5.293-1.5-8-2.184-4.875-4.184-9.875-6-15-.89-3.206-.557-6.206 1-9 .075 2.435.908 3.102 2.5 2z" opacity=".933"/>
  <path fill="#0d101b" d="M166.5 292.5c2.987.448 3.987 1.948 3 4.5 1.545 1.688 2.545 3.688 3 6-2.324 1.825-2.657 3.991-1 6.5-.518 1.077-.852 2.244-1 3.5 1.479 2.461 2.813 4.961 4 7.5-1.228.806-2.228 1.806-3 3-.206-2.049-1.039-2.383-2.5-1 1.205-6.206-1.295-10.206-7.5-12 1.224-2.339 1.224-4.672 0-7-2.371.848-3.704 2.515-4 5 3.152 3.609 2.485 6.276-2 8-3.454 7.218-5.954 14.551-7.5 22-.814-1.782-1.981-3.282-3.5-4.5l2-2c.827-1.893.827-4.059 0-6.5 1.272-2.882 2.605-5.715 4-8.5-1.074-.739-1.741-1.739-2-3 .994-2.918.494-3.084-1.5-.5-.202-1.756-.702-3.422-1.5-5-1.822 3.602-2.822 3.602-3 0 3.095-2.478 4.095-5.478 3-9 2.097 4.922 4.764 9.588 8 14 2.478-1.222 3.478-3.222 3-6h-3c-.268-1.599.066-2.932 1-4 .802-1.452 1.302-3.118 1.5-5 1.507-1.005 2.673-2.338 3.5-4 1.467-1.195 2.967-1.195 4.5 0 1.011-.556 1.844-1.222 2.5-2z"/>
  <path fill="#1e2631" d="M71.5 289.5c.131.739-.036 1.406-.5 2-.654-1.196-1.154-1.196-1.5 0 1.044 2.268 1.211 4.601.5 7-5.18 6.383-10.347 12.716-15.5 19 .346 1.196.846 1.196 1.5 0-.148 1.325.018 2.492.5 3.5-3.242.283-3.576 1.117-1 2.5-.876.751-1.876 1.251-3 1.5 1 .833 2 1.667 3 2.5-1.008 2.695-2.008 5.362-3 8-.565 1.92-1.565 3.587-3 5 .275-4.72-.559-5.054-2.5-1-.605 2.745-1.438 5.745-2.5 9-2.034-.954-4.034-1.954-6-3h-5c.457-2.906 1.457-5.572 3-8 2.915-3.626 5.248-7.626 7-12 3.13-1.072 5.796-2.906 8-5.5-.808-.308-1.475-.808-2-1.5 1.568-2.394 2.901-4.894 4-7.5-1.44-3.233-1.273-6.733.5-10.5 2.681-.749 5.181-2.415 7.5-5 1.303-2.468 2.803-4.801 4.5-7 .333.667.667 1.333 1 2 1.333-.667 2.667-1.333 4-2 .399.228.565.562.5 1z"/>
  <path fill="#90959d" d="M202.5 314.5c2.457 7.023 3.79 14.023 4 21-2.283-.108-4.283-.941-6-2.5-.752-.671-1.086-1.504-1-2.5-.364-4.122-.364-8.122 0-12v-4h3z" opacity=".376"/>
  <path fill="#161d28" d="M174.5 306.5c2.794 2.319 4.628 5.319 5.5 9 .667-1.333 1.333-2.667 2-4 .413 2.732 1.08 5.399 2 8 .464-.594.631-1.261.5-2 .988 2.576 1.988 5.243 3 8-.667 0-1 .333-1 1-.174 7.035.159 14.035 1 21-1.083.039-2.083.373-3 1-.818 2.607-1.318 5.274-1.5 8-1.356-.88-2.856-1.214-4.5-1 .172-1.992-.495-3.658-2-5 1.831-3.741 2.497-7.741 2-12 1.175.219 2.175-.114 3-1-1.408-.743-2.741-1.577-4-2.5 1.109-1.813.442-2.646-2-2.5v-5c-1.052.149-2.052-.017-3-.5 1.185-1.353 2.519-2.52 4-3.5-1.112-.765-1.779-1.765-2-3-1.187-2.539-2.521-5.039-4-7.5.148-1.256.482-2.423 1-3.5 1.4-.6 2.4-1.6 3-3z"/>
  <path fill="#1d222d" d="M52.5 335.5c.739-.131 1.406.036 2 .5-.066 2.109-.399 4.275-1 6.5 2.286 4.563 5.786 6.229 10.5 5 .494 1.634.66 3.301.5 5h6c-.215-1.679.452-2.679 2-3 2.196.065 4.196.732 6 2 .518 2.4 1.685 4.4 3.5 6 .749 1.135.583 2.135-.5 3-.896-1.006-1.562-1.006-2 0 .414 2.91 1.414 5.577 3 8-1 .833-2 1.667-3 2.5 4.772 1.59 7.439 4.757 8 9.5 2.354.338 4.687.838 7 1.5-.556.383-.889.883-1 1.5h-3c.39 4.922-.777 5.256-3.5 1-.311-2.056-.811-4.056-1.5-6-2.124-.649-4.124-1.483-6-2.5 1-.333 2-.667 3-1-3.461-1.231-6.794-2.731-10-4.5-1.833-1.666-3.166-3.666-4-6-.925 1.141-1.759 1.141-2.5 0-.333-1.667-.667-3.333-1-5-1.629.336-3.129-.33-4.5-2 .835-1.443 2.168-2.443 4-3-2.388-2.393-5.055-3.226-8-2.5-.43-.92-.764-1.753-1-2.5-2.235 1.252-4.569 1.752-7 1.5 5.504-2.053 6.004-4.553 1.5-7.5-.483-.948-.649-1.948-.5-3 1.435-1.413 2.435-3.08 3-5z"/>
  <path fill="#171e28" d="M71.5 289.5h2c-.69 3.724-1.69 7.557-3 11.5-2.488 2.268-1.821 3.601 2 4-.999 4.994-.999 10.161 0 15.5-.254 1.917-1.254 3.251-3 4-5.007-.49-5.674.343-2 2.5-2.189.677-2.522 1.844-1 3.5-.667.333-1.333.667-2 1-2.546-2.447-5.213-2.614-8-.5 1.293.49 2.627.657 4 .5-.182 3.108-1.516 5.608-4 7.5 5.232 1.701 10.566 3.034 16 4-.457.414-.791.914-1 1.5 1.982.716 3.649 1.883 5 3.5-1.284.684-2.451.517-3.5-.5-.464.594-.631 1.261-.5 2-1.548.321-2.215 1.321-2 3h-6c.16-1.699-.006-3.366-.5-5-4.714 1.229-8.214-.437-10.5-5 .601-2.225.934-4.391 1-6.5-.594-.464-1.261-.631-2-.5.992-2.638 1.992-5.305 3-8-1-.833-2-1.667-3-2.5 1.124-.249 2.124-.749 3-1.5-2.576-1.383-2.242-2.217 1-2.5-.482-1.008-.648-2.175-.5-3.5-.654 1.196-1.154 1.196-1.5 0 5.153-6.284 10.32-12.617 15.5-19 .711-2.399.544-4.732-.5-7 .346-1.196.846-1.196 1.5 0 .464-.594.631-1.261.5-2z"/>
  <path fill="#303a48" d="M187.5 325.5c.838.342 1.172 1.008 1 2-1.098 1.101-1.265 2.434-.5 4 2.179 1.34 2.679 1.007 1.5-1 5.834 10.094 11.5 20.427 17 31-2.71 4.607-6.544 5.94-11.5 4-.251-1.933-.751-3.766-1.5-5.5-1.249-.74-2.249-.573-3 .5-1.638-4.064-2.638-8.397-3-13-.841-6.965-1.174-13.965-1-21 .667 0 1-.333 1-1z"/>
  <path fill="#272d3b" d="M43.5 325.5c-1.752 4.374-4.085 8.374-7 12-.06-.543-.393-.876-1-1-2.489 2.155-4.156 4.822-5 8 1.54 1.032 2.04 2.365 1.5 4-2.252 2.797-4.419 5.631-6.5 8.5-.667.667-1.333.667-2 0 2.159-2.5 3.493-5 4-7.5-2.83 3.028-6.164 3.695-10 2-2.017.674-3.683 1.841-5 3.5 3.063 3.191 6.396 5.191 10 6-1.444 2.034-3.444 2.868-6 2.5-2.361-.935-4.528-2.268-6.5-4-1.426-4.552-2.426-9.219-3-14-1.587 1.227-2.921.894-4-1-.503-4.999 1.664-6.999 6.5-6 12.908-.411 24.241-4.744 34-13z"/>
  <path fill="#252a34" d="M49.5 340.5c-.149 1.052.017 2.052.5 3 4.504 2.947 4.004 5.447-1.5 7.5 2.431.252 4.765-.248 7-1.5.236.747.57 1.58 1 2.5 2.945-.726 5.612.107 8 2.5-1.832.557-3.165 1.557-4 3-1.201 2.905-1.034 5.905.5 9 .419-1.172 1.085-2.172 2-3 1.162 2.338 2.996 3.672 5.5 4 1.004 3.058 1.504 6.058 1.5 9 1.975-.008 3.809-1.008 5.5-3 2.291 1.396 2.625 3.229 1 5.5.914 1.406 1.58 2.906 2 4.5.065.438-.101.772-.5 1-2.755-1.51-3.921-3.843-3.5-7-3.018-.165-6.018.002-9 .5-1.025 2.071-1.858 4.238-2.5 6.5-.333-1.333-.667-2.667-1-4-4.392 4.436-6.059 3.769-5-2-.741-1.141-1.575-1.141-2.5 0-2.143-3.258-3.81-6.758-5-10.5-1.667-.667-3.333-.667-5 0-.612 1.303-.946 2.47-1 3.5-.917-.627-1.917-.961-3-1 2.451-6.752 3.951-13.752 4.5-21-2.067 5.03-4.233 10.03-6.5 15l-1-1c1.77-3.173 2.603-6.506 2.5-10-.26 2.118-1.26 3.784-3 5-.167-.5-.333-1-.5-1.5 1.258-2.185 1.258-4.352 0-6.5 1.45-1.35 2.117-3.016 2-5 1.966 1.046 3.966 2.046 6 3 1.062-3.255 1.895-6.255 2.5-9 1.941-4.054 2.775-3.72 2.5 1z"/>
  <path fill="#0f121d" d="M174.5 320.5c.221 1.235.888 2.235 2 3-1.481.98-2.815 2.147-4 3.5.948.483 1.948.649 3 .5v5c2.442-.146 3.109.687 2 2.5 1.259.923 2.592 1.757 4 2.5-.825.886-1.825 1.219-3 1 .497 4.259-.169 8.259-2 12 1.505 1.342 2.172 3.008 2 5 .15 2.959-.85 5.459-3 7.5 1.168 1.406.835 2.572-1 3.5.209.586.543 1.086 1 1.5-2.164.433-4.164-.067-6-1.5-3.392.522-3.726 1.689-1 3.5-.522.95-1.189 1.784-2 2.5 1.829 1.656 3.163 3.656 4 6 2.085 1.975 4.085 3.308 6 4-1.218 1.303-.885 2.303 1 3-.972.093-1.972.426-3 1-2.746 3.153-2.58 6.153.5 9 .814 2.402.647 4.735-.5 7-1.503.552-3.169.552-5 0-.111-.617-.444-1.117-1-1.5h4c-.291-2.126-.957-4.46-2-7l1-1c-.938-1.063-1.938-2.23-3-3.5.209-.586.543-1.086 1-1.5-1.266-.309-2.433-.809-3.5-1.5-1.147.958-2.147.625-3-1-.151-2.619-.985-4.953-2.5-7-2.866-.708-5.7-1.375-8.5-2-1.016 1.134-1.683.801-2-1-.741 1.141-1.575 1.141-2.5 0-5.596 3.47-4.929 4.804 2 4v4h3v4c-2.064.187-4.064.687-6 1.5-1.098.77-1.098 1.603 0 2.5-1.617-.538-3.284-.871-5-1-1.23 5.798-2.23 11.632-3 17.5-1.667.667-3.333.667-5 0-1.302-3.134-3.635-4.968-7-5.5-.929-1.189-1.262-2.522-1-4-1.716-.129-3.383-.462-5-1-.667-1-1.333-2-2-3l-2-2c-.342-.838-1.008-1.172-2-1 1.778-2.329 2.778-4.996 3-8 1.699.16 3.366-.006 5-.5-.753-1.487-1.586-1.654-2.5-.5-.667-1.667-.667-3.333 0-5 1.397 2.568 2.564 2.401 3.5-.5-.45-1.285-1.117-2.452-2-3.5.54-1.248 1.207-2.415 2-3.5-1.11-2.737-1.277-5.571-.5-8.5.498-2.044 1.665-3.378 3.5-4-.131.739.036 1.406.5 2 1.194-.93 2.527-1.597 4-2 6.621 3.687 13.787 5.02 21.5 4-.15-2.959.85-5.459 3-7.5 2.388-.865 3.888-.032 4.5 2.5 1.049-1.607 2.549-2.273 4.5-2v-3c2.512.077 4.512-.923 6-3-.346-1.196-.846-1.196-1.5 0-.167-.833-.333-1.667-.5-2.5.662-2.353.662-4.853 0-7.5.333-1.333.667-2.667 1-4 4.429 1.543 6.096-.124 5-5h-4c.017-2.065.35-4.065 1-6 .772-1.194 1.772-2.194 3-3z"/>
  <path fill="#171a25" d="M69.5 324.5c.589 3.91-.078 7.743-2 11.5.608.87 1.441 1.37 2.5 1.5 1.957-1.384 2.957-.717 3 2 .718-.951 1.551-1.117 2.5-.5.667 1.333 1.333 2.667 2 4-.667.333-1.333.667-2 1 1.612.72 3.112.554 4.5-.5.483.948.649 1.948.5 3 1.641 1.758 3.641 3.258 6 4.5 1.794 3.245 4.461 5.579 8 7-.667.333-1.333.667-2 1 1.736 1.939 2.736 4.272 3 7-1.438 2.366-.938 2.866 1.5 1.5.465 1.431 1.299 2.597 2.5 3.5-7.836 1.567-7.836 2.567 0 3-3.861.569-3.861 1.402 0 2.5-1.601.704-2.935 1.871-4 3.5 4.307 2.121 6.974 5.454 8 10 1.892.973 3.892 1.64 6 2-1.388.889-1.222 1.389.5 1.5 1.477-.944 2.477-2.277 3-4 .278.916.778 1.582 1.5 2 .992-.172 1.658.162 2 1h-2c-.904.709-1.237 1.709-1 3h-10c-.79-.901-1.79-1.568-3-2v-2c-.898-.658-1.898-1.324-3-2-.14-1.403-.14-2.903 0-4.5-1.063-1.188-2.397-1.688-4-1.5.111-.617.444-1.117 1-1.5-2.313-.662-4.646-1.162-7-1.5-.561-4.743-3.228-7.91-8-9.5 1-.833 2-1.667 3-2.5-1.586-2.423-2.586-5.09-3-8 .438-1.006 1.104-1.006 2 0 1.083-.865 1.249-1.865.5-3-1.815-1.6-2.982-3.6-3.5-6-1.804-1.268-3.804-1.935-6-2-.131-.739.036-1.406.5-2 1.049 1.017 2.216 1.184 3.5.5-1.351-1.617-3.018-2.784-5-3.5.209-.586.543-1.086 1-1.5-5.434-.966-10.768-2.299-16-4 2.484-1.892 3.818-4.392 4-7.5-1.373.157-2.707-.01-4-.5 2.787-2.114 5.454-1.947 8 .5.667-.333 1.333-.667 2-1-1.522-1.656-1.189-2.823 1-3.5-3.674-2.157-3.007-2.99 2-2.5z"/>
  <path fill="#151823" d="M127.5 344.5c.033 4.369-.3 8.702-1 13-1.835.622-3.002 1.956-3.5 4-.777 2.929-.61 5.763.5 8.5-.793 1.085-1.46 2.252-2 3.5.883 1.048 1.55 2.215 2 3.5-.936 2.901-2.103 3.068-3.5.5-.667 1.667-.667 3.333 0 5 .914-1.154 1.747-.987 2.5.5-1.634.494-3.301.66-5 .5-.222 3.004-1.222 5.671-3 8-.722-.418-1.222-1.084-1.5-2-.523 1.723-1.523 3.056-3 4-1.722-.111-1.888-.611-.5-1.5-2.108-.36-4.108-1.027-6-2-1.026-4.546-3.693-7.879-8-10 1.065-1.629 2.399-2.796 4-3.5-3.861-1.098-3.861-1.931 0-2.5-7.836-.433-7.836-1.433 0-3-1.201-.903-2.035-2.069-2.5-3.5-2.438 1.366-2.938.866-1.5-1.5-.264-2.728-1.264-5.061-3-7 .667-.333 1.333-.667 2-1-3.539-1.421-6.206-3.755-8-7-2.359-1.242-4.359-2.742-6-4.5 2.96 1.259 5.96 2.592 9 4 .44 1.198.773 2.365 1 3.5 3.189 1.426 6.189 3.092 9 5-1.244 2.988-.244 5.155 3 6.5 3.199-2.365 5.866-5.198 8-8.5.843-1.935.843-3.769 0-5.5l-2 2c-.956-2.793-.122-5.127 2.5-7 .39-3.569 1.39-6.903 3-10-.333 5-.667 10-1 15 .414-.457.914-.791 1.5-1 .667 1 1.333 2 2 3l1-1c-.804-1.441-1.471-2.941-2-4.5.924-1.811 1.757-1.645 2.5.5 1.827-1.74 1.66-3.407-.5-5 .42-1.826.42-3.826 0-6 .815-.929 1.648-1.929 2.5-3 .167.667.333 1.333.5 2-1.749 1.449-1.916 2.782-.5 4 1.011-.837 2.178-1.17 3.5-1-.164-2.687.003-5.354.5-8 1.213 1.63 2.046 3.464 2.5 5.5-1.05 3.455-1.217 6.955-.5 10.5.232-1.237.732-2.237 1.5-3z"/>
  <path fill="#151a25" d="M187.5 347.5c.362 4.603 1.362 8.936 3 13 1.162 7.997 2.662 15.997 4.5 24-1.419.96-2.919 1.793-4.5 2.5-4.055.232-8.055.732-12 1.5-1.36-.68-2.693-1.347-4-2 1.028-.574 2.028-.907 3-1-1.885-.697-2.218-1.697-1-3-1.915-.692-3.915-2.025-6-4-.837-2.344-2.171-4.344-4-6 .811-.716 1.478-1.55 2-2.5-2.726-1.811-2.392-2.978 1-3.5 1.836 1.433 3.836 1.933 6 1.5-.457-.414-.791-.914-1-1.5 1.835-.928 2.168-2.094 1-3.5 2.15-2.041 3.15-4.541 3-7.5 1.644-.214 3.144.12 4.5 1 .182-2.726.682-5.393 1.5-8 .917-.627 1.917-.961 3-1z"/>
  <path fill="#3c3d49" d="M36.5 337.5c-1.543 2.428-2.543 5.094-3 8h5c.117 1.984-.55 3.65-2 5 1.258 2.148 1.258 4.315 0 6.5.167.5.333 1 .5 1.5 1.74-1.216 2.74-2.882 3-5 .103 3.494-.73 6.827-2.5 10l1 1c2.267-4.97 4.433-9.97 6.5-15-.549 7.248-2.049 14.248-4.5 21-.658.898-1.324 1.898-2 3-.667-1.667-1.333-3.333-2-5-1.495 3.145-1.162 5.978 1 8.5-.691 1.067-1.191 2.234-1.5 3.5-3.262-3.006-5.762-2.673-7.5 1-9.31-2.424-10.977-7.258-5-14.5-2.358-1.276-4.692-2.442-7-3.5 2.556.368 4.556-.466 6-2.5-3.604-.809-6.937-2.809-10-6 1.317-1.659 2.983-2.826 5-3.5 3.836 1.695 7.17 1.028 10-2-.507 2.5-1.841 5-4 7.5.667.667 1.333.667 2 0 2.081-2.869 4.248-5.703 6.5-8.5.54-1.635.04-2.968-1.5-4 .844-3.178 2.511-5.845 5-8 .607.124.94.457 1 1z"/>
  <path fill="#0b0d19" d="M169.5 402.5c-.648 1.586-1.148 3.253-1.5 5-2.447.152-4.947.152-7.5 0-.978.477-1.811 1.143-2.5 2-2.225-1.439-4.225-3.106-6-5-.923-4.56-1.423-9.227-1.5-14-.917.627-1.917.961-3 1h-1c-1.098-.897-1.098-1.73 0-2.5 1.936-.813 3.936-1.313 6-1.5v-4h-3v-4c-6.929.804-7.596-.53-2-4 .925 1.141 1.759 1.141 2.5 0 .317 1.801.984 2.134 2 1 2.8.625 5.634 1.292 8.5 2 1.515 2.047 2.349 4.381 2.5 7 .853 1.625 1.853 1.958 3 1 1.067.691 2.234 1.191 3.5 1.5-.457.414-.791.914-1 1.5 1.062 1.27 2.062 2.437 3 3.5l-1 1c1.043 2.54 1.709 4.874 2 7h-4c.556.383.889.883 1 1.5z"/>
  <path fill="#342f3c" d="M78.5 383.5c5.29 1.418 5.957 3.918 2 7.5 1.929 2.425 2.929 5.258 3 8.5-1.459-.067-2.792.266-4 1-.98-2.616-2.48-4.949-4.5-7-5.023 1.455-10.19 2.288-15.5 2.5-2.649 4.144-5.649 7.978-9 11.5-5.286-3.403-5.286-6.903 0-10.5-3.668-2.668-6.168-6.168-7.5-10.5-.7 1.532-1.866 2.532-3.5 3-1.929-.88-3.763-1.88-5.5-3-2.319 1.371-4.819 2.038-7.5 2-.334-2.688.332-5.021 2-7 1.738-3.673 4.238-4.006 7.5-1 .309-1.266.809-2.433 1.5-3.5-2.162-2.522-2.495-5.355-1-8.5.667 1.667 1.333 3.333 2 5 .676-1.102 1.342-2.102 2-3 1.083.039 2.083.373 3 1 .054-1.03.388-2.197 1-3.5 1.667-.667 3.333-.667 5 0 1.19 3.742 2.857 7.242 5 10.5.925-1.141 1.759-1.141 2.5 0-1.059 5.769.608 6.436 5 2 .333 1.333.667 2.667 1 4 .642-2.262 1.475-4.429 2.5-6.5 2.982-.498 5.982-.665 9-.5-.421 3.157.745 5.49 3.5 7 .399-.228.565-.562.5-1z"/>
  <path fill="#584e5b" d="M114.5 392.5c-.202 4.345 1.131 5.012 4 2 .667 1 1.333 2 2 3-1.935.65-3.935.983-6 1 .748 8.594-2.918 11.594-11 9 .107-1.879-.393-2.212-1.5-1-.42-3.691-.92-7.358-1.5-11h13c-.237-1.291.096-2.291 1-3z"/>
  <path fill="#201e29" d="M60.5 357.5c1.371 1.67 2.871 2.336 4.5 2 .333 1.667.667 3.333 1 5 .741 1.141 1.575 1.141 2.5 0 .834 2.334 2.167 4.334 4 6 3.206 1.769 6.539 3.269 10 4.5-1 .333-2 .667-3 1 1.876 1.017 3.876 1.851 6 2.5.689 1.944 1.189 3.944 1.5 6 2.723 4.256 3.89 3.922 3.5-1h3c1.603-.188 2.937.312 4 1.5-.14 1.597-.14 3.097 0 4.5 1.102.676 2.102 1.342 3 2-2.433.286-2.433.952 0 2 1.21.432 2.21 1.099 3 2h-3c.58 3.642 1.08 7.309 1.5 11 1.107-1.212 1.607-.879 1.5 1 .166 6.675 0 13.342-.5 20-.465 1.431-1.299 2.597-2.5 3.5-10 2-20 2-30 0-4.718-1.449-6.218-4.615-4.5-9.5 5.035-6.758 9.535-13.758 13.5-21 1.208-.734 2.541-1.067 4-1-.071-3.242-1.071-6.075-3-8.5 3.957-3.582 3.29-6.082-2-7.5-.42-1.594-1.086-3.094-2-4.5 1.625-2.271 1.291-4.104-1-5.5-1.691 1.992-3.525 2.992-5.5 3 .004-2.942-.496-5.942-1.5-9-2.504-.328-4.338-1.662-5.5-4-.915.828-1.581 1.828-2 3-1.534-3.095-1.701-6.095-.5-9z"/>
  <path fill="#131722" d="M174.5 386.5c.461 2.05 1.128 4.05 2 6-.209.586-.543 1.086-1 1.5.681 5.812 1.514 11.646 2.5 17.5 1.626 2.628 3.626 4.961 6 7 2.076 3.393 3.242 7.06 3.5 11-5.676-3.15-11.676-3.817-18-2v6c.86 1.085-.806.919-5-.5l1-1c-1.187-1.019-2.187-2.186-3-3.5 1.111-1.111 1.778-2.445 2-4-1.463-3.915-.463-7.082 3-9.5-1-.667-2-.667-3 0-1.555 1.583-2.722 3.416-3.5 5.5-.794-2.971-1.461-5.971-2-9-2.22 2.521-4.72 4.688-7.5 6.5-1.244.456-2.077-.044-2.5-1.5-.278.916-.778 1.582-1.5 2 .889-4.507 1.889-9.007 3-13.5-.43-1.434-1.264-2.601-2.5-3.5-.169-3.47-.335-6.803-.5-10 1.083-.039 2.083-.373 3-1 .077 4.773.577 9.44 1.5 14 1.775 1.894 3.775 3.561 6 5 .689-.857 1.522-1.523 2.5-2 2.553.152 5.053.152 7.5 0 .352-1.747.852-3.414 1.5-5 1.831.552 3.497.552 5 0 1.147-2.265 1.314-4.598.5-7-3.08-2.847-3.246-5.847-.5-9z"/>
  <path fill="#070a12" d="M187.5 429.5c-1.143 3.935-3.81 6.102-8 6.5-6 .667-12 .667-18 0-4.31-2.549-8.81-4.715-13.5-6.5-.499-3.652-.665-7.318-.5-11 .722-.418 1.222-1.084 1.5-2 .423 1.456 1.256 1.956 2.5 1.5 2.78-1.812 5.28-3.979 7.5-6.5.539 3.029 1.206 6.029 2 9 .778-2.084 1.945-3.917 3.5-5.5 1-.667 2-.667 3 0-3.463 2.418-4.463 5.585-3 9.5-.222 1.555-.889 2.889-2 4 .813 1.314 1.813 2.481 3 3.5l-1 1c4.194 1.419 5.86 1.585 5 .5v-6c6.324-1.817 12.324-1.15 18 2z" opacity=".862"/>
</svg>
